<?xml version="1.0" encoding="UTF-8"?><svg xmlns="http://www.w3.org/2000/svg" viewBox="0 0 226.77 155.9"><g id="a"><path d="m72.33,56.88v-10.31h5.04l-.09,1.03h-3.66v3.81h3.38v1.03h-3.38v4.44h-1.29Zm10.86-4.75c0,.31,0,.58-.03.8-.02.22-.04.42-.06.59h-3.65c.04.85.22,1.47.54,1.87.32.4.79.6,1.39.6.21,0,.4-.02.57-.07.17-.05.31-.11.44-.18.12-.07.23-.14.31-.21.08-.07.15-.12.19-.16l.45.85c-.05.05-.12.12-.22.22-.1.09-.23.19-.4.28-.17.09-.38.18-.62.25-.25.07-.54.1-.88.1-.45,0-.85-.07-1.21-.22-.36-.15-.67-.38-.92-.69-.25-.31-.45-.71-.59-1.2-.14-.48-.21-1.06-.21-1.74,0-.64.07-1.19.22-1.65.14-.46.34-.84.59-1.14.25-.3.54-.52.86-.66.33-.15.68-.22,1.06-.22.68,0,1.22.22,1.61.65.39.43.58,1.08.58,1.95Zm-2.26-1.61c-.43,0-.77.18-1.03.54-.26.36-.41.88-.45,1.55h2.6c0-.05.02-.12.02-.22,0-.09,0-.2,0-.31,0-.5-.1-.88-.3-1.16-.2-.27-.49-.41-.86-.41Zm3.54,2.88c0-.73.09-1.33.28-1.82.19-.49.43-.88.73-1.18.3-.3.64-.51,1.01-.63.38-.12.75-.19,1.13-.19.23,0,.43.02.59.05.17.03.31.08.42.13v-3.44l1.21-.13v10.7h-1.1v-.76h-.03c-.03.06-.08.14-.16.25-.08.1-.19.21-.33.31-.14.1-.31.19-.52.27-.21.08-.45.11-.73.11-.34,0-.66-.07-.96-.2-.3-.13-.57-.35-.8-.64-.23-.29-.41-.67-.54-1.14-.13-.46-.2-1.02-.2-1.68Zm2.83,2.58c.19,0,.36-.02.51-.07.15-.05.28-.11.39-.19.11-.07.2-.15.28-.23.07-.08.13-.15.17-.21v-4.42c-.11-.07-.24-.13-.38-.18-.14-.05-.33-.08-.54-.08-.28,0-.54.05-.78.14-.24.09-.45.25-.63.47-.18.22-.32.5-.42.85-.1.35-.16.78-.16,1.28s.04.91.13,1.25c.08.33.2.6.35.81.15.21.32.35.51.44.19.09.39.13.6.13Zm8.97-3.86c0,.31-.01.58-.03.8-.02.22-.04.42-.06.59h-3.65c.04.85.22,1.47.54,1.87.32.4.79.6,1.39.6.21,0,.4-.02.56-.07.17-.05.32-.11.44-.18.12-.07.23-.14.31-.21.08-.07.15-.12.19-.16l.45.85c-.05.05-.12.12-.22.22-.1.09-.23.19-.4.28-.17.09-.38.18-.62.25-.25.07-.54.1-.88.1-.45,0-.85-.07-1.21-.22-.36-.15-.67-.38-.92-.69-.25-.31-.45-.71-.59-1.2-.14-.48-.21-1.06-.21-1.74,0-.64.07-1.19.22-1.65.14-.46.34-.84.59-1.14.25-.3.54-.52.86-.66.33-.15.68-.22,1.06-.22.69,0,1.22.22,1.61.65.39.43.58,1.08.58,1.95Zm-2.26-1.61c-.43,0-.77.18-1.03.54-.26.36-.41.88-.45,1.55h2.6c0-.05.02-.12.02-.22,0-.09,0-.2,0-.31,0-.5-.1-.88-.3-1.16-.2-.27-.49-.41-.86-.41Zm7.01.25s-.09-.04-.19-.07c-.1-.03-.23-.04-.4-.04-.38,0-.67.1-.89.31-.21.2-.36.43-.45.66v5.26h-1.21v-7.17h1.1v.97h.03c.05-.14.12-.28.19-.41.08-.13.18-.25.3-.36.12-.1.26-.19.42-.25.16-.06.36-.09.59-.09.17,0,.3.02.41.04.11.03.19.05.24.07l-.15,1.08Zm.7,4.29c0-.42.08-.77.24-1.05.16-.28.37-.51.64-.68.27-.17.58-.3.94-.37.36-.07.75-.11,1.15-.11h.37v-.69c0-.61-.11-1.03-.32-1.26-.21-.23-.51-.34-.9-.34-.36,0-.65.08-.89.23-.24.15-.43.29-.56.41l-.51-.81c.08-.08.18-.17.3-.27.12-.1.28-.19.45-.28.18-.09.38-.16.61-.22s.49-.09.77-.09c.73,0,1.29.2,1.67.61.38.41.57,1.07.57,1.97v3.27c0,.31,0,.61.03.9.02.29.04.49.06.59h-1.14l-.05-.79h-.03c-.04.09-.1.19-.18.31-.08.11-.18.22-.3.31-.12.09-.26.18-.43.25-.17.07-.37.1-.59.1-.27,0-.52-.05-.75-.15-.23-.1-.44-.24-.61-.42-.17-.18-.31-.39-.4-.64-.09-.24-.14-.51-.14-.8Zm2.16.97c.17,0,.32-.03.45-.08.13-.05.24-.11.33-.18.1-.07.17-.15.24-.23.07-.08.12-.16.17-.22v-1.58h-.39c-.58.04-1.01.13-1.31.31-.3.18-.45.47-.45.87,0,.37.08.64.25.83.17.18.4.28.7.28Zm5.39-.82c0,.3.04.51.12.63.09.12.23.18.44.18.11,0,.2,0,.28-.03.07-.02.13-.04.17-.06l.1.9c-.06.03-.17.07-.33.12-.16.05-.37.07-.64.07-.4,0-.73-.12-.98-.37-.25-.25-.37-.69-.37-1.33v-8.99l1.21-.13v9.02Zm14.17-8.64v10.31h-1.25v-5.81c0-.3,0-.58,0-.84,0-.26.01-.49.02-.69,0-.2.02-.35.03-.46h-.04c-.05.23-.15.6-.3,1.11-.15.51-.33,1.06-.53,1.65l-1.7,5.04h-1.03l-1.7-5.04c-.2-.59-.37-1.14-.53-1.65-.15-.51-.26-.88-.3-1.11h-.04c0,.12.02.28.03.48,0,.2.02.43.02.68,0,.25,0,.53,0,.83v5.81h-1.25v-10.31h1.45l2.43,7.11c.11.33.21.65.29.96.09.31.14.59.16.81h.03c.01-.23.06-.5.14-.81.08-.31.18-.63.29-.96l2.43-7.13h1.36Zm3.3,10.31h-1.21v-7.17h1.21v7.17Zm-.59-8.91c-.25,0-.45-.08-.6-.24-.15-.16-.22-.37-.22-.63s.07-.45.22-.61c.15-.16.35-.24.6-.24.24,0,.43.08.58.24.15.16.22.36.22.61s-.07.47-.22.63c-.15.16-.34.24-.58.24Zm6.34,8.91v-4.62c0-.61-.1-1.04-.3-1.31-.2-.26-.51-.4-.93-.4-.36,0-.65.09-.89.27-.24.18-.43.35-.57.52v5.53h-1.2v-7.17h1.1v.81h.03c.03-.06.09-.15.19-.26.1-.11.23-.22.39-.33.16-.1.35-.2.56-.28.22-.08.47-.12.74-.12.32,0,.6.05.86.14.26.09.48.25.65.46.18.21.32.48.42.81.1.33.15.74.15,1.23v4.71h-1.21Zm4.21,0h-1.2v-7.17h1.2v7.17Zm-.59-8.91c-.25,0-.45-.08-.6-.24-.15-.16-.22-.37-.22-.63s.07-.45.22-.61c.15-.16.35-.24.6-.24.24,0,.43.08.58.24.15.16.22.36.22.61s-.07.47-.22.63c-.15.16-.34.24-.58.24Zm5.52,3.18c-.08-.09-.22-.21-.43-.37-.21-.15-.48-.23-.82-.23-.32,0-.56.07-.73.22-.17.15-.25.33-.25.54,0,.27.08.49.23.66.15.18.39.36.71.56l.45.27c.48.29.87.6,1.14.93.28.33.42.76.42,1.29,0,.57-.2,1.05-.59,1.43-.39.39-.95.58-1.69.58-.29,0-.54-.03-.76-.09-.22-.06-.41-.13-.57-.21-.16-.08-.3-.17-.41-.26-.11-.1-.2-.18-.27-.26l.58-.96c.06.06.13.13.21.21.08.08.19.16.31.23.12.07.25.14.4.19.15.05.32.07.52.07.36,0,.63-.08.82-.24.19-.16.28-.35.28-.58,0-.17-.02-.32-.06-.44-.05-.12-.11-.24-.2-.34-.09-.1-.2-.19-.33-.28-.13-.09-.28-.19-.45-.3l-.45-.28c-.45-.29-.79-.59-1.04-.91-.25-.32-.38-.73-.38-1.23,0-.27.05-.52.16-.74.1-.22.25-.42.44-.58.19-.16.41-.29.66-.39.25-.09.52-.14.81-.14s.51.03.71.08c.2.05.37.12.51.21.14.08.26.17.36.25.1.08.17.16.23.22l-.52.87Zm5.18-.46h-1.56v3.97c0,.51.06.85.19,1.04.13.18.35.28.66.28.18,0,.33-.02.46-.07.13-.05.22-.1.28-.13l.16.97c-.05.04-.17.1-.36.19-.19.08-.44.13-.76.13-.62,0-1.08-.17-1.38-.52-.31-.34-.46-.91-.46-1.71v-4.14h-.86v-.81l.86-.18.13-2h1.07v2h1.71l-.15.99Zm4.51.07s-.1-.04-.2-.07c-.1-.03-.23-.04-.4-.04-.38,0-.67.1-.89.31-.21.2-.37.43-.45.66v5.26h-1.21v-7.17h1.1v.97h.03c.05-.14.11-.28.19-.41.08-.13.18-.25.3-.36.12-.1.26-.19.42-.25.16-.06.36-.09.59-.09.17,0,.3.02.41.04.1.03.19.05.24.07l-.15,1.08Zm5.95-1.06l-2.23,7.59c-.26.88-.57,1.54-.95,1.99-.37.45-.91.67-1.62.67-.15,0-.27-.02-.37-.05-.1-.04-.17-.06-.2-.08v-1.04c.05.02.11.04.19.07.08.02.19.04.31.04.43,0,.75-.13.97-.4.22-.27.41-.68.57-1.24l.1-.37-2.31-7.16h1.29l1.12,3.97c.11.41.21.79.3,1.14.09.35.14.67.16.95h.03c.02-.28.07-.59.14-.94.08-.35.17-.73.28-1.14l1.01-3.99h1.19Zm-85.5,18.65c0-.66.08-1.23.23-1.7.15-.48.36-.87.62-1.17.26-.3.56-.53.91-.67.34-.14.71-.22,1.09-.22s.76.07,1.1.22c.34.14.63.37.88.67.25.3.44.69.59,1.17.14.48.22,1.05.22,1.7s-.08,1.24-.22,1.72c-.15.48-.35.87-.62,1.17-.26.3-.57.52-.91.66-.35.14-.71.21-1.1.21s-.76-.07-1.1-.21c-.34-.14-.63-.36-.88-.66-.25-.3-.44-.69-.59-1.17-.14-.47-.22-1.05-.22-1.73Zm4.39,0c0-.96-.14-1.65-.42-2.08-.28-.43-.67-.65-1.16-.65s-.88.22-1.15.65c-.27.43-.41,1.13-.41,2.08s.14,1.64.42,2.06c.28.42.66.63,1.16.63s.88-.21,1.15-.63c.27-.42.41-1.11.41-2.06Zm5.68-2.6h-1.46v6.19h-1.21v-6.19h-.86v-.81l.86-.16v-1.43c0-.39.05-.72.16-1,.11-.28.25-.51.43-.69.18-.18.39-.31.62-.39.24-.08.49-.12.76-.12s.48.04.65.1c.18.07.3.12.36.16l-.25,1c-.06-.04-.14-.08-.25-.13-.11-.04-.24-.07-.4-.07-.29,0-.51.09-.66.27-.15.18-.22.51-.22.99v1.28h1.61l-.15.99Zm9.29-3.09h-3.66v3.56h3.36v1.03h-3.36v3.62h4.03l-.07,1.08h-5.25v-10.31h5.04l-.09,1.03Zm1.41,5.8c0-.73.09-1.33.28-1.82.19-.49.43-.88.73-1.18.3-.3.64-.51,1.01-.63.38-.12.75-.19,1.13-.19.23,0,.43.02.59.05s.31.08.42.13v-3.44l1.21-.14v10.7h-1.1v-.76h-.03c-.03.06-.08.14-.16.25-.08.1-.19.21-.33.31-.14.1-.31.19-.52.27-.21.07-.45.11-.73.11-.34,0-.66-.07-.96-.2-.3-.13-.57-.35-.8-.64-.23-.29-.41-.67-.54-1.13-.13-.46-.2-1.02-.2-1.68Zm2.83,2.58c.19,0,.36-.02.51-.07.15-.05.28-.11.39-.19.11-.07.2-.15.27-.23.08-.08.13-.15.17-.21v-4.42c-.11-.07-.24-.13-.38-.18-.14-.05-.32-.07-.54-.07-.28,0-.54.05-.78.14-.24.09-.45.25-.63.47-.18.22-.32.5-.42.85-.1.35-.16.78-.16,1.28s.04.91.13,1.25c.08.33.2.6.35.81.15.21.32.35.5.44.19.09.39.14.6.14Zm9.39.9h-1.1v-.81h-.03c-.03.06-.1.15-.2.26-.1.11-.22.22-.38.33-.15.1-.34.2-.56.28-.22.08-.46.12-.73.12-.32,0-.6-.05-.86-.14-.25-.09-.47-.25-.65-.46-.18-.21-.32-.48-.41-.81-.1-.33-.14-.74-.14-1.23v-4.71h1.21v4.62c0,.6.1,1.02.29,1.28.19.25.49.38.9.38.35,0,.64-.09.88-.26.24-.17.43-.35.57-.52v-5.5h1.21v7.17Zm5.82-5.78s-.08-.07-.14-.13c-.07-.06-.15-.12-.25-.18-.1-.06-.22-.11-.36-.16-.14-.05-.3-.07-.47-.07-.26,0-.5.05-.72.14-.22.1-.42.25-.58.46-.16.21-.29.48-.39.81-.09.33-.14.74-.14,1.22,0,.53.04.97.13,1.33.09.36.2.64.35.86.15.21.33.37.54.46.21.1.45.14.71.14.37,0,.65-.06.84-.19.2-.13.33-.23.41-.31l.49.84c-.05.06-.12.13-.21.22-.1.08-.22.17-.37.25-.15.08-.33.15-.54.2-.21.05-.46.08-.74.08-.4,0-.77-.07-1.11-.19-.35-.13-.65-.34-.91-.64-.26-.3-.46-.69-.61-1.16-.15-.48-.22-1.07-.22-1.78s.09-1.27.27-1.75c.18-.48.41-.86.7-1.16.29-.29.6-.51.96-.64.35-.13.71-.2,1.06-.2.27,0,.5.03.71.08.2.05.38.11.52.19.14.07.26.15.36.24.1.08.17.16.23.22l-.51.85Zm1.36,3.96c0-.42.08-.77.24-1.05.16-.28.37-.51.64-.68.27-.17.59-.3.95-.37.36-.07.75-.11,1.15-.11h.37v-.69c0-.61-.11-1.03-.32-1.25-.21-.23-.51-.34-.9-.34-.36,0-.65.08-.89.23-.24.15-.43.29-.57.41l-.5-.81c.08-.08.18-.17.3-.27.12-.1.28-.19.45-.28.18-.09.38-.16.61-.22.23-.06.49-.09.77-.09.74,0,1.29.2,1.67.61.37.41.56,1.07.56,1.97v3.27c0,.31,0,.61.03.9.02.29.04.49.06.59h-1.15l-.04-.79h-.03c-.04.09-.1.19-.18.31-.08.11-.18.22-.3.31-.12.09-.26.18-.43.25-.17.07-.37.1-.6.1-.27,0-.52-.05-.75-.15-.23-.1-.44-.24-.61-.42-.17-.18-.31-.39-.4-.63-.1-.24-.14-.51-.14-.8Zm2.16.97c.17,0,.32-.02.45-.07.13-.05.24-.11.33-.18.09-.07.17-.15.24-.23.06-.08.12-.16.17-.22v-1.58l-.39.02c-.57.02-1.01.12-1.31.3-.3.18-.45.47-.45.87,0,.37.08.65.25.83.17.18.4.28.7.28Zm7.25-5.33h-1.56v3.97c0,.51.06.85.19,1.04.13.18.35.28.65.28.18,0,.33-.02.46-.07.13-.05.22-.1.28-.13l.16.97c-.05.04-.17.1-.36.19-.19.08-.44.13-.76.13-.61,0-1.07-.17-1.38-.52-.31-.34-.46-.91-.46-1.71v-4.14h-.86v-.81l.86-.18.13-2h1.07v2h1.71l-.15.99Zm2.57,6.19h-1.21v-7.17h1.21v7.17Zm-.6-8.9c-.25,0-.45-.08-.6-.24-.15-.16-.22-.37-.22-.63s.07-.45.22-.61c.15-.16.35-.24.6-.24.24,0,.43.08.58.24.15.16.22.36.22.61s-.07.47-.22.63c-.15.16-.34.24-.58.24Zm2.11,5.32c0-.66.08-1.23.23-1.7.15-.48.36-.87.62-1.17.26-.3.57-.53.91-.67.34-.14.71-.22,1.09-.22s.77.07,1.1.22c.34.14.63.37.88.67.25.3.44.69.59,1.17.14.48.21,1.05.21,1.7s-.07,1.24-.22,1.72c-.15.48-.35.87-.62,1.17-.26.3-.57.52-.92.66-.35.14-.71.21-1.1.21s-.76-.07-1.1-.21c-.34-.14-.63-.36-.88-.66-.25-.3-.45-.69-.59-1.17-.14-.47-.21-1.05-.21-1.73Zm4.39,0c0-.96-.14-1.65-.41-2.08-.28-.43-.66-.65-1.16-.65s-.88.22-1.15.65c-.27.43-.41,1.13-.41,2.08s.14,1.64.42,2.06c.28.42.67.63,1.16.63s.88-.21,1.15-.63c.27-.42.41-1.11.41-2.06Zm6.67,3.59v-4.62c0-.61-.1-1.04-.3-1.31-.2-.26-.51-.39-.93-.39-.36,0-.66.09-.89.27-.24.18-.43.35-.57.52v5.53h-1.2v-7.17h1.1v.81h.03c.03-.06.09-.15.19-.26.1-.11.23-.22.39-.33.16-.1.35-.2.57-.28.22-.08.46-.12.74-.12.32,0,.61.05.86.14.26.09.47.25.65.46.18.21.32.48.42.81.1.33.15.74.15,1.23v4.71h-1.21Zm-64.8,13.24c0-.42.08-.77.24-1.04.16-.28.37-.5.64-.68.27-.18.58-.3.94-.37.36-.08.75-.11,1.15-.11h.37v-.69c0-.61-.11-1.03-.32-1.25-.21-.23-.51-.34-.9-.34-.36,0-.65.08-.89.23-.24.16-.43.29-.56.41l-.51-.81c.08-.08.18-.17.3-.27.12-.1.27-.2.45-.29.18-.09.38-.16.61-.22.23-.06.49-.09.77-.09.73,0,1.29.2,1.67.61.38.41.56,1.06.56,1.97v3.27c0,.31.01.61.03.9.02.29.04.49.06.59h-1.15l-.04-.79h-.03c-.04.09-.1.19-.18.31-.08.11-.18.22-.3.31-.12.09-.26.17-.43.25-.17.07-.37.1-.6.1-.27,0-.52-.05-.75-.15-.23-.1-.44-.24-.61-.42-.17-.18-.31-.39-.4-.63-.09-.24-.14-.51-.14-.8Zm2.16.97c.17,0,.32-.02.45-.07.13-.05.24-.11.33-.18.09-.07.17-.15.24-.23.06-.08.12-.16.17-.22v-1.58h-.39c-.58.04-1.01.13-1.31.31-.3.18-.45.47-.45.87,0,.37.08.64.25.83.17.18.4.27.7.27Zm8.09.85v-4.62c0-.61-.1-1.04-.3-1.31-.2-.26-.51-.4-.93-.4-.36,0-.66.09-.89.27-.24.18-.43.35-.57.52v5.53h-1.2v-7.17h1.1v.81h.03c.03-.06.09-.15.19-.26.1-.11.23-.22.39-.33.16-.1.35-.2.57-.28.22-.08.47-.12.74-.12.32,0,.61.05.86.14.26.1.48.25.65.46.18.21.32.48.42.81.1.33.15.74.15,1.23v4.71h-1.21Zm2.68-3.48c0-.73.09-1.34.28-1.82.19-.49.43-.88.73-1.18.3-.3.64-.51,1.01-.63.38-.12.75-.19,1.13-.19.23,0,.43.02.59.05.17.03.31.08.42.13v-3.44l1.21-.14v10.7h-1.1v-.76h-.03c-.03.06-.08.14-.16.25-.08.1-.19.21-.33.31-.14.11-.31.19-.52.27-.21.07-.45.11-.73.11-.34,0-.66-.07-.96-.2-.3-.13-.57-.35-.8-.64-.23-.29-.41-.67-.54-1.14-.13-.46-.2-1.02-.2-1.68Zm2.83,2.58c.19,0,.36-.02.5-.08.15-.05.28-.11.39-.19.11-.08.2-.15.27-.23.08-.08.13-.15.17-.21v-4.42c-.11-.07-.24-.13-.38-.18-.14-.05-.33-.07-.54-.07-.28,0-.54.05-.78.14-.24.09-.45.25-.63.47-.18.22-.32.5-.42.85-.1.35-.16.78-.16,1.29s.04.91.13,1.25c.08.33.2.6.35.81.15.21.32.35.51.44.19.09.39.13.6.13Zm12.48.9l-2.13-4.23c-.11,0-.22.02-.34.02-.12,0-.24,0-.36,0h-.57v4.2h-1.29v-10.31h1.92c1.24,0,2.16.24,2.75.73.59.48.89,1.2.89,2.16,0,.69-.14,1.28-.43,1.76-.29.49-.73.86-1.33,1.12l2.41,4.54h-1.52Zm-.52-7.35c0-.66-.18-1.14-.54-1.46-.36-.31-.93-.47-1.7-.47h-.63v4.05h.57c.78,0,1.37-.18,1.74-.55.38-.37.57-.89.57-1.57Zm7.69,2.6c0,.31,0,.58-.03.8-.02.22-.04.42-.06.59h-3.65c.04.85.22,1.47.54,1.87.32.4.79.6,1.39.6.21,0,.4-.02.57-.08.17-.05.31-.11.44-.18.12-.07.23-.14.31-.21.08-.07.14-.13.18-.16l.45.85c-.05.05-.13.12-.22.22-.1.09-.23.19-.4.29-.17.09-.38.17-.63.25-.25.07-.54.1-.88.1-.45,0-.85-.07-1.21-.22-.36-.15-.67-.38-.92-.69-.25-.31-.45-.71-.59-1.2-.14-.48-.21-1.06-.21-1.74,0-.64.07-1.19.22-1.65.14-.46.34-.84.59-1.14.25-.3.54-.52.86-.66.33-.14.68-.22,1.06-.22.69,0,1.22.22,1.61.65.39.44.58,1.08.58,1.95Zm-2.26-1.61c-.43,0-.77.18-1.03.54-.26.36-.4.88-.45,1.55h2.6c0-.05.02-.12.02-.22,0-.09,0-.2,0-.31,0-.5-.1-.88-.3-1.16-.2-.27-.48-.41-.86-.41Zm6.95.64c-.08-.09-.22-.21-.43-.37-.21-.15-.48-.23-.82-.23-.32,0-.56.08-.73.23-.17.15-.26.33-.26.54,0,.27.08.49.23.67.15.17.39.36.71.56l.45.27c.48.29.87.6,1.14.93.28.33.41.76.41,1.29,0,.57-.19,1.05-.58,1.44-.39.39-.96.58-1.69.58-.29,0-.54-.03-.76-.09-.22-.06-.41-.13-.57-.21-.16-.08-.3-.17-.41-.26-.11-.09-.2-.18-.27-.26l.58-.96c.06.06.13.13.22.21.08.08.19.16.31.23.12.07.25.14.4.19.15.05.32.08.52.08.36,0,.63-.08.82-.24.19-.16.28-.35.28-.58,0-.17-.02-.31-.07-.44-.04-.12-.11-.24-.2-.34-.09-.1-.2-.2-.33-.28-.13-.09-.28-.19-.45-.3l-.45-.28c-.45-.29-.79-.59-1.05-.91-.25-.32-.38-.73-.38-1.23,0-.27.05-.52.16-.74.11-.22.25-.42.44-.58.19-.16.41-.29.66-.39.25-.09.52-.14.81-.14s.51.03.71.08c.2.05.37.12.51.21.14.08.26.17.36.25.09.08.17.16.23.22l-.52.87Zm6.71.97c0,.31,0,.58-.03.8-.02.22-.04.42-.06.59h-3.64c.04.85.22,1.47.54,1.87.32.4.79.6,1.39.6.21,0,.4-.02.57-.08.17-.05.31-.11.44-.18.12-.07.22-.14.31-.21.08-.07.14-.13.18-.16l.45.85c-.05.05-.12.12-.22.22-.1.09-.23.19-.4.29-.17.09-.38.17-.63.25-.25.07-.54.1-.88.1-.45,0-.85-.07-1.21-.22-.36-.15-.67-.38-.92-.69-.25-.31-.45-.71-.58-1.2-.14-.48-.21-1.06-.21-1.74,0-.64.07-1.19.22-1.65.14-.46.34-.84.59-1.14.25-.3.54-.52.87-.66.33-.14.68-.22,1.05-.22.69,0,1.22.22,1.61.65.39.44.58,1.08.58,1.95Zm-2.26-1.61c-.43,0-.77.18-1.03.54-.26.36-.4.88-.44,1.55h2.6c0-.05.02-.12.02-.22,0-.09,0-.2,0-.31,0-.5-.1-.88-.3-1.16-.2-.27-.48-.41-.86-.41Zm3.45,4.54c0-.42.08-.77.24-1.04.16-.28.37-.5.64-.68.27-.18.58-.3.94-.37.36-.08.75-.11,1.15-.11h.37v-.69c0-.61-.11-1.03-.32-1.25-.21-.23-.51-.34-.9-.34-.36,0-.66.08-.9.23-.24.16-.43.29-.57.41l-.51-.81c.08-.08.18-.17.31-.27.12-.1.28-.2.45-.29.18-.09.38-.16.61-.22.23-.06.49-.09.77-.09.73,0,1.29.2,1.67.61.37.41.56,1.06.56,1.97v3.27c0,.31,0,.61.03.9.02.29.04.49.06.59h-1.14l-.04-.79h-.03c-.04.09-.1.19-.18.31-.08.11-.18.22-.3.31-.12.09-.26.17-.43.25-.17.07-.37.1-.6.1-.27,0-.52-.05-.75-.15-.23-.1-.44-.24-.61-.42-.17-.18-.31-.39-.4-.63-.09-.24-.14-.51-.14-.8Zm2.16.97c.17,0,.32-.02.45-.07.12-.05.24-.11.33-.18.09-.07.17-.15.24-.23.06-.08.12-.16.17-.22v-1.58h-.39c-.57.04-1.01.13-1.31.31-.3.18-.45.47-.45.87,0,.37.08.64.25.83.17.18.4.27.7.27Zm7.33-5.26s-.09-.04-.19-.08c-.1-.03-.23-.04-.4-.04-.38,0-.67.1-.89.31-.21.2-.36.42-.45.66v5.26h-1.21v-7.17h1.1v.97h.03c.05-.14.12-.28.19-.41.08-.13.18-.25.3-.36.12-.1.26-.19.42-.25.16-.06.36-.09.59-.09.17,0,.3.02.41.05.11.03.19.05.24.07l-.15,1.08Zm4.99.33s-.08-.08-.14-.13c-.07-.06-.15-.12-.24-.18-.1-.06-.22-.11-.36-.16-.14-.05-.3-.07-.47-.07-.26,0-.5.05-.72.14-.22.09-.42.25-.58.46-.17.21-.29.48-.39.81-.09.33-.14.74-.14,1.22,0,.53.04.97.12,1.33.09.36.2.64.35.86.14.21.33.37.54.46.21.09.45.14.71.14.37,0,.65-.07.84-.2.19-.13.33-.23.41-.31l.49.84c-.05.06-.12.13-.21.22-.1.08-.22.17-.37.25-.15.08-.33.15-.54.2-.21.05-.46.08-.74.08-.4,0-.77-.06-1.12-.19-.35-.13-.65-.34-.91-.64-.26-.3-.46-.69-.61-1.17-.15-.48-.22-1.07-.22-1.78s.09-1.27.27-1.75c.18-.48.41-.86.7-1.16.29-.29.61-.51.96-.64.35-.13.71-.2,1.06-.2.27,0,.51.03.71.07.2.05.37.11.52.19.14.08.26.15.36.24.09.08.17.16.23.21l-.51.85Zm5.67,5.78v-4.62c0-.61-.11-1.04-.31-1.31-.2-.26-.51-.4-.93-.4-.36,0-.65.09-.89.27-.24.18-.43.35-.57.52v5.53h-1.2v-10.56l1.2-.14v4.26h.03c.04-.06.1-.14.19-.24.08-.1.2-.2.35-.3.15-.1.33-.19.54-.26.21-.08.46-.11.75-.11.62,0,1.12.2,1.49.61.37.41.55,1.08.55,2.03v4.71h-1.2Z" style="fill:#1d1d1b; stroke-width:0px;"/><path d="m47.26,55.62c1.28,2.03,2.28,2,3.8,2-1.25-.96-2.08-2.2-2.47-2.83l-2.34-3.76c-.23-1.16-.83-2.25-1.72-3.05.3-.11.55-.23.7-.35-1.53,0-3.04-.78-3.87-.78-.54,0-.88.32-.88.75.03.47.52.95,1.42.95.2,0,.46-.03.75-.07.48.68.88,1.29.88,2.17,0,1.64-1.96,2.93-3.94,2.93-.11,0-.22,0-.33-.01-.18-.41-.77-1.09-.77-1.87,0-1.31.85-2.37.85-3.67,0-.8-.39-1.3-.54-1.51.24-.23.51-.5.57-.69-.14.06-.31.07-.55.07-.95,0-1.72-.25-2.47-.25-.43,0-.55.13-.55.26,0,.05,0,.09.02.12-.16-.06-.31-.1-.49-.14-.22-.04-.46-.06-.72-.06-.92,0-1.24.39-1.24.72,0,.28.22.79.47,1.18.36-.18.79-.3.98-.3.49,0,.92.46,1.15,1.01-.33.04-.39.05-.72.05-.89,0-1.5-.32-1.62-.32-.01,0-.04,0-.04.03,0,.13.25.46.75.64.66.24,1.64.34,1.8.37,0,.03-.17.34-.35.4-.04.01-.07.01-.12,0-.69-.14-.88-.19-1.75-.53-.03-.01-.04,0-.04.03,0,.35.89,1.11,1.69,1.4-.67.85-1.5,1.73-1.89,3.06-.11,0-.22.01-.33.01-1.98,0-3.94-1.28-3.94-2.93,0-.88.39-1.49.88-2.17.29.05.54.07.75.07.9,0,1.38-.48,1.42-.95,0-.42-.34-.75-.88-.75-.83,0-2.34.78-3.87.78.15.11.4.24.7.35-.89.81-1.49,1.89-1.72,3.05l-2.34,3.76c-.39.63-1.22,1.86-2.48,2.83,1.51,0,2.52.03,3.8-2l1.2-1.93c.09.25.2.49.33.73l-2.38,3.83c-.4.64-1.22,1.86-2.48,2.83,1.51,0,2.52.04,3.8-2l2.05-3.3c.15.16.31.32.49.48l-2.9,4.66c-.4.64-1.22,1.86-2.48,2.83,1.51,0,2.52.04,3.8-2l2.82-4.54c.19.12.38.23.57.34l-3.45,5.54c-.4.64-1.22,1.85-2.47,2.83,1.51,0,2.52.04,3.8-2l3.55-5.7c.21.08.42.16.64.23l-4.01,6.44c-.39.63-1.23,1.87-2.47,2.83,1.51,0,2.52.03,3.8-2l4.27-6.87s.09.01.13.02c.12.37.2.72.2,1.06,0,2.16-1.41,4.06-3.1,5.54.11.05.3.06.47.06.35,0,.57-.02.73-.05-.39.89-1.23,2.05-1.66,2.65-.55-.1-1.36-.18-1.89-.18s-.61.32-.61.61c0,.5.23.9.51,1.13.1-.26.31-.6,1.33-.6.02,0,.05,0,.1,0-.3.33-1.23,1.09-1.23,1.7,0,.4.44,1.01,1.02,1.01-.03-.13-.03-.25-.03-.34,0-.5.44-1.07.8-1.48-.01.12,0,.11,0,.25,0,1.17.1,1.71.84,1.71.36,0,.61-.2.7-.26-.48-.44-.5-.79-.5-1.45,0-.17,0-.34,0-.57,0-.15,0-.35-.03-.49.27-.04.37-.04.57-.04,0,0,1.05-.08,1.3.46.29-.26.7-.63.7-1.04,0-.27-.13-.58-.67-.58-.2,0-.85.13-1.39.13.14-.32.79-1.27,1.35-1.96.08.27.22.55.51.79.04-.44.3-1.84.99-2.66.08.55.19,1.12.19,2.31,0,2.9-.7,5.05-2.17,5.46.19.33.6.64,1.02.64.54,0,.83-.61,1.13-1.19.16.43.59,1.47,1.02,1.47s.86-1.05,1.02-1.47c.3.58.59,1.19,1.14,1.19.42,0,.83-.3,1.02-.64-1.48-.41-2.17-2.55-2.17-5.46,0-1.19.11-1.76.19-2.31.69.82.95,2.21.99,2.66.29-.24.43-.52.51-.79.56.69,1.2,1.63,1.35,1.96-.54,0-1.18-.13-1.39-.13-.54,0-.67.31-.67.58,0,.41.41.78.7,1.04.25-.55,1.3-.46,1.3-.46.2,0,.31,0,.58.04-.02.14-.03.34-.02.49,0,.23,0,.4,0,.57,0,.66-.02,1-.5,1.45.09.06.34.26.7.26.74,0,.85-.54.85-1.71,0-.14,0-.13,0-.25.37.4.8.98.8,1.48,0,.09,0,.21-.03.34.58,0,1.02-.61,1.02-1.01,0-.61-.93-1.37-1.23-1.7.05,0,.08,0,.1,0,1.02,0,1.23.34,1.33.6.27-.22.51-.62.51-1.13,0-.29-.06-.61-.61-.61s-1.33.08-1.89.18c-.43-.6-1.27-1.75-1.66-2.65.16.03.38.05.73.05.18,0,.36-.02.47-.06-1.69-1.47-3.1-3.38-3.1-5.54,0-.35.08-.69.2-1.06.04,0,.09-.02.13-.02l4.27,6.87c1.28,2.03,2.28,2,3.8,2-1.25-.96-2.08-2.2-2.47-2.83l-4.01-6.44c.22-.07.43-.15.64-.23l3.55,5.7c1.28,2.03,2.28,2,3.8,2-1.26-.97-2.08-2.19-2.47-2.83l-3.45-5.54c.2-.11.39-.22.57-.34l2.82,4.54c1.28,2.03,2.28,2,3.79,2-1.26-.97-2.08-2.19-2.47-2.83l-2.89-4.66c.17-.15.33-.31.48-.48l2.05,3.3c1.28,2.03,2.28,2,3.8,2-1.26-.97-2.08-2.19-2.48-2.83l-2.38-3.83c.13-.24.24-.48.33-.73l1.2,1.93Zm-19.14-4.41c0-1.43,1.04-2.56,1.4-2.88.09.02.18.04.26.06-.39.48-1.07,1.27-1.07,2.33,0,2.09,2.23,3.91,4.75,3.91-.02.18-.02.37-.02.56,0,.31.02.6.05.87-2.85-.02-5.37-2.34-5.37-4.85Zm3.87,17.17l-.02.05h.05c.8,0,1.19-.06,1.45-.1.14-.02.23-.03.34-.03.21,0,.37.02.37.28,0,.17-.2.44-.4.6-.3-.28-.7-.33-1.3-.33-.28,0-.65.05-.84.08h-.03s-.03,0-.03,0v.09c.03.17.06.37.06.65v.25s0,.32,0,.32c0,.68.09,1.07.33,1.37-.06.02-.16.04-.23.04-.42,0-.54-.19-.54-1.41,0-.25-.01-.48-.02-.63v-.23s-.06.04-.06.04c-.63.48-1.27,1.34-1.31,1.98-.19-.12-.39-.4-.39-.61,0-.35.52-.88,1.13-1.49l.35-.35.04-.05-.11-.03c-.13-.03-.37-.1-.58-.1-.68,0-1.11.13-1.37.42-.09-.14-.17-.46-.17-.64,0-.12.02-.21.07-.26.06-.06.15-.06.23-.06h.02c.75,0,1.65.14,2,.19h.02s.01-.01.01-.01c.06-.08,1.49-2,1.86-3.01.09-.03.16-.06.31-.06.28,0,.36.19.44.48-.89,1.09-1.45,1.94-1.65,2.52Zm7.72-3.01c.15,0,.22.02.31.06.37,1.02,1.8,2.93,1.86,3.01v.02s.03,0,.03,0c.35-.06,1.25-.19,2-.19h.02c.08,0,.17,0,.23.06.05.05.07.14.07.26,0,.19-.08.51-.17.64-.26-.29-.69-.42-1.37-.42-.21,0-.45.06-.58.1h-.05s-.06.03-.06.03l.39.4c.61.61,1.13,1.14,1.13,1.49,0,.21-.21.48-.39.61-.04-.64-.69-1.5-1.31-1.98l-.05-.04v.23c-.02.15-.03.38-.03.63,0,1.22-.12,1.41-.55,1.41-.06,0-.16-.02-.23-.04.24-.29.33-.68.33-1.37v-.32s0-.25,0-.25c0-.28.03-.49.05-.65v-.09s-.05,0-.05,0c-.2-.03-.56-.08-.84-.08-.6,0-1.01.06-1.3.33-.19-.16-.4-.43-.4-.6,0-.26.16-.28.36-.28.11,0,.2.01.34.03.26.04.65.1,1.45.1h.05l-.02-.05c-.2-.58-.76-1.43-1.66-2.52.08-.29.16-.48.44-.48Zm-3.31-16.7c-.09-.37-.28-.75-.52-1.04-.22-.26-.58-.57-1.07-.57-.22,0-.6.1-.84.21-.09-.16-.26-.56-.26-.73s.31-.37.89-.37c1.29,0,2.06.59,2.06,1.57,0,.34-.14.66-.26.94Zm.58-1.28c-.05-.28-.15-.53-.31-.74,0-.25.11-.5.52-.3-.22.23-.05.63-.05.63,0,0,.45-.21.36-.51.67.16.19,1.06-.51.92Zm2.51,8.66c.03-.28.05-.57.05-.87,0-.16,0-.35-.02-.56,2.49-.04,4.68-1.84,4.68-3.91,0-1.06-.68-1.85-1.07-2.33.09-.02.17-.04.26-.06.36.32,1.4,1.45,1.4,2.88,0,2.49-2.48,4.8-5.3,4.85Z" style="fill:#1d1d1b; stroke-width:0px;"/><polygon points="61.15 97.06 63.03 97.06 63.03 122.17 58.65 122.17 58.65 97.06 61.15 97.06" style="fill:#f8d200; stroke-width:0px;"/><polygon points="61.15 71.82 63.03 71.82 63.03 97.06 58.65 97.06 58.65 71.82 61.15 71.82" style="fill:#e30613; stroke-width:0px;"/><polygon points="63.03 46.84 63.03 71.95 61.15 71.95 58.65 71.95 58.65 46.84 63.03 46.84" style="fill:#1d1d1b; stroke-width:0px;"/></g><g id="b"><path d="m72.81,19.57v.18c0,.85.54,1.12,1.05,1.12.63,0,1.11-.27,1.11-1.01,0-1.39-2.8-1.23-2.8-3.12,0-1.11.79-1.7,1.83-1.7,1.14,0,1.78.56,1.73,1.83h-.83c0-.68-.21-1.14-.96-1.14-.48,0-.96.24-.96.92,0,1.38,2.8,1.18,2.8,3.17,0,1.32-.91,1.74-1.94,1.74-1.84.02-1.84-1.4-1.82-2h.79Z" style="stroke-width:0px;"/><path d="m77.11,21.44v-6.27h1.85c.84,0,1.74.31,1.74,1.79s-1.11,1.72-1.75,1.72h-1.05v2.76h-.79Zm.79-3.45h.87c.33,0,1.11-.09,1.11-1.07s-.71-1.05-.88-1.05h-1.1v2.12Z" style="stroke-width:0px;"/><path d="m81.78,19.15v-2.06c0-1.25.64-2.05,1.96-2.05s1.96.8,1.96,2.05v2.06c0,1.74-.64,2.42-1.96,2.42s-1.96-.69-1.96-2.42Zm3.11.03v-2.12c0-1.31-.9-1.35-1.15-1.35s-1.15.04-1.15,1.35v2.12c0,1.37.4,1.72,1.15,1.72s1.15-.35,1.15-1.72Z" style="stroke-width:0px;"/><path d="m91.41,15.17v6.27h-1.09l-2.46-5.43h-.02v5.43h-.71v-6.27h1.12l2.43,5.36h.02v-5.36h.71Z" style="stroke-width:0px;"/><path d="m93.47,19.57v.18c0,.85.54,1.12,1.05,1.12.63,0,1.12-.27,1.12-1.01,0-1.39-2.8-1.23-2.8-3.12,0-1.11.79-1.7,1.83-1.7,1.14,0,1.78.56,1.73,1.83h-.83c0-.68-.21-1.14-.96-1.14-.48,0-.96.24-.96.92,0,1.38,2.8,1.18,2.8,3.17,0,1.32-.91,1.74-1.93,1.74-1.84.02-1.84-1.4-1.82-2h.79Z" style="stroke-width:0px;"/><path d="m97.63,19.15v-2.06c0-1.25.64-2.05,1.96-2.05s1.96.8,1.96,2.05v2.06c0,1.74-.64,2.42-1.96,2.42s-1.96-.69-1.96-2.42Zm3.11.03v-2.12c0-1.31-.9-1.35-1.15-1.35s-1.15.04-1.15,1.35v2.12c0,1.37.4,1.72,1.15,1.72s1.15-.35,1.15-1.72Z" style="stroke-width:0px;"/><path d="m103.72,18.56v2.88h-.79v-6.27h2.15c1.11,0,1.49.78,1.49,1.56,0,.74-.4,1.3-1.14,1.43v.02c.72.11.98.36,1.02,1.61,0,.27.09,1.25.21,1.64h-.83c-.22-.43-.17-1.25-.24-2.08-.06-.76-.67-.8-.94-.8h-.93Zm0-.69h1.19c.57,0,.85-.5.85-1.04,0-.45-.22-.95-.84-.95h-1.2v2Z" style="stroke-width:0px;"/><path d="m107.74,21.44v-6.27h3.21v.69h-2.42v2.01h2.25v.69h-2.25v2.17h2.47v.69h-3.27Z" style="stroke-width:0px;"/><path d="m112.08,15.17h1.92c.8,0,1.37.29,1.68.95.25.53.28,1.78.28,1.98,0,1.34-.12,2.11-.38,2.53-.34.54-.97.81-2.06.81h-1.43v-6.27Zm.79,5.57h.75c1.11,0,1.51-.42,1.51-1.87v-1.27c0-1.27-.39-1.74-1.22-1.74h-1.04v4.88Z" style="stroke-width:0px;"/><path d="m119.34,21.44v-6.27h2.03c.87,0,1.16.3,1.39.64.22.34.25.71.25.83,0,.78-.27,1.3-1.07,1.48v.04c.89.1,1.28.64,1.28,1.5,0,1.6-1.16,1.76-1.87,1.76h-2Zm.79-3.63h1.16c.62-.01.93-.39.93-1,0-.52-.3-.95-.96-.95h-1.12v1.94Zm0,2.93h1.12c.85,0,1.15-.61,1.15-1.07,0-1-.62-1.17-1.43-1.17h-.85v2.24Z" style="stroke-width:0px;"/><path d="m127.28,15.17h.8l-1.7,3.88v2.39h-.79v-2.39l-1.68-3.88h.89l1.21,3.03,1.26-3.03Z" style="stroke-width:0px;"/><path d="m134.28,15.17v.69h-1.64v5.57h-.79v-5.57h-1.64v-.69h4.08Z" style="stroke-width:0px;"/><path d="m135.15,21.44v-6.27h.8v2.71h2.19v-2.71h.79v6.27h-.79v-2.86h-2.19v2.86h-.8Z" style="stroke-width:0px;"/><path d="m140.38,21.44v-6.27h3.21v.69h-2.42v2.01h2.24v.69h-2.24v2.17h2.47v.69h-3.27Z" style="stroke-width:0px;"/></g></svg>