<?xml version="1.0" encoding="UTF-8"?><svg xmlns="http://www.w3.org/2000/svg" viewBox="0 0 226.77 155.91"><g id="a"><path d="m77.55,48.28c0,.36-.04.67-.13.94-.09.27-.21.5-.36.69-.15.19-.33.35-.54.47-.2.12-.41.21-.63.27v.03c.27.05.52.14.75.28.23.14.44.31.61.52.17.21.31.45.42.73.1.28.16.59.16.93,0,.41-.07.78-.21,1.11-.14.34-.35.63-.65.88-.29.25-.66.44-1.11.58-.45.14-.98.21-1.59.21h-2.09v-10.25h1.98c.6,0,1.12.06,1.55.18.43.12.78.3,1.06.53.28.23.48.5.6.82.12.32.19.68.19,1.08Zm-1.31.04c0-.48-.17-.87-.51-1.17-.34-.31-.87-.46-1.59-.46h-.68v3.54h.67c.69,0,1.22-.17,1.58-.51.36-.34.54-.8.54-1.4Zm.19,4.73c0-.55-.18-.99-.54-1.31-.36-.32-.88-.48-1.55-.48h-.88v3.6h.8c.76,0,1.31-.15,1.66-.45.34-.3.51-.75.51-1.35Zm7.96,2.87h-1.1v-.8h-.03c-.03.06-.09.15-.19.26-.1.11-.22.22-.38.33-.15.1-.34.19-.56.27-.22.08-.46.12-.73.12-.32,0-.6-.05-.85-.14-.25-.09-.47-.24-.65-.45-.18-.21-.31-.48-.41-.81-.1-.33-.14-.74-.14-1.22v-4.68h1.2v4.59c0,.59.1,1.02.29,1.27.19.25.49.38.9.38.35,0,.64-.09.88-.26.24-.17.43-.34.56-.51v-5.47h1.2v7.13Zm5.73,0v-4.59c0-.6-.1-1.04-.3-1.3-.2-.26-.51-.39-.93-.39-.36,0-.65.09-.89.27-.24.18-.43.35-.56.52v5.5h-1.2v-7.13h1.1v.8h.03c.03-.06.09-.15.19-.26.1-.11.23-.22.39-.33.16-.1.35-.19.56-.27.22-.08.47-.12.74-.12.32,0,.6.05.86.14.26.09.48.24.65.45.18.21.32.48.41.81.1.33.15.74.15,1.23v4.68h-1.2Zm2.68-3.46c0-.72.09-1.33.28-1.81.19-.48.43-.88.73-1.17.3-.3.63-.51,1.01-.63.38-.12.75-.19,1.13-.19.23,0,.43.02.59.05.17.03.31.08.42.13v-3.42l1.2-.13v10.64h-1.1v-.76h-.03c-.03.06-.09.14-.16.24-.08.1-.19.21-.33.31-.14.1-.31.19-.52.27-.21.07-.45.11-.73.11-.34,0-.66-.07-.96-.2-.3-.13-.57-.35-.79-.64-.23-.29-.41-.67-.54-1.13-.13-.46-.2-1.02-.2-1.67Zm2.82,2.57c.19,0,.36-.03.5-.07.15-.05.28-.11.39-.19.11-.07.2-.15.28-.23.07-.08.13-.15.17-.21v-4.4c-.11-.07-.23-.13-.38-.18-.14-.05-.32-.07-.54-.07-.28,0-.54.05-.78.14-.24.09-.45.25-.63.47-.18.22-.32.5-.42.85-.1.35-.15.77-.15,1.28s.04.91.13,1.24c.08.33.2.6.35.8.15.2.32.35.51.44.19.09.39.13.59.13Zm8.96-3.83c0,.31-.01.57-.03.8-.02.22-.04.42-.06.59h-3.64c.04.84.22,1.46.54,1.86.32.4.79.6,1.39.6.21,0,.4-.03.56-.07.17-.05.31-.11.44-.18.12-.07.23-.14.31-.21.08-.07.14-.12.18-.16l.45.85c-.05.05-.12.12-.22.22-.1.09-.23.19-.4.28-.17.09-.38.18-.62.25-.25.07-.54.1-.88.1-.45,0-.85-.07-1.21-.22-.36-.15-.67-.38-.92-.69-.25-.31-.45-.71-.59-1.19-.14-.48-.21-1.06-.21-1.73,0-.63.07-1.18.22-1.64.14-.46.34-.84.59-1.14.25-.3.54-.52.86-.66.33-.14.68-.22,1.05-.22.68,0,1.22.22,1.6.65.39.43.58,1.08.58,1.94Zm-2.26-1.6c-.43,0-.77.18-1.02.54-.26.36-.41.87-.45,1.54h2.6s.02-.12.02-.21c0-.09,0-.2,0-.31,0-.5-.1-.88-.3-1.15-.2-.27-.48-.41-.86-.41Zm6.94.64c-.08-.09-.22-.21-.43-.36-.21-.15-.48-.23-.82-.23-.31,0-.56.07-.73.22-.17.15-.25.33-.25.53,0,.27.08.49.23.66.15.17.39.36.71.56l.45.27c.49.29.87.6,1.14.93.28.33.42.76.42,1.29,0,.56-.2,1.04-.59,1.43-.39.39-.95.58-1.69.58-.29,0-.54-.03-.76-.09-.22-.06-.41-.13-.57-.21-.16-.08-.3-.17-.41-.26-.11-.09-.2-.18-.27-.26l.58-.95c.06.06.13.13.22.21.08.08.19.16.3.23.12.08.25.14.4.19.15.05.32.07.52.07.36,0,.63-.08.81-.24.19-.16.29-.35.29-.58,0-.17-.02-.31-.07-.44-.04-.12-.11-.23-.2-.33-.09-.1-.2-.19-.33-.28-.13-.09-.28-.19-.45-.3l-.45-.28c-.45-.29-.8-.59-1.05-.91-.25-.32-.38-.72-.38-1.22,0-.27.05-.51.16-.74.1-.22.25-.42.44-.58.19-.16.41-.29.66-.39.25-.09.52-.14.81-.14s.51.03.71.08c.2.05.37.12.51.21.14.08.26.17.36.25.09.08.17.15.23.21l-.52.86Zm5.87,5.69v-4.59c0-.58-.08-1-.25-1.26-.17-.26-.44-.39-.82-.39-.2,0-.37.03-.53.07-.15.05-.29.11-.41.19-.12.07-.22.16-.31.25-.09.09-.16.17-.22.24v5.5h-1.2v-7.13h1.1v.8h.03c.05-.08.12-.17.22-.29.1-.11.22-.22.37-.33.15-.1.32-.19.52-.26.2-.07.42-.1.67-.1.81,0,1.39.32,1.72.95.07-.1.16-.2.28-.32.12-.11.26-.22.42-.31.16-.09.33-.17.53-.23.2-.06.42-.09.65-.09,1.45,0,2.17.84,2.17,2.52v4.79h-1.2v-4.59c0-.58-.1-1-.31-1.26-.21-.26-.51-.39-.92-.39-.34,0-.62.08-.84.25-.22.16-.4.32-.53.47.02.11.03.23.04.35,0,.12.01.26.01.39v4.79h-1.2Zm7.95,0h-1.2v-7.13h1.2v7.13Zm-.6-8.86c-.25,0-.44-.08-.59-.24-.15-.16-.22-.37-.22-.62s.07-.45.22-.61c.15-.16.35-.24.59-.24s.43.08.58.24c.15.16.22.36.22.61s-.07.46-.22.62c-.15.16-.34.24-.58.24Zm6.33,8.86v-4.59c0-.6-.1-1.04-.3-1.3-.2-.26-.51-.39-.93-.39-.36,0-.65.09-.89.27-.24.18-.43.35-.57.52v5.5h-1.2v-7.13h1.1v.8h.03c.03-.06.09-.15.19-.26.1-.11.23-.22.39-.33.16-.1.35-.19.56-.27.22-.08.47-.12.74-.12.32,0,.6.05.86.14.26.09.47.24.65.45.18.21.32.48.42.81.1.33.15.74.15,1.23v4.68h-1.2Zm4.21,0h-1.2v-7.13h1.2v7.13Zm-.6-8.86c-.25,0-.44-.08-.59-.24-.15-.16-.22-.37-.22-.62s.07-.45.22-.61c.15-.16.35-.24.59-.24s.43.08.58.24c.15.16.22.36.22.61s-.07.46-.22.62c-.15.16-.35.24-.58.24Zm5.51,3.16c-.08-.09-.22-.21-.43-.36-.21-.15-.48-.23-.82-.23-.32,0-.56.07-.73.22-.17.15-.25.33-.25.53,0,.27.08.49.23.66.15.17.39.36.71.56l.45.27c.48.29.87.6,1.14.93.28.33.42.76.42,1.29,0,.56-.2,1.04-.59,1.43-.39.39-.95.58-1.69.58-.29,0-.54-.03-.76-.09-.22-.06-.41-.13-.57-.21-.16-.08-.3-.17-.41-.26-.11-.09-.2-.18-.27-.26l.58-.95c.06.06.13.13.21.21.08.08.19.16.31.23.12.08.25.14.4.19.15.05.32.07.52.07.36,0,.63-.08.82-.24.19-.16.28-.35.28-.58,0-.17-.02-.31-.07-.44-.04-.12-.11-.23-.2-.33-.09-.1-.2-.19-.33-.28-.13-.09-.28-.19-.44-.3l-.45-.28c-.45-.29-.79-.59-1.05-.91-.25-.32-.38-.72-.38-1.22,0-.27.05-.51.16-.74.11-.22.25-.42.44-.58.19-.16.41-.29.66-.39.25-.09.52-.14.81-.14s.51.03.71.08c.2.05.37.12.51.21.14.08.26.17.35.25.09.08.17.15.23.21l-.52.86Zm5.17-.46h-1.56v3.95c0,.51.06.85.19,1.03.13.18.35.28.65.28.18,0,.33-.03.46-.07.13-.05.22-.1.28-.13l.16.97s-.17.1-.36.19c-.19.08-.44.13-.76.13-.61,0-1.08-.17-1.38-.51-.31-.34-.46-.91-.46-1.7v-4.12h-.86v-.8l.86-.18.13-1.99h1.07v1.99h1.71l-.15.98Zm5.84,1.43c0,.31-.01.57-.03.8-.02.22-.04.42-.06.59h-3.64c.04.84.22,1.46.54,1.86.32.4.79.6,1.39.6.21,0,.4-.03.57-.07.17-.05.31-.11.44-.18.12-.07.23-.14.31-.21.08-.07.15-.12.19-.16l.44.85c-.05.05-.12.12-.22.22-.1.09-.23.19-.4.28-.17.09-.37.18-.62.25-.25.07-.54.1-.88.1-.44,0-.85-.07-1.21-.22-.36-.15-.67-.38-.92-.69-.25-.31-.45-.71-.59-1.19-.14-.48-.21-1.06-.21-1.73,0-.63.07-1.18.21-1.64.14-.46.34-.84.59-1.14.25-.3.53-.52.86-.66.33-.14.68-.22,1.06-.22.68,0,1.22.22,1.61.65.38.43.58,1.08.58,1.94Zm-2.26-1.6c-.43,0-.77.18-1.02.54-.26.36-.41.87-.45,1.54h2.6s.02-.12.02-.21c0-.09,0-.2,0-.31,0-.5-.1-.88-.3-1.15-.2-.27-.49-.41-.86-.41Zm7,.25s-.09-.04-.19-.07c-.1-.03-.24-.04-.4-.04-.38,0-.67.1-.88.3-.21.2-.36.42-.45.66v5.23h-1.2v-7.13h1.1v.97h.03c.05-.14.12-.28.2-.41.08-.13.18-.25.3-.36.12-.1.26-.19.42-.24.16-.06.36-.09.59-.09.17,0,.3.01.41.05.1.03.19.05.24.07l-.15,1.07Zm2.39,6.08h-1.2v-7.13h1.2v7.13Zm-.59-8.86c-.25,0-.45-.08-.6-.24-.15-.16-.22-.37-.22-.62s.07-.45.22-.61c.15-.16.35-.24.6-.24.24,0,.43.08.58.24.15.16.22.36.22.61s-.07.46-.22.62c-.15.16-.34.24-.58.24Zm7.43,8.86h-1.1v-.8h-.03c-.03.06-.09.15-.19.26-.1.11-.23.22-.38.33-.15.1-.34.19-.56.27-.22.08-.46.12-.73.12-.32,0-.6-.05-.86-.14-.25-.09-.47-.24-.65-.45-.18-.21-.31-.48-.41-.81-.09-.33-.14-.74-.14-1.22v-4.68h1.2v4.59c0,.59.1,1.02.29,1.27.19.25.49.38.9.38.35,0,.64-.09.88-.26.24-.17.43-.34.57-.51v-5.47h1.2v7.13Zm5.59,0v-4.59c0-.58-.08-1-.25-1.26-.17-.26-.44-.39-.82-.39-.2,0-.37.03-.53.07-.15.05-.29.11-.41.19-.12.07-.22.16-.31.25-.09.09-.16.17-.22.24v5.5h-1.21v-7.13h1.1v.8h.03c.05-.08.12-.17.22-.29.1-.11.22-.22.37-.33.15-.1.32-.19.52-.26.2-.07.42-.1.67-.1.81,0,1.39.32,1.72.95.07-.1.16-.2.28-.32.12-.11.26-.22.41-.31.16-.09.34-.17.54-.23.2-.06.42-.09.66-.09,1.45,0,2.17.84,2.17,2.52v4.79h-1.2v-4.59c0-.58-.1-1-.31-1.26-.21-.26-.51-.39-.92-.39-.34,0-.62.08-.84.25-.22.16-.4.32-.53.47.02.11.03.23.04.35,0,.12.01.26.01.39v4.79h-1.2Zm-93.59,8.83h-1.46v6.15h-1.2v-6.15h-.86v-.8l.86-.16v-1.43c0-.39.05-.72.16-1,.11-.28.25-.5.43-.68.18-.18.39-.31.62-.39.24-.08.49-.12.76-.12s.48.03.65.1c.18.07.3.12.36.16l-.25,1c-.06-.04-.14-.08-.25-.13-.11-.04-.24-.07-.4-.07-.29,0-.51.09-.65.27-.15.18-.22.51-.22.98v1.28h1.6l-.15.98Zm6.18,6.15h-1.1v-.8h-.03c-.03.06-.09.15-.19.26-.1.11-.22.22-.38.33-.15.1-.34.2-.56.27-.22.08-.46.12-.73.12-.32,0-.6-.05-.85-.14-.25-.09-.47-.24-.65-.45-.18-.21-.32-.48-.41-.81-.09-.33-.14-.74-.14-1.23v-4.68h1.2v4.59c0,.59.1,1.02.29,1.27.19.25.49.38.9.38.35,0,.64-.09.88-.26.24-.17.43-.34.57-.51v-5.47h1.2v7.13Zm-2.96-9.18c0,.23-.07.41-.21.55-.14.14-.31.21-.51.21s-.37-.07-.5-.21c-.14-.14-.21-.32-.21-.55s.07-.41.21-.55c.14-.14.31-.21.5-.21s.37.07.51.21c.14.14.21.32.21.55Zm2.29,0c0,.23-.07.41-.21.55-.14.14-.31.21-.51.21s-.37-.07-.51-.21c-.14-.14-.21-.32-.21-.55s.07-.41.21-.55c.14-.14.31-.21.51-.21s.37.07.51.21c.14.14.21.32.21.55Zm5.65,3.11s-.09-.05-.19-.08c-.1-.03-.23-.04-.4-.04-.38,0-.67.1-.88.3-.21.2-.36.42-.45.66v5.23h-1.2v-7.13h1.1v.96h.03c.05-.14.11-.27.19-.41.08-.13.18-.25.3-.36.12-.1.26-.19.42-.25.16-.06.36-.09.59-.09.17,0,.31.02.41.04.1.03.19.05.25.07l-.15,1.07Zm9.63-1.56c0,.36-.04.67-.13.94-.09.27-.21.5-.36.69-.15.19-.33.35-.53.47-.2.12-.41.21-.63.27v.03c.27.05.52.14.75.28.23.14.44.31.61.52.17.21.31.45.42.74.1.28.16.59.16.93,0,.41-.07.78-.21,1.11-.14.34-.36.63-.65.88-.29.25-.66.44-1.11.58-.45.14-.98.21-1.59.21h-2.09v-10.25h1.98c.6,0,1.12.06,1.55.18.43.13.79.3,1.06.53.28.23.48.5.6.83.12.32.19.68.19,1.08Zm-1.31.04c0-.48-.17-.87-.5-1.17-.34-.31-.87-.46-1.59-.46h-.68v3.54h.67c.69,0,1.22-.17,1.57-.51.36-.34.53-.8.53-1.4Zm.19,4.73c0-.56-.18-.99-.54-1.32-.36-.32-.88-.48-1.55-.48h-.88v3.59h.8c.76,0,1.31-.15,1.66-.45.34-.3.51-.75.51-1.34Zm4.18,2.87h-1.2v-7.13h1.2v7.13Zm-.59-8.86c-.25,0-.45-.08-.59-.24-.15-.16-.22-.37-.22-.63s.07-.45.22-.61c.15-.16.35-.24.59-.24s.43.08.58.24c.15.16.22.36.22.61,0,.26-.07.47-.22.63-.15.16-.34.24-.58.24Zm3.63,7.19c0,.3.04.51.12.62.08.12.23.18.44.18.11,0,.2,0,.27-.03.07-.02.13-.04.17-.06l.11.89c-.06.03-.17.07-.33.12-.16.05-.37.07-.64.07-.41,0-.73-.12-.98-.37-.25-.25-.37-.69-.37-1.32v-8.94l1.2-.13v8.97Zm1.87-1.8c0-.72.09-1.33.28-1.81.19-.48.43-.88.73-1.17.3-.3.63-.51,1.01-.63.38-.12.75-.19,1.13-.19.23,0,.43.02.59.05.17.04.31.08.42.13v-3.42l1.2-.13v10.64h-1.1v-.76h-.03c-.03.06-.08.14-.16.25-.08.1-.19.21-.33.31-.14.1-.31.19-.52.27-.21.07-.45.11-.73.11-.34,0-.66-.06-.96-.2-.3-.14-.57-.35-.79-.64-.23-.29-.41-.67-.54-1.13-.13-.46-.2-1.02-.2-1.67Zm2.82,2.57c.19,0,.36-.03.51-.07.15-.05.28-.11.39-.19.11-.07.2-.15.27-.23.08-.08.13-.15.17-.21v-4.4c-.11-.07-.24-.13-.38-.18-.14-.05-.32-.07-.54-.07-.28,0-.54.05-.78.14-.24.1-.45.25-.63.47-.18.22-.32.5-.42.85-.11.35-.16.77-.16,1.28s.04.91.13,1.24c.08.33.2.6.35.8.15.2.32.35.5.44.19.09.39.13.59.13Zm9.38.89h-1.1v-.8h-.03c-.03.06-.09.15-.19.26-.1.11-.23.22-.38.33-.15.1-.34.2-.56.27-.22.08-.46.12-.73.12-.32,0-.6-.05-.85-.14-.25-.09-.47-.24-.65-.45-.18-.21-.31-.48-.41-.81-.09-.33-.14-.74-.14-1.23v-4.68h1.2v4.59c0,.59.1,1.02.29,1.27.19.25.49.38.9.38.35,0,.64-.09.88-.26.24-.17.43-.34.56-.51v-5.47h1.2v7.13Zm5.74,0v-4.59c0-.6-.1-1.04-.31-1.3-.2-.26-.51-.39-.92-.39-.36,0-.66.09-.89.27-.24.18-.43.35-.57.52v5.5h-1.2v-7.13h1.1v.8h.03c.03-.06.09-.15.19-.26.1-.11.23-.22.39-.33.16-.1.34-.2.56-.27.22-.08.47-.12.74-.12.32,0,.6.05.86.14.26.09.47.24.65.45.18.21.32.48.42.81.1.33.15.74.15,1.23v4.68h-1.2Zm8.11-6.2h-.89c.23.38.34.8.34,1.28,0,.38-.06.72-.19,1.02-.12.3-.3.56-.52.77-.22.21-.49.37-.79.48-.3.11-.63.16-.97.16h-.2c-.06,0-.12,0-.19-.02-.12.05-.24.13-.37.24-.13.11-.19.25-.19.43,0,.15.06.27.17.36.11.09.3.14.56.14h.91c.34,0,.65.03.94.1.29.07.54.18.75.33.21.15.38.35.5.59.12.24.18.52.18.86,0,.39-.08.74-.25,1.06-.16.32-.39.59-.69.82-.3.23-.66.41-1.08.54-.43.13-.9.19-1.43.19-.76,0-1.34-.17-1.74-.5-.4-.33-.59-.81-.59-1.43,0-.27.05-.5.14-.69.09-.19.21-.36.34-.5.13-.14.26-.26.39-.34.13-.08.24-.15.32-.2v-.03c-.31-.23-.46-.56-.46-1,0-.19.04-.35.11-.49.07-.14.16-.25.25-.34.09-.09.19-.16.28-.21.09-.05.17-.09.22-.11v-.03c-.37-.17-.66-.43-.88-.8-.22-.36-.34-.82-.34-1.39,0-.4.07-.75.19-1.05.13-.3.3-.55.52-.75.22-.2.47-.35.77-.45.29-.1.61-.15.94-.15s.65.06.95.18h2.17l-.17.94Zm-3.31,5.97c-.21,0-.39-.01-.55-.04-.09.05-.18.11-.26.18-.08.07-.16.15-.23.25-.07.1-.12.21-.17.35-.04.13-.07.29-.07.47,0,.76.42,1.14,1.26,1.14.72,0,1.26-.14,1.6-.42.35-.28.52-.61.52-.97s-.11-.59-.33-.74c-.22-.14-.51-.22-.88-.22h-.91Zm1.59-4.69c0-.51-.12-.88-.36-1.1-.24-.22-.53-.33-.85-.33-.35,0-.64.11-.89.33-.25.22-.37.58-.37,1.1s.13.88.37,1.1c.25.22.54.33.86.33.35,0,.64-.11.88-.33.24-.22.36-.58.36-1.1Zm-51.08,19.9h-1.1v-.8h-.03c-.03.06-.09.15-.19.26-.1.12-.23.22-.38.33-.15.1-.34.2-.56.28-.22.08-.46.12-.73.12-.32,0-.6-.05-.85-.14-.25-.09-.47-.25-.64-.45-.18-.21-.32-.48-.41-.81-.1-.33-.14-.74-.14-1.23v-4.68h1.2v4.59c0,.6.1,1.02.29,1.27.19.25.49.38.9.38.35,0,.64-.09.88-.26.24-.17.43-.34.56-.51v-5.47h1.2v7.13Zm5.74,0v-4.59c0-.6-.1-1.04-.31-1.3-.2-.26-.51-.39-.93-.39-.36,0-.65.09-.89.27-.24.18-.43.35-.56.52v5.5h-1.2v-7.13h1.1v.8h.03c.03-.06.09-.15.19-.26.1-.12.23-.22.39-.33.16-.1.35-.2.57-.27.22-.08.46-.12.74-.12.32,0,.6.05.86.14.26.1.47.25.65.45.18.21.32.48.42.81.1.33.15.74.15,1.23v4.68h-1.2Zm2.67-3.46c0-.72.09-1.33.28-1.81.19-.49.43-.88.73-1.17.3-.3.63-.51,1.01-.63.38-.13.75-.19,1.13-.19.23,0,.43.02.59.05.17.03.31.08.42.13v-3.42l1.2-.13v10.64h-1.1v-.76h-.03c-.03.06-.08.14-.16.25-.08.1-.19.21-.33.31-.14.1-.31.19-.52.27-.21.07-.45.11-.73.11-.34,0-.66-.07-.96-.2-.3-.13-.57-.35-.79-.64-.23-.29-.41-.67-.54-1.13-.13-.46-.2-1.02-.2-1.67Zm2.82,2.57c.19,0,.36-.02.51-.07.15-.05.28-.11.39-.19.11-.07.2-.15.28-.23.07-.08.13-.15.17-.21v-4.4c-.11-.07-.23-.13-.38-.18-.14-.05-.32-.07-.54-.07-.28,0-.54.05-.78.14-.24.09-.45.25-.63.47-.18.22-.32.5-.42.85-.1.35-.16.77-.16,1.28s.04.91.13,1.24c.08.33.2.6.35.8.15.2.32.35.5.44.19.09.39.13.59.13Zm7.79.89v-10.25h5.04l-.09,1.02h-3.66v3.79h3.37v1.03h-3.37v4.41h-1.29Zm5.94-3.56c0-.65.08-1.22.23-1.69.15-.48.36-.86.62-1.16.26-.3.56-.53.91-.67.34-.14.7-.22,1.09-.22s.76.07,1.1.22c.34.14.63.37.88.67.25.3.44.69.59,1.16.14.48.21,1.04.21,1.69s-.07,1.23-.22,1.71c-.15.47-.35.86-.62,1.16-.26.3-.57.52-.91.66-.35.14-.71.21-1.1.21s-.76-.07-1.1-.21c-.34-.14-.63-.36-.88-.66-.25-.3-.44-.69-.59-1.16-.14-.47-.22-1.04-.22-1.72Zm4.38,0c0-.95-.14-1.64-.42-2.07-.28-.43-.66-.65-1.16-.65s-.88.22-1.15.65c-.27.43-.41,1.12-.41,2.07s.14,1.63.42,2.05c.28.42.66.62,1.16.62s.88-.21,1.15-.62c.27-.41.41-1.1.41-2.05Zm5.9-2.51s-.09-.04-.19-.08c-.1-.03-.23-.04-.4-.04-.37,0-.67.1-.88.3-.21.2-.36.42-.45.66v5.23h-1.2v-7.13h1.1v.97h.03c.05-.14.11-.28.19-.41.08-.13.18-.25.3-.36.12-.1.26-.19.42-.25.16-.06.36-.09.59-.09.17,0,.3.02.41.05.1.03.18.05.24.07l-.15,1.07Zm4.21.39c-.08-.09-.22-.21-.43-.36-.21-.15-.48-.23-.82-.23s-.56.07-.73.22c-.17.15-.25.33-.25.53,0,.27.08.49.23.66.15.17.39.36.7.56l.45.27c.49.29.87.6,1.15.93.28.33.42.76.42,1.29,0,.56-.2,1.04-.59,1.43-.39.38-.95.58-1.69.58-.29,0-.54-.03-.76-.09-.22-.06-.41-.13-.57-.21-.16-.08-.3-.17-.41-.26-.11-.1-.2-.18-.27-.26l.58-.95c.06.06.13.13.21.21.08.08.19.16.3.23.12.07.25.14.4.19.15.05.32.07.52.07.36,0,.63-.08.82-.24.19-.16.28-.35.28-.58,0-.17-.02-.31-.07-.44-.04-.12-.11-.23-.2-.33-.09-.1-.2-.19-.33-.28-.13-.09-.28-.19-.45-.3l-.45-.28c-.45-.29-.79-.59-1.05-.91-.25-.32-.38-.72-.38-1.22,0-.27.05-.51.16-.74.1-.22.25-.41.44-.58.19-.16.41-.29.66-.39.25-.09.52-.14.81-.14s.52.03.71.08c.2.05.37.12.51.21.14.08.26.17.36.25.09.08.17.16.23.21l-.52.86Zm6.09-.06s-.08-.08-.14-.14c-.06-.06-.15-.12-.25-.18-.1-.06-.22-.11-.36-.16-.14-.04-.3-.07-.47-.07-.26,0-.5.05-.72.14-.22.09-.42.25-.58.45-.16.21-.29.48-.39.81-.09.33-.14.74-.14,1.21,0,.53.04.97.13,1.32.08.36.2.64.35.86.15.21.33.36.54.46.21.09.45.14.71.14.37,0,.65-.06.84-.19s.33-.23.41-.31l.49.83c-.05.06-.12.13-.21.21-.09.08-.21.16-.36.24-.15.08-.33.15-.54.2-.21.05-.46.08-.74.08-.4,0-.77-.06-1.11-.19-.35-.13-.65-.34-.91-.64-.26-.3-.46-.68-.61-1.16-.15-.48-.23-1.07-.23-1.77s.09-1.26.27-1.74c.18-.48.41-.86.7-1.15.29-.29.61-.5.96-.64.35-.13.71-.2,1.06-.2.27,0,.5.03.71.08.2.05.37.11.52.19.15.07.26.15.36.24.09.08.17.16.23.22l-.51.85Zm5.66,5.75v-4.59c0-.6-.1-1.04-.3-1.3-.21-.26-.51-.39-.93-.39-.36,0-.65.09-.89.27-.24.18-.42.35-.56.52v5.5h-1.2v-10.5l1.2-.13v4.23h.03c.04-.06.1-.14.19-.24.08-.1.2-.2.35-.3.15-.1.33-.19.54-.26.21-.07.46-.11.75-.11.62,0,1.12.2,1.48.61.37.41.55,1.08.55,2.02v4.68h-1.2Zm8,0h-1.1v-.8h-.03c-.03.06-.09.15-.19.26-.1.12-.22.22-.38.33-.15.1-.34.2-.56.28-.22.08-.46.12-.73.12-.32,0-.6-.05-.86-.14-.25-.09-.47-.25-.65-.45-.18-.21-.31-.48-.41-.81-.09-.33-.14-.74-.14-1.23v-4.68h1.2v4.59c0,.6.1,1.02.29,1.27.19.25.5.38.9.38.35,0,.64-.09.88-.26.24-.17.43-.34.56-.51v-5.47h1.21v7.13Zm5.74,0v-4.59c0-.6-.1-1.04-.3-1.3-.2-.26-.51-.39-.93-.39-.36,0-.65.09-.89.27-.24.18-.42.35-.57.52v5.5h-1.2v-7.13h1.1v.8h.03c.03-.06.09-.15.19-.26.1-.12.23-.22.39-.33.16-.1.35-.2.56-.27.22-.08.47-.12.74-.12.32,0,.6.05.86.14.26.1.47.25.65.45.18.21.32.48.41.81.1.33.15.74.15,1.23v4.68h-1.2Zm8.11-6.2h-.89c.23.38.34.8.34,1.28,0,.38-.06.72-.18,1.02-.12.3-.3.56-.52.76-.22.21-.49.37-.79.48-.3.11-.63.17-.97.17h-.19c-.06,0-.12,0-.19-.02-.12.05-.24.13-.37.24-.13.11-.19.25-.19.43,0,.15.06.27.17.37.11.09.3.14.56.14h.91c.34,0,.65.03.94.11.29.07.54.18.75.33.21.15.38.35.5.59.12.24.18.53.18.86,0,.39-.08.74-.25,1.06-.16.32-.4.59-.69.82-.3.23-.66.41-1.08.53-.43.13-.9.19-1.42.19-.76,0-1.34-.17-1.74-.5-.4-.33-.59-.81-.59-1.43,0-.27.05-.5.14-.69.09-.19.21-.36.33-.51.13-.14.26-.26.39-.34.13-.08.24-.15.32-.2v-.03c-.31-.23-.46-.56-.46-1,0-.19.04-.35.11-.49.07-.14.16-.25.25-.34.09-.09.19-.16.28-.22.09-.05.17-.09.21-.11v-.03c-.37-.17-.66-.43-.88-.79-.22-.36-.33-.83-.33-1.39,0-.4.06-.75.19-1.05.13-.3.3-.55.52-.75.22-.2.47-.35.77-.45.29-.1.61-.15.94-.15s.66.06.95.18h2.17l-.16.94Zm-3.31,5.97c-.21,0-.39-.01-.55-.04-.09.05-.18.11-.26.18-.08.07-.16.15-.23.25-.07.1-.13.22-.17.35-.04.13-.07.29-.07.47,0,.76.42,1.15,1.26,1.15.72,0,1.26-.14,1.61-.42.34-.28.52-.61.52-.97,0-.35-.11-.59-.33-.74-.22-.14-.51-.22-.88-.22h-.91Zm1.59-4.69c0-.52-.12-.88-.36-1.1-.24-.22-.53-.33-.86-.33-.35,0-.65.11-.89.33-.25.22-.37.58-.37,1.1s.12.88.37,1.1c.25.22.54.33.86.33.35,0,.64-.11.89-.33.24-.22.36-.58.36-1.1Z" style="fill:#1d1d1b; stroke-width:0px;"/><polygon points="61.01 95.87 62.89 95.87 62.89 120.84 58.52 120.84 58.52 95.87 61.01 95.87" style="fill:#f8d200; stroke-width:0px;"/><polygon points="61.01 70.78 62.89 70.78 62.89 95.87 58.52 95.87 58.52 70.78 61.01 70.78" style="fill:#e30613; stroke-width:0px;"/><path d="m47.14,54.66c1.28,2.02,2.28,1.99,3.79,1.99-1.25-.96-2.08-2.18-2.47-2.81l-2.33-3.74c-.23-1.15-.83-2.23-1.72-3.03.3-.11.55-.23.7-.35-1.52,0-3.04-.77-3.87-.77-.53,0-.88.32-.88.74.04.47.52.95,1.41.95.2,0,.46-.03.75-.07.49.68.88,1.29.88,2.16,0,1.63-1.96,2.91-3.93,2.91-.11,0-.22,0-.33-.01-.18-.4-.77-1.09-.77-1.86,0-1.3.85-2.36.85-3.65,0-.8-.39-1.3-.54-1.5.24-.22.51-.5.57-.69-.14.06-.31.07-.55.07-.95,0-1.72-.25-2.47-.25-.43,0-.54.13-.54.26,0,.05,0,.09.02.12-.16-.06-.31-.1-.49-.14-.22-.04-.46-.06-.71-.06-.91,0-1.24.38-1.24.71,0,.28.22.79.47,1.17.36-.18.78-.3.98-.3.48,0,.92.46,1.15,1.01-.33.04-.39.05-.72.05-.89,0-1.49-.32-1.62-.32-.01,0-.04,0-.04.03,0,.12.25.45.75.64.65.24,1.64.34,1.8.37,0,.03-.17.34-.35.4-.04.01-.07.02-.12,0-.68-.14-.87-.19-1.74-.52-.03,0-.04,0-.04.03,0,.34.89,1.1,1.69,1.39-.67.85-1.5,1.72-1.89,3.04-.11,0-.22.01-.33.01-1.97,0-3.93-1.28-3.93-2.91,0-.87.39-1.48.88-2.16.28.05.54.07.75.07.9,0,1.38-.48,1.42-.95,0-.42-.34-.74-.88-.74-.83,0-2.34.77-3.87.77.15.11.4.23.7.35-.89.8-1.49,1.88-1.72,3.03l-2.33,3.74c-.39.63-1.22,1.85-2.47,2.81,1.51,0,2.51.03,3.79-1.99l1.2-1.92c.09.25.2.49.33.73l-2.38,3.81c-.4.63-1.22,1.85-2.47,2.81,1.51,0,2.51.04,3.79-1.98l2.05-3.28c.15.16.31.32.49.48l-2.89,4.63c-.4.63-1.21,1.85-2.47,2.81,1.51,0,2.51.04,3.79-1.99l2.82-4.51c.19.12.38.23.57.34l-3.44,5.51c-.4.63-1.21,1.84-2.47,2.81,1.51,0,2.51.03,3.79-1.99l3.54-5.67c.21.08.42.16.64.23l-4,6.41c-.39.62-1.23,1.86-2.47,2.81,1.51,0,2.51.03,3.79-1.98l4.27-6.83s.09.01.13.02c.12.37.2.71.2,1.06,0,2.15-1.41,4.04-3.1,5.51.11.05.3.06.47.06.35,0,.57-.02.73-.05-.39.89-1.23,2.04-1.66,2.63-.55-.1-1.36-.18-1.89-.18s-.61.32-.61.61c0,.5.23.9.51,1.12.1-.26.31-.6,1.33-.6.02,0,.05,0,.1,0-.3.33-1.23,1.08-1.23,1.69,0,.4.44,1,1.02,1-.04-.13-.03-.25-.03-.34,0-.49.44-1.07.8-1.47-.01.12,0,.11,0,.25,0,1.16.11,1.7.84,1.7.36,0,.61-.2.7-.26-.48-.44-.5-.79-.5-1.44,0-.17,0-.33,0-.56,0-.15,0-.35-.02-.49.26-.04.37-.04.57-.04,0,0,1.05-.08,1.3.46.28-.26.7-.63.7-1.03,0-.27-.13-.57-.67-.57-.2,0-.85.13-1.39.13.14-.32.79-1.26,1.35-1.95.08.26.22.55.51.79.04-.44.3-1.83.98-2.64.08.55.19,1.11.19,2.3,0,2.89-.7,5.02-2.17,5.43.19.33.6.63,1.02.63.54,0,.83-.61,1.13-1.18.16.42.59,1.46,1.02,1.46s.86-1.04,1.02-1.46c.3.57.59,1.18,1.13,1.18.42,0,.83-.3,1.02-.63-1.47-.41-2.17-2.54-2.17-5.43,0-1.19.11-1.75.19-2.3.69.81.95,2.2.99,2.64.29-.23.42-.52.51-.79.56.68,1.2,1.62,1.35,1.95-.54,0-1.18-.13-1.39-.13-.54,0-.67.3-.67.57,0,.41.41.77.7,1.03.25-.54,1.3-.46,1.3-.46.2,0,.31,0,.57.04-.02.14-.03.34-.02.49,0,.23,0,.39,0,.56,0,.65-.02,1-.5,1.44.09.06.34.26.7.26.74,0,.84-.53.84-1.7,0-.14,0-.13,0-.25.37.4.8.98.8,1.47,0,.09,0,.21-.03.34.58,0,1.02-.6,1.02-1,0-.61-.93-1.36-1.23-1.69.05,0,.08,0,.1,0,1.02,0,1.22.34,1.33.6.27-.22.51-.62.51-1.12,0-.29-.06-.61-.61-.61s-1.33.08-1.89.18c-.42-.59-1.27-1.75-1.66-2.63.16.03.38.05.73.05.17,0,.36-.01.47-.06-1.69-1.46-3.1-3.36-3.1-5.51,0-.34.08-.69.2-1.06.04,0,.09-.02.13-.02l4.27,6.83c1.28,2.02,2.28,1.98,3.79,1.98-1.24-.95-2.08-2.18-2.47-2.81l-4.01-6.41c.22-.07.43-.15.64-.23l3.54,5.67c1.28,2.02,2.28,1.99,3.79,1.99-1.26-.97-2.07-2.18-2.47-2.81l-3.44-5.51c.2-.11.39-.22.57-.34l2.82,4.51c1.28,2.02,2.28,1.99,3.79,1.99-1.26-.96-2.07-2.18-2.47-2.81l-2.89-4.63c.17-.15.33-.31.48-.48l2.05,3.28c1.28,2.02,2.28,1.98,3.79,1.98-1.26-.96-2.07-2.18-2.47-2.81l-2.38-3.81c.13-.24.24-.48.33-.73l1.2,1.92Zm-19.11-4.39c0-1.42,1.03-2.55,1.4-2.87.09.02.18.04.26.06-.39.47-1.07,1.26-1.07,2.31,0,2.08,2.23,3.89,4.74,3.89-.02.18-.02.37-.02.56,0,.31.02.59.05.86-2.85-.02-5.36-2.33-5.36-4.82Zm3.86,17.07l-.02.05h.05c.8,0,1.19-.06,1.45-.1.14-.02.23-.03.34-.03.21,0,.37.02.37.27,0,.17-.2.44-.39.6-.29-.28-.7-.33-1.3-.33-.28,0-.65.05-.84.08h-.03s-.03,0-.03,0v.09c.03.17.06.37.06.65v.25s0,.31,0,.31c0,.68.09,1.07.33,1.36-.06.02-.16.04-.23.04-.42,0-.54-.18-.54-1.4,0-.24-.01-.47-.02-.63v-.22s-.07.04-.07.04c-.63.48-1.27,1.33-1.31,1.97-.19-.12-.39-.39-.39-.6,0-.35.52-.87,1.13-1.48l.35-.35.04-.05-.11-.03c-.13-.03-.37-.1-.58-.1-.68,0-1.11.13-1.37.41-.09-.14-.17-.45-.17-.64,0-.12.02-.21.07-.26.06-.06.15-.06.23-.06h.02c.75,0,1.65.14,2,.19h.02s.01-.01.01-.01c.06-.08,1.49-1.98,1.86-2.99.08-.03.16-.06.31-.06.28,0,.36.19.44.48-.89,1.09-1.45,1.93-1.65,2.51Zm7.71-2.99c.15,0,.22.02.31.06.37,1.01,1.8,2.91,1.86,2.99v.02s.04,0,.04,0c.35-.06,1.24-.19,1.99-.19h.02c.08,0,.17,0,.23.06.05.05.07.13.07.26,0,.19-.08.5-.17.64-.26-.29-.69-.41-1.37-.41-.21,0-.45.06-.58.1h-.05s-.06.03-.06.03l.39.39c.61.61,1.13,1.13,1.13,1.48,0,.21-.2.48-.39.6-.04-.64-.69-1.49-1.31-1.97l-.05-.04v.22c-.02.15-.03.38-.03.63,0,1.22-.12,1.4-.54,1.4-.06,0-.16-.02-.23-.04.24-.29.33-.68.33-1.36v-.31s0-.25,0-.25c0-.28.03-.48.05-.65v-.09s-.05,0-.05,0c-.2-.03-.56-.08-.84-.08-.6,0-1.01.05-1.3.33-.19-.16-.39-.43-.39-.6,0-.25.16-.27.36-.27.1,0,.2.02.34.03.26.04.65.1,1.45.1h.05v-.05c-.22-.58-.77-1.42-1.67-2.51.08-.29.16-.48.44-.48Zm-3.31-16.61c-.09-.37-.28-.75-.52-1.03-.22-.26-.58-.57-1.07-.57-.22,0-.6.1-.84.2-.09-.16-.26-.55-.26-.73s.31-.36.89-.36c1.29,0,2.06.58,2.06,1.56,0,.34-.14.66-.26.93Zm.58-1.27c-.05-.28-.15-.53-.31-.74,0-.25.11-.49.52-.29-.22.23-.05.62-.05.62,0,0,.45-.21.36-.5.67.16.19,1.05-.51.92Zm2.51,8.61c.03-.28.05-.57.05-.86,0-.16,0-.35-.02-.56,2.49-.04,4.67-1.83,4.67-3.89,0-1.05-.68-1.84-1.07-2.31.09-.02.17-.04.26-.06.36.32,1.4,1.44,1.4,2.87,0,2.47-2.47,4.77-5.3,4.82Z" style="fill:#1d1d1b; stroke-width:0px;"/><polygon points="62.89 45.93 62.89 70.9 61.01 70.9 58.52 70.9 58.52 45.93 62.89 45.93" style="fill:#1d1d1b; stroke-width:0px;"/></g><g id="b"><path d="m75.05,16.27c0-.74-.31-1.15-1.12-1.15-.25,0-1.16.04-1.16,1.37v2.14c0,1.38.4,1.73,1.16,1.73.58,0,.96-.16,1.13-.28v-1.89h-1.16v-.7h1.97v3.07c-.52.28-1.12.47-1.93.47-1.34,0-1.99-.69-1.99-2.44v-2.07c0-1.26.65-2.07,1.99-2.07s2.01.5,1.96,1.82h-.84Z" style="fill:#1d1d1b; stroke-width:0px;"/><path d="m77.37,20.9v-6.32h3.25v.7h-2.45v2.03h2.28v.7h-2.28v2.19h2.5v.7h-3.31Z" style="fill:#1d1d1b; stroke-width:0px;"/><path d="m81.68,20.9v-6.32h3.13v.7h-2.33v2.03h2.21v.7h-2.21v2.89h-.8Z" style="fill:#1d1d1b; stroke-width:0px;"/><path d="m85.6,18.59v-2.07c0-1.26.65-2.07,1.99-2.07s1.99.81,1.99,2.07v2.07c0,1.75-.65,2.44-1.99,2.44s-1.99-.69-1.99-2.44Zm1.64-4.75h-.82v-.91h.82v.91Zm1.51,4.79v-2.14c0-1.32-.91-1.37-1.16-1.37s-1.16.04-1.16,1.37v2.14c0,1.38.4,1.73,1.16,1.73s1.16-.35,1.16-1.73Zm.03-4.79h-.82v-.91h.82v.91Z" style="fill:#1d1d1b; stroke-width:0px;"/><path d="m91.76,17.99v2.91h-.8v-6.32h2.18c1.12,0,1.51.79,1.51,1.58,0,.74-.41,1.31-1.16,1.44v.02c.73.11.99.36,1.03,1.63,0,.27.1,1.26.22,1.65h-.84c-.23-.44-.17-1.26-.24-2.1-.06-.77-.68-.8-.95-.8h-.95Zm0-.7h1.21c.58,0,.86-.5.86-1.05,0-.45-.23-.96-.85-.96h-1.22v2.01Z" style="fill:#1d1d1b; stroke-width:0px;"/><path d="m95.86,14.58h1.94c.8,0,1.38.29,1.7.96.25.53.28,1.79.28,2,0,1.35-.12,2.13-.39,2.55-.34.54-.98.81-2.08.81h-1.45v-6.32Zm.81,5.62h.76c1.12,0,1.53-.42,1.53-1.89v-1.28c0-1.28-.39-1.75-1.23-1.75h-1.06v4.92Z" style="fill:#1d1d1b; stroke-width:0px;"/><path d="m101.19,20.9v-6.32h3.25v.7h-2.45v2.03h2.28v.7h-2.28v2.19h2.5v.7h-3.31Z" style="fill:#1d1d1b; stroke-width:0px;"/><path d="m106.35,17.99v2.91h-.81v-6.32h2.18c1.12,0,1.51.79,1.51,1.58,0,.74-.41,1.31-1.15,1.44v.02c.72.11.99.36,1.03,1.63,0,.27.1,1.26.22,1.65h-.84c-.23-.44-.18-1.26-.25-2.1-.06-.77-.68-.8-.95-.8h-.94Zm0-.7h1.21c.58,0,.86-.5.86-1.05,0-.45-.23-.96-.85-.96h-1.21v2.01Z" style="fill:#1d1d1b; stroke-width:0px;"/><path d="m113.97,14.58v.7h-1.66v5.62h-.8v-5.62h-1.66v-.7h4.13Z" style="fill:#1d1d1b; stroke-width:0px;"/><path d="m118.94,20.9h-.96l-1.83-6.32h.87l1.45,5.56h.02l1.48-5.56h.82l-1.85,6.32Z" style="fill:#1d1d1b; stroke-width:0px;"/><path d="m121.58,18.59v-2.07c0-1.26.65-2.07,1.99-2.07s1.98.81,1.98,2.07v2.07c0,1.75-.65,2.44-1.98,2.44s-1.99-.69-1.99-2.44Zm3.15.04v-2.14c0-1.32-.91-1.37-1.16-1.37s-1.16.04-1.16,1.37v2.14c0,1.38.4,1.73,1.16,1.73s1.16-.35,1.16-1.73Z" style="fill:#1d1d1b; stroke-width:0px;"/><path d="m127.72,20.9h-.75v-6.32h1.3l1.59,5.3h.02l1.61-5.3h1.33v6.32h-.8v-5.62h-.02l-1.77,5.62h-.76l-1.73-5.62h-.02v5.62Z" style="fill:#1d1d1b; stroke-width:0px;"/></g></svg>