<?xml version="1.0" encoding="UTF-8"?><svg xmlns="http://www.w3.org/2000/svg" viewBox="0 0 204.09 136.06"><g id="a"><path d="M37.45,61.61c.03-.22.04-.45.04-.69,0-.13,0-.28-.02-.45,2-.03,3.74-1.46,3.74-3.12,0-.84-.55-1.47-.86-1.85.07-.02.14-.03.21-.05.29.25,1.12,1.15,1.12,2.29,0,1.98-1.98,3.82-4.24,3.86M35.44,54.72c-.04-.22-.12-.42-.25-.59,0-.2.09-.4.42-.24-.17.18-.04.5-.04.5,0,0,.36-.17.29-.41.54.13.15.84-.41.74M34.98,55.73c-.07-.3-.22-.6-.42-.83-.18-.21-.46-.45-.86-.45-.18,0-.48.08-.67.16-.07-.13-.21-.44-.21-.58s.25-.29.71-.29c1.03,0,1.65.46,1.65,1.25,0,.28-.11.53-.21.75M37.63,69.03c.12,0,.18.02.25.05.3.81,1.44,2.33,1.49,2.4h.01s.01,0,.01,0c.28-.04,1-.15,1.6-.15h.02c.06,0,.14,0,.18.05.04.04.06.11.06.2,0,.15-.06.41-.14.51-.21-.23-.55-.33-1.09-.33-.17,0-.36.05-.46.08h-.04s-.05.02-.05.02l.31.32c.49.48.91.9.91,1.18,0,.17-.16.39-.31.48-.04-.51-.55-1.2-1.06-1.58l-.04-.04v.18c-.01.12-.02.3-.02.5,0,.97-.1,1.12-.44,1.12-.05,0-.13-.02-.18-.04.19-.23.26-.54.26-1.09v-.25s0-.2,0-.2c0-.23.02-.39.04-.52v-.07s-.04,0-.04,0c-.16-.02-.45-.06-.68-.06-.48,0-.81.05-1.04.27-.16-.13-.32-.34-.32-.48,0-.2.13-.22.29-.22.08,0,.16.02.27.03.21.03.52.08,1.16.08h.04v-.04c-.18-.46-.62-1.14-1.34-2.01.06-.24.12-.39.35-.39M31.46,71.43l-.02.04h.04c.64,0,.95-.05,1.16-.08.11-.01.19-.03.27-.03.16,0,.29.02.29.22,0,.14-.16.35-.32.48-.23-.22-.56-.27-1.04-.27-.22,0-.52.04-.68.06h-.02s-.03,0-.03,0v.07c.03.13.05.3.05.52v.2s0,.25,0,.25c0,.54.07.85.27,1.09-.05.02-.13.04-.18.04-.34,0-.44-.15-.44-1.12,0-.2,0-.38-.02-.5v-.18s-.05.04-.05.04c-.5.38-1.02,1.07-1.05,1.58-.15-.1-.32-.32-.32-.48,0-.28.42-.7.91-1.18l.28-.28.04-.04-.09-.02c-.11-.03-.3-.08-.46-.08-.54,0-.88.1-1.09.33-.08-.11-.14-.37-.14-.51,0-.1.02-.16.06-.2.05-.05.12-.05.19-.05h.01c.6,0,1.32.11,1.6.15h.02s0,0,0,0c.05-.07,1.2-1.59,1.49-2.4.07-.03.12-.05.25-.05.23,0,.29.15.35.39-.71.87-1.16,1.55-1.32,2.01M28.37,57.75c0-1.14.83-2.04,1.12-2.29.07.02.14.03.21.05-.31.38-.86,1.01-.86,1.85,0,1.67,1.78,3.12,3.8,3.12-.01.14-.02.29-.02.45,0,.25.01.47.04.69-2.28-.01-4.29-1.86-4.29-3.86M43.67,61.27c1.02,1.62,1.82,1.59,3.04,1.59-1-.77-1.66-1.75-1.98-2.25l-1.87-2.99c-.18-.92-.66-1.79-1.38-2.43.24-.09.44-.19.56-.28-1.22,0-2.43-.62-3.1-.62-.43,0-.7.26-.7.59.03.38.42.76,1.13.76.16,0,.37-.02.6-.06.39.54.7,1.03.7,1.73,0,1.31-1.57,2.33-3.15,2.33-.09,0-.18,0-.26-.01-.15-.32-.62-.87-.62-1.49,0-1.04.68-1.89.68-2.92,0-.64-.31-1.04-.43-1.2.2-.18.41-.4.46-.55-.11.05-.25.05-.44.05-.76,0-1.38-.19-1.98-.19-.34,0-.43.11-.43.21,0,.04,0,.07.02.09-.13-.05-.25-.08-.4-.11-.17-.04-.37-.05-.57-.05-.73,0-.99.3-.99.57,0,.22.18.63.38.94.29-.14.62-.24.78-.24.39,0,.73.37.92.81-.26.03-.31.04-.57.04-.71,0-1.2-.25-1.3-.25-.01,0-.03,0-.03.02,0,.1.2.36.6.51.52.2,1.31.27,1.44.3,0,.02-.13.27-.28.32-.03.01-.05.01-.09,0-.55-.11-.7-.15-1.39-.42-.02,0-.03,0-.03.03,0,.27.71.88,1.35,1.11-.53.68-1.2,1.38-1.51,2.44-.09,0-.18.01-.27.01-1.58,0-3.15-1.02-3.15-2.33,0-.7.31-1.19.7-1.73.23.04.43.06.6.06.71,0,1.11-.38,1.13-.76,0-.34-.27-.59-.7-.59-.67,0-1.88.62-3.1.62.12.09.32.19.56.28-.71.64-1.19,1.51-1.38,2.43l-1.87,2.99c-.32.5-.98,1.49-1.98,2.25,1.21,0,2.01.03,3.04-1.59l.96-1.53c.07.2.16.39.26.58l-1.91,3.05c-.32.51-.98,1.48-1.98,2.25,1.21,0,2.01.03,3.04-1.59l1.64-2.62c.12.13.25.26.39.38l-2.32,3.71c-.32.51-.97,1.48-1.98,2.25,1.21,0,2.01.03,3.03-1.59l2.26-3.61c.15.09.3.18.46.27l-2.76,4.41c-.32.5-.97,1.47-1.98,2.25,1.21,0,2.01.03,3.04-1.59l2.84-4.54c.17.06.34.13.51.18l-3.21,5.13c-.31.5-.98,1.49-1.98,2.25,1.21,0,2.01.03,3.03-1.59l3.42-5.47s.07,0,.11.02c.09.3.16.58.16.85,0,1.72-1.12,3.24-2.48,4.41.09.04.24.05.38.05.28,0,.46-.02.59-.04-.32.71-.99,1.64-1.33,2.11-.44-.08-1.09-.14-1.51-.14s-.49.26-.49.49c0,.4.19.72.41.9.08-.2.25-.48,1.06-.48.02,0,.05,0,.08,0-.24.27-.98.87-.98,1.36,0,.32.35.8.82.8-.03-.11-.03-.2-.03-.27,0-.39.35-.85.64-1.17,0,.1,0,.09,0,.2,0,.93.09,1.36.68,1.36.29,0,.49-.16.56-.21-.38-.35-.4-.63-.4-1.15,0-.14,0-.27,0-.45,0-.12,0-.28-.02-.39.21-.03.3-.03.46-.03,0,0,.84-.07,1.04.37.23-.21.56-.5.56-.83,0-.21-.1-.46-.54-.46-.16,0-.68.1-1.11.1.12-.26.63-1.01,1.08-1.56.07.21.17.44.41.63.04-.35.24-1.46.79-2.12.07.44.15.89.15,1.84,0,2.31-.56,4.02-1.74,4.35.15.27.48.51.82.51.43,0,.67-.49.91-.95.12.34.47,1.17.82,1.17s.69-.84.82-1.17c.24.46.48.95.91.95.34,0,.66-.24.82-.51-1.18-.32-1.74-2.04-1.74-4.35,0-.95.09-1.4.15-1.84.55.65.76,1.76.79,2.12.23-.19.34-.42.41-.63.45.55.96,1.3,1.08,1.56-.43,0-.95-.1-1.11-.1-.43,0-.53.25-.53.46,0,.32.33.62.56.83.2-.44,1.04-.37,1.04-.37.16,0,.25,0,.46.03-.02.12-.02.27-.02.39v.45c0,.52-.02.8-.4,1.15.07.05.27.21.56.21.59,0,.68-.43.68-1.36,0-.11,0-.1,0-.2.29.32.64.79.64,1.17,0,.08,0,.17-.03.27.47,0,.82-.48.82-.8,0-.49-.75-1.09-.98-1.36.04,0,.07,0,.08,0,.82,0,.98.27,1.06.48.22-.17.41-.5.41-.9,0-.23-.05-.49-.49-.49s-1.07.06-1.51.14c-.34-.47-1.01-1.39-1.33-2.11.13.02.31.04.59.04.14,0,.29-.02.38-.05-1.35-1.17-2.48-2.69-2.48-4.41,0-.27.06-.55.16-.85.04,0,.07-.01.11-.02l3.42,5.47c1.02,1.62,1.83,1.59,3.04,1.59-1-.76-1.67-1.75-1.98-2.25l-3.21-5.13c.18-.05.34-.12.51-.18l2.84,4.54c1.02,1.62,1.82,1.59,3.04,1.59-1.01-.78-1.66-1.75-1.98-2.25l-2.75-4.41c.16-.09.31-.18.46-.27l2.26,3.61c1.02,1.62,1.82,1.59,3.04,1.59-1.01-.77-1.66-1.74-1.98-2.25l-2.32-3.71c.14-.12.27-.25.39-.38l1.64,2.62c1.02,1.62,1.82,1.59,3.04,1.59-1-.77-1.66-1.75-1.98-2.25l-1.91-3.05c.1-.19.19-.38.26-.58l.96,1.53ZM43.67,61.27" fill="#1d1d1b"/><rect x="52.78" y="54.32" width="3.5" height="20" fill="#1d1d1b"/><rect x="52.78" y="74.22" width="3.5" height="20.1" fill="#e30613"/><rect x="52.78" y="94.32" width="3.5" height="20" fill="#f8d200"/><path d="M65.27,62.31v-3.56h2.72v-.83h-2.72v-3.06h2.95l.07-.83h-4.07v8.28h1.04ZM71.16,57.2c.61,0,.94.47.94,1.26,0,.18-.01.34-.02.42h-2.09c.05-1.08.49-1.68,1.18-1.68h0ZM73.11,61.77l-.36-.68c-.13.13-.53.5-1.21.5-.97,0-1.5-.64-1.56-1.98h2.94c.04-.28.07-.62.07-1.12,0-1.38-.67-2.09-1.76-2.09-1.2,0-2.2.91-2.2,2.95,0,2.17.91,3.1,2.37,3.1,1.09,0,1.56-.52,1.71-.68h0ZM76.3,61.59c-.67,0-1.27-.53-1.27-2.11s.71-2.21,1.61-2.21c.35,0,.58.09.75.2v3.55c-.13.19-.47.57-1.08.57h0ZM77.44,61.7h.02v.61h.89v-8.59l-.97.11v2.76c-.18-.07-.45-.14-.82-.14-1.23,0-2.55.74-2.55,3.07,0,2.1.93,2.94,2.02,2.94.91,0,1.3-.58,1.41-.76h0ZM81.71,57.2c.61,0,.93.47.93,1.26,0,.18-.01.34-.02.42h-2.09c.05-1.08.49-1.68,1.18-1.68h0ZM83.66,61.77l-.36-.68c-.13.13-.53.5-1.21.5-.97,0-1.5-.64-1.56-1.98h2.94c.04-.28.07-.62.07-1.12,0-1.38-.67-2.09-1.76-2.09-1.2,0-2.2.91-2.2,2.95,0,2.17.91,3.1,2.36,3.1,1.09,0,1.56-.52,1.71-.68h0ZM87.48,56.54c-.09-.03-.25-.09-.53-.09-.73,0-1.04.43-1.21.89h-.02v-.78h-.89v5.76h.97v-4.22c.14-.39.47-.78,1.08-.78.26,0,.43.07.48.09l.12-.86ZM90.63,59.07h-.3c-1.31,0-2.4.45-2.4,1.78,0,.94.66,1.61,1.53,1.61.73,0,1.08-.49,1.21-.78h.02c.02.29.03.47.04.64h.92c-.02-.16-.07-.71-.07-1.2v-2.63c0-1.45-.63-2.08-1.8-2.08-.93,0-1.48.44-1.73.7l.41.65c.21-.2.6-.52,1.18-.52.62,0,.98.31.98,1.29v.55ZM90.63,59.79v1.27c-.12.18-.4.57-.96.57-.48,0-.77-.3-.77-.89,0-.63.49-.9,1.41-.93h.31ZM94.01,53.72l-.97.11v7.22c0,1.02.45,1.37,1.09,1.37.43,0,.68-.11.78-.16l-.09-.72c-.06.02-.18.07-.36.07-.34,0-.46-.17-.46-.65v-7.25ZM104.34,54.03l-1.95,5.73c-.18.53-.34,1.05-.35,1.41h-.02c-.02-.36-.18-.9-.36-1.43l-1.96-5.71h-1.16v8.28h1.01v-3.94c0-1-.01-1.95-.05-2.33h.04c.07.36.36,1.28.67,2.22l1.37,4.04h.83l1.37-4.04c.31-.94.59-1.86.67-2.22h.04c-.04.35-.05,1.33-.05,2.33v3.94h1.01v-8.28h-1.09ZM107.62,55.16c.38,0,.65-.29.65-.69s-.27-.68-.65-.68-.66.29-.66.68.27.69.66.69h0ZM108.1,56.55h-.97v5.76h.97v-5.76ZM111.74,57.23c.67,0,1,.4,1,1.37v3.71h.97v-3.78c0-1.56-.64-2.12-1.68-2.12-.9,0-1.41.59-1.52.79h-.02v-.65h-.89v5.76h.97v-4.44c.19-.24.59-.64,1.18-.64h0ZM115.65,55.16c.38,0,.65-.29.65-.69s-.27-.68-.65-.68-.66.29-.66.68.27.69.66.69h0ZM116.13,56.55h-.97v5.76h.97v-5.76ZM120.52,57.02c-.19-.19-.57-.61-1.46-.61-.94,0-1.67.64-1.67,1.49,0,.79.43,1.26,1.15,1.72l.36.23c.55.35.84.54.84,1.09,0,.37-.31.66-.89.66-.62,0-.99-.38-1.16-.57l-.47.77c.23.24.69.66,1.62.66,1.18,0,1.84-.71,1.84-1.62,0-.85-.48-1.32-1.26-1.79l-.36-.22c-.52-.31-.76-.55-.76-.98,0-.34.28-.61.79-.61s.88.34,1.01.48l.42-.7ZM124.43,62.2l-.13-.78c-.1.06-.31.17-.6.17-.49,0-.68-.24-.68-1.06v-3.19h1.26l.12-.79h-1.38v-1.61h-.86l-.11,1.61-.69.14v.65h.69v3.32c0,1.27.5,1.79,1.49,1.79.52,0,.82-.19.9-.25h0ZM128.03,56.54c-.09-.03-.25-.09-.53-.09-.73,0-1.04.43-1.21.89h-.02v-.78h-.89v5.76h.97v-4.22c.14-.39.47-.78,1.08-.78.26,0,.43.07.48.09l.12-.86ZM131.75,56.55l-.82,3.21c-.17.64-.31,1.22-.34,1.67h-.02c-.02-.45-.19-1.04-.38-1.68l-.9-3.19h-1.04l1.86,5.75-.09.3c-.25.89-.56,1.32-1.25,1.32-.2,0-.34-.05-.41-.09v.84c.06.04.23.11.47.11,1.14,0,1.64-.73,2.07-2.14l1.8-6.1h-.96ZM131.75,56.55" fill="#1d1d1b"/><path d="M63.76,71.43c0,2.16.97,3.02,2.24,3.02s2.31-.88,2.31-3.02-.97-3.03-2.24-3.03-2.3.9-2.3,3.03h0ZM67.3,71.43c0,1.52-.47,2.16-1.26,2.16s-1.27-.64-1.27-2.16.47-2.2,1.26-2.2,1.27.67,1.27,2.2h0ZM71.89,69.34l.12-.79h-1.29v-1.03c0-.75.25-1.01.71-1.01.25,0,.43.1.53.16l.2-.81c-.09-.06-.41-.21-.82-.21-.85,0-1.59.5-1.59,1.76v1.15l-.7.13v.65h.7v4.97h.97v-4.97h1.18ZM78.74,68.4c0,1.08-.6,1.71-1.86,1.71h-.46v-3.25h.5c1.23,0,1.81.5,1.81,1.55h0ZM76.42,70.94h.46c.19,0,.38-.01.56-.02l1.71,3.39h1.23l-1.95-3.65c.95-.41,1.41-1.23,1.41-2.32,0-1.52-.93-2.32-2.93-2.32h-1.55v8.28h1.04v-3.37ZM83.12,69.2c.61,0,.94.47.94,1.26,0,.18-.02.34-.03.42h-2.09c.05-1.08.49-1.68,1.18-1.68h0ZM85.06,73.77l-.36-.68c-.13.13-.53.5-1.21.5-.97,0-1.5-.64-1.56-1.98h2.94c.04-.28.07-.62.07-1.12,0-1.38-.67-2.09-1.77-2.09-1.2,0-2.2.91-2.2,2.95,0,2.17.91,3.1,2.36,3.1,1.09,0,1.56-.52,1.72-.68h0ZM89.14,69.02c-.19-.19-.57-.61-1.46-.61-.93,0-1.67.64-1.67,1.49,0,.79.43,1.26,1.15,1.72l.36.23c.55.35.84.54.84,1.09,0,.37-.31.66-.89.66-.62,0-.99-.38-1.16-.57l-.47.77c.23.24.7.66,1.62.66,1.18,0,1.84-.71,1.84-1.62,0-.85-.48-1.32-1.26-1.79l-.36-.22c-.52-.31-.75-.55-.75-.98,0-.34.27-.61.79-.61s.88.34,1.01.48l.42-.7ZM92.31,69.2c.61,0,.94.47.94,1.26,0,.18-.01.34-.02.42h-2.09c.05-1.08.49-1.68,1.18-1.68h0ZM94.25,73.77l-.36-.68c-.13.13-.53.5-1.22.5-.97,0-1.5-.64-1.56-1.98h2.94c.04-.28.07-.62.07-1.12,0-1.38-.67-2.09-1.77-2.09-1.2,0-2.19.91-2.19,2.95,0,2.17.91,3.1,2.36,3.1,1.09,0,1.56-.52,1.72-.68h0ZM97.79,71.07h-.3c-1.31,0-2.4.45-2.4,1.78,0,.94.66,1.61,1.54,1.61.73,0,1.08-.49,1.21-.78h.02c.01.29.03.47.04.64h.92c-.02-.16-.07-.71-.07-1.2v-2.63c0-1.45-.62-2.08-1.8-2.08-.93,0-1.48.44-1.73.7l.41.65c.21-.2.6-.52,1.18-.52.62,0,.98.31.98,1.29v.55ZM97.79,71.79v1.27c-.12.18-.4.57-.96.57-.48,0-.77-.3-.77-.89,0-.63.49-.9,1.41-.93h.31ZM102.87,68.54c-.09-.03-.25-.09-.53-.09-.73,0-1.04.43-1.21.89h-.02v-.78h-.89v5.76h.97v-4.22c.14-.39.47-.78,1.08-.78.26,0,.43.07.48.09l.12-.86ZM107.18,68.98c-.18-.2-.59-.58-1.47-.58-1.14,0-2.41.8-2.41,3.02s1.02,3.03,2.3,3.03c.9,0,1.34-.42,1.5-.6l-.4-.67c-.12.13-.42.41-1.01.41-.83,0-1.39-.55-1.39-2.25,0-1.52.65-2.11,1.48-2.11.57,0,.87.32.98.43l.41-.68ZM110.34,69.23c.67,0,1,.4,1,1.37v3.71h.97v-3.78c0-1.52-.64-2.12-1.64-2.12-.92,0-1.36.55-1.48.73h-.02v-3.42l-.97.11v8.48h.97v-4.44c.19-.24.59-.64,1.18-.64h0ZM113.63,75.99c.64-.23,1.39-.74,1.39-1.84,0-.79-.32-1.18-.79-1.18-.34,0-.62.21-.62.65s.29.68.66.68h.04c0,.7-.37,1.01-.88,1.26l.2.42ZM123.18,66.03h-5.53v.83h2.21v7.45h1.05v-7.45h2.21l.07-.83ZM125.01,69.2c.61,0,.94.47.94,1.26,0,.18-.01.34-.02.42h-2.09c.05-1.08.49-1.68,1.18-1.68h0ZM126.95,73.77l-.36-.68c-.13.13-.53.5-1.22.5-.97,0-1.5-.64-1.56-1.98h2.94c.03-.28.07-.62.07-1.12,0-1.38-.67-2.09-1.76-2.09-1.2,0-2.2.91-2.2,2.95,0,2.17.91,3.1,2.37,3.1,1.09,0,1.56-.52,1.72-.68h0ZM131.74,68.98c-.18-.2-.59-.58-1.46-.58-1.14,0-2.41.8-2.41,3.02s1.02,3.03,2.31,3.03c.9,0,1.34-.42,1.5-.6l-.4-.67c-.12.13-.42.41-1.01.41-.83,0-1.4-.55-1.4-2.25,0-1.52.65-2.11,1.48-2.11.58,0,.88.32.98.43l.41-.68ZM134.91,69.23c.67,0,1,.4,1,1.37v3.71h.97v-3.78c0-1.52-.63-2.12-1.64-2.12-.93,0-1.36.55-1.48.73h-.02v-3.42l-.97.11v8.48h.97v-4.44c.19-.24.59-.64,1.18-.64h0ZM140.48,69.23c.67,0,1,.4,1,1.37v3.71h.97v-3.78c0-1.56-.65-2.12-1.68-2.12-.9,0-1.42.59-1.52.79h-.03v-.65h-.89v5.76h.97v-4.44c.19-.24.59-.64,1.18-.64h0ZM143.63,71.43c0,2.16.97,3.02,2.24,3.02s2.3-.88,2.3-3.02-.97-3.03-2.24-3.03-2.31.9-2.31,3.03h0ZM147.17,71.43c0,1.52-.47,2.16-1.26,2.16s-1.27-.64-1.27-2.16.47-2.2,1.26-2.2,1.27.67,1.27,2.2h0ZM150.36,65.72l-.97.11v7.22c0,1.02.44,1.37,1.09,1.37.43,0,.68-.11.78-.16l-.09-.72c-.06.02-.18.07-.36.07-.34,0-.46-.17-.46-.65v-7.25ZM151.87,71.43c0,2.16.97,3.02,2.25,3.02s2.3-.88,2.3-3.02-.97-3.03-2.25-3.03-2.3.9-2.3,3.03h0ZM155.42,71.43c0,1.52-.47,2.16-1.26,2.16s-1.27-.64-1.27-2.16.47-2.2,1.26-2.2,1.27.67,1.27,2.2h0ZM160.38,70.34c0,.83-.45,1.15-1.01,1.15s-1-.32-1-1.15.47-1.15,1.02-1.15.98.33.98,1.15h0ZM161.8,74.75c0-1.09-.82-1.53-1.91-1.53h-.74c-.42,0-.59-.17-.59-.41,0-.3.27-.46.46-.54.1.01.2.01.3.01,1.13,0,1.99-.73,1.99-1.96,0-.38-.09-.74-.27-1.03h.72l.13-.76h-1.75c-.24-.09-.49-.14-.76-.14-1.08,0-1.96.64-1.96,1.93,0,.91.39,1.49.98,1.77v.02c-.15.07-.7.31-.7.93,0,.36.13.62.38.81v.02c-.27.14-.96.55-.96,1.41,0,1,.66,1.56,1.88,1.56,1.7,0,2.78-.86,2.78-2.1h0ZM159.09,76.02c-.68,0-1.02-.31-1.02-.92,0-.58.31-.85.59-1.01.13.02.29.04.45.04h.73c.59,0,.97.22.97.77,0,.59-.54,1.13-1.71,1.13h0ZM165.76,68.55l-.82,3.21c-.17.64-.31,1.22-.34,1.67h-.02c-.02-.45-.19-1.04-.38-1.68l-.9-3.19h-1.04l1.86,5.75-.09.3c-.25.89-.56,1.32-1.25,1.32-.2,0-.34-.05-.41-.09v.84c.06.04.23.11.46.11,1.14,0,1.65-.73,2.07-2.14l1.8-6.1h-.96ZM165.76,68.55" fill="#1d1d1b"/><path d="M66.39,83.07h-.3c-1.31,0-2.4.45-2.4,1.78,0,.94.66,1.61,1.54,1.61.73,0,1.08-.49,1.21-.78h.02c.01.29.02.47.04.64h.93c-.02-.16-.07-.71-.07-1.2v-2.63c0-1.45-.62-2.08-1.8-2.08-.93,0-1.48.44-1.73.7l.41.65c.21-.2.6-.52,1.18-.52.62,0,.99.31.99,1.29v.55ZM66.39,83.79v1.27c-.12.18-.4.57-.96.57-.48,0-.77-.3-.77-.89,0-.63.49-.9,1.42-.93h.31ZM70.96,81.23c.67,0,1,.4,1,1.37v3.71h.97v-3.78c0-1.56-.65-2.12-1.68-2.12-.9,0-1.42.59-1.52.79h-.03v-.65h-.89v5.76h.97v-4.44c.19-.24.59-.64,1.18-.64h0ZM76.4,85.59c-.67,0-1.27-.53-1.27-2.11s.71-2.21,1.61-2.21c.35,0,.58.09.74.2v3.55c-.13.19-.47.57-1.08.57h0ZM77.53,85.7h.03v.61h.89v-8.59l-.97.11v2.76c-.18-.07-.45-.14-.82-.14-1.22,0-2.54.74-2.54,3.07,0,2.1.92,2.94,2.02,2.94.91,0,1.3-.58,1.4-.76h0ZM86.25,78.51c-.18-.14-.71-.62-1.81-.62-1.3,0-2.13.82-2.13,1.89,0,1.14.53,1.69,1.44,2.46l.67.57c.69.59,1.03.97,1.03,1.69,0,.56-.46,1.03-1.27,1.03s-1.4-.53-1.61-.72l-.42.91c.24.22.86.75,2.05.75,1.49,0,2.31-.85,2.31-2.11,0-1.08-.61-1.73-1.39-2.38l-.67-.55c-.76-.61-1.1-1.02-1.1-1.67,0-.52.38-.96,1.09-.96.76,0,1.25.38,1.38.52l.43-.79ZM89.51,85.55c-.4,0-.68-.12-.86-.25v-3.54c.18-.21.53-.53,1.13-.53.71,0,1.22.57,1.22,2.11,0,1.67-.6,2.21-1.49,2.21h0ZM89.51,86.42c1.31,0,2.5-.82,2.5-3.15,0-2.03-.78-2.87-1.97-2.87-.89,0-1.31.5-1.45.76h-.02v-.61h-.89v8.16h.97v-2.43c.18.07.47.15.86.15h0ZM95.6,83.07h-.3c-1.31,0-2.4.45-2.4,1.78,0,.94.66,1.61,1.54,1.61.73,0,1.08-.49,1.21-.78h.02c.01.29.02.47.04.64h.93c-.02-.16-.07-.71-.07-1.2v-2.63c0-1.45-.62-2.08-1.8-2.08-.93,0-1.48.44-1.73.7l.41.65c.21-.2.6-.52,1.18-.52.62,0,.98.31.98,1.29v.55ZM95.6,83.79v1.27c-.12.18-.4.57-.96.57-.48,0-.77-.3-.77-.89,0-.63.49-.9,1.42-.93h.31ZM101.63,80.98c-.18-.2-.59-.58-1.47-.58-1.14,0-2.41.8-2.41,3.02s1.02,3.03,2.3,3.03c.9,0,1.34-.42,1.5-.6l-.4-.67c-.12.13-.42.41-1.01.41-.83,0-1.39-.55-1.39-2.25,0-1.52.65-2.11,1.48-2.11.57,0,.88.32.99.43l.41-.68ZM104.43,81.2c.61,0,.93.47.93,1.26,0,.18-.01.34-.02.42h-2.09c.05-1.08.49-1.68,1.18-1.68h0ZM106.37,85.77l-.36-.68c-.13.13-.53.5-1.21.5-.97,0-1.5-.64-1.56-1.98h2.94c.04-.28.07-.62.07-1.12,0-1.38-.67-2.09-1.77-2.09-1.2,0-2.2.91-2.2,2.95,0,2.17.91,3.1,2.36,3.1,1.09,0,1.56-.52,1.72-.68h0ZM106.37,85.77" fill="#1d1d1b"/></g><g id="b"><path d="M32.18,24.6l-2.29,6.69h-.97l-1.2-3.83h-.02l-1.34,3.83h-.96l-2.33-6.69-.45-.1c-.11-.03-.15-.07-.15-.14,0-.09.07-.22.12-.31h2.56s.01.06.01.12c0,.17-.08.3-.36.37l-.43.09,1.69,5.42h.03l1.27-3.62-.56-1.82-.44-.1c-.1-.03-.15-.07-.15-.14,0-.09.07-.22.12-.31h2.55s.01.06.01.12c0,.17-.08.3-.36.37l-.47.09,1.51,5.43h.03l1.79-5.44-.74-.14c-.1-.02-.15-.05-.15-.12,0-.09.09-.27.12-.31h2.15s.01.06.01.12c0,.19-.08.3-.36.38l-.26.06Z" fill="#1d1d1b"/><path d="M34.93,30.72l.62.14c.11.02.15.05.15.14,0,.1-.08.26-.11.29h-2.4s-.01-.06-.01-.09c0-.19.13-.27.33-.35l.37-.13v-3.88l-.75-.12s-.01-.06-.01-.11c0-.18.14-.3.39-.33l1.43-.14v4.57ZM34.4,25.11c-.39,0-.68-.26-.68-.67s.29-.67.68-.67.69.27.69.67-.31.67-.69.67Z" fill="#1d1d1b"/><path d="M39.25,26.79h-1.44v3.07c0,.47.15.86.67.86.41,0,.75-.18.83-.25.05.08.09.24.09.35s-.37.6-1.32.6-1.33-.56-1.33-1.36v-3.25h-.79s-.01-.06-.01-.09c0-.2.13-.31.33-.36l.51-.13.24-1.42h.78v1.42h1.55l-.12.58Z" fill="#1d1d1b"/><path d="M41.78,26.84h.02c.21-.25.71-.76,1.62-.76,1.05,0,1.65.62,1.65,1.85v2.78l.61.14c.1.02.15.05.15.14,0,.1-.08.26-.1.29h-2.38s-.01-.06-.01-.09c0-.19.13-.28.33-.35l.35-.13v-2.66c0-.89-.48-1.17-1.02-1.17-.65,0-1,.28-1.2.48v3.34l.59.14c.1.02.15.05.15.14,0,.1-.07.26-.1.29h-2.38s-.01-.06-.01-.09c0-.19.13-.28.33-.35l.37-.13v-6.37l-.75-.1s-.01-.07-.01-.12c0-.18.14-.3.39-.33l1.44-.14v3.18Z" fill="#1d1d1b"/><path d="M51.5,26.79h-1.28v3.93l.71.14c.1.02.15.05.15.14,0,.1-.07.26-.1.29h-2.5s-.01-.06-.01-.09c0-.19.13-.27.33-.35l.36-.13v-3.93h-.78s-.01-.06-.01-.09c0-.2.13-.3.33-.36l.46-.13v-.11c0-1.69,1.03-2.51,1.93-2.51.52,0,.73.23.73.56,0,.26-.16.41-.31.49-.09-.1-.37-.3-.69-.3-.45,0-.61.25-.61.87,0,.33.02,1,.02,1h1.4l-.12.58Z" fill="#1d1d1b"/><path d="M57.16,30.7l.77.1s.01.04.01.08c0,.19-.14.31-.39.34l-1.39.13v-.69h-.02c-.17.22-.63.76-1.55.76-1.12,0-1.65-.66-1.65-1.9v-2.68l-.75-.12s-.01-.06-.01-.11c0-.18.14-.3.39-.33l1.43-.14v3.31c0,.96.5,1.18.97,1.18.54,0,.89-.23,1.13-.5v-3.3l-.75-.12s-.01-.06-.01-.11c0-.18.14-.3.39-.33l1.43-.14v4.55Z" fill="#1d1d1b"/><path d="M63.7,30.72l.62.14c.1.02.15.05.15.14,0,.1-.08.26-.1.29h-2.38s-.01-.06-.01-.09c0-.19.13-.28.33-.35l.35-.13v-2.66c0-.89-.5-1.17-1.02-1.17-.6,0-.99.28-1.21.46v3.36l.6.14c.11.02.15.05.15.14,0,.1-.08.26-.11.29h-2.38s-.01-.06-.01-.09c0-.19.13-.27.33-.35l.37-.13v-3.88l-.75-.12s-.01-.06-.01-.11c0-.18.14-.3.39-.33l1.43-.14-.06.74h.03c.28-.3.76-.8,1.72-.8,1.03,0,1.6.66,1.6,1.85v2.78Z" fill="#1d1d1b"/><path d="M69.47,30.7l.77.1s.01.04.01.08c0,.19-.14.31-.39.34l-1.39.13v-.68h-.03c-.23.33-.67.75-1.49.75-1.03,0-1.99-.66-1.99-2.49,0-1.95,1.36-2.83,2.71-2.83.3,0,.57.05.75.09v-1.84l-.75-.1s-.01-.07-.01-.12c0-.18.14-.3.39-.33l1.43-.14v7.03ZM68.41,27.03c-.16-.15-.44-.31-.88-.31-.85,0-1.48.61-1.48,1.99s.59,1.9,1.29,1.9c.61,0,.93-.28,1.07-.44v-3.14Z" fill="#1d1d1b"/><path d="M72.72,30.72l.62.14c.11.02.15.05.15.14,0,.1-.08.26-.11.29h-2.4s-.01-.06-.01-.09c0-.19.13-.27.33-.35l.37-.13v-3.88l-.75-.12s-.01-.06-.01-.11c0-.18.14-.3.39-.33l1.43-.14v4.57ZM72.18,25.11c-.39,0-.68-.26-.68-.67s.29-.67.68-.67.69.27.69.67-.31.67-.69.67Z" fill="#1d1d1b"/><path d="M79.25,30.72l.62.14c.1.02.15.05.15.14,0,.1-.08.26-.1.29h-2.38s-.01-.06-.01-.09c0-.19.13-.28.33-.35l.35-.13v-2.66c0-.89-.5-1.17-1.02-1.17-.6,0-.99.28-1.21.46v3.36l.6.14c.11.02.15.05.15.14,0,.1-.08.26-.11.29h-2.38s-.01-.06-.01-.09c0-.19.13-.27.33-.35l.37-.13v-3.88l-.75-.12s-.01-.06-.01-.11c0-.18.14-.3.39-.33l1.43-.14-.06.74h.03c.28-.3.76-.8,1.72-.8,1.03,0,1.6.66,1.6,1.85v2.78Z" fill="#1d1d1b"/><path d="M85.29,26.81h-.85c.2.26.33.58.33.96,0,1.11-.92,1.74-2.07,1.74-.18,0-.34-.02-.49-.05-.15.08-.29.23-.29.47s.17.37.53.37h1.22c.97,0,1.51.44,1.51,1.2,0,1.05-1.03,2.02-2.8,2.02-1.29,0-1.92-.45-1.92-1.22s.58-1.08.96-1.2v-.02c-.27-.15-.43-.4-.43-.73,0-.61.56-.89.76-1v-.02c-.59-.26-.97-.8-.97-1.55,0-1.1.92-1.68,1.99-1.68.28,0,.56.04.82.13h1.84l-.12.6ZM82.27,31.24c-.15,0-.27-.01-.39-.02-.27.16-.45.42-.45.78,0,.55.34.89,1.1.89,1.02,0,1.65-.47,1.65-1.03,0-.43-.24-.62-.78-.62h-1.13ZM81.81,27.78c0,.83.42,1.15.94,1.15.57,0,.98-.33.98-1.15,0-.75-.41-1.12-.96-1.12s-.97.32-.97,1.12Z" fill="#1d1d1b"/><path d="M91.07,26.79h-1.28v3.93l.71.14c.1.02.15.05.15.14,0,.1-.07.26-.1.29h-2.5s-.01-.06-.01-.09c0-.19.13-.27.33-.35l.36-.13v-3.93h-.78s-.01-.06-.01-.09c0-.2.13-.3.33-.36l.46-.13v-.11c0-1.69,1.03-2.51,1.93-2.51.52,0,.73.23.73.56,0,.26-.16.41-.31.49-.09-.1-.37-.3-.69-.3-.45,0-.61.25-.61.87,0,.33.02,1,.02,1h1.4l-.12.58Z" fill="#1d1d1b"/><path d="M93.57,27.05h.03c.22-.36.61-.97,1.29-.97.49,0,.72.23.72.56,0,.23-.1.43-.19.54-.08-.04-.35-.16-.7-.16-.58,0-.87.23-1.09.54v3.16l.76.14c.1.02.15.05.15.14,0,.1-.08.26-.1.29h-2.54s-.01-.06-.01-.09c0-.19.13-.27.33-.35l.37-.13v-3.88l-.75-.12s-.01-.06-.01-.11c0-.18.14-.3.39-.33l1.43-.14-.06.9Z" fill="#1d1d1b"/><path d="M101.04,28.7c0,1.82-1.27,2.71-2.55,2.71s-2.39-.84-2.39-2.6,1.26-2.72,2.59-2.72,2.35.79,2.35,2.61ZM97.22,28.74c0,1.41.57,2.04,1.34,2.04s1.35-.61,1.35-2.02-.58-2.06-1.35-2.06-1.34.62-1.34,2.04Z" fill="#1d1d1b"/><path d="M109.86,30.72l.6.14c.1.02.15.05.15.14,0,.1-.07.26-.1.29h-2.37s-.01-.06-.01-.09c0-.19.13-.28.33-.35l.35-.13v-2.66c0-.91-.45-1.17-.94-1.17-.64,0-1,.27-1.24.49.03.17.05.35.05.55v2.78l.61.14c.1.02.15.05.15.14,0,.1-.07.26-.1.29h-2.38s0-.06,0-.09c0-.19.13-.28.33-.35l.35-.13v-2.66c0-.91-.44-1.17-.93-1.17-.59,0-.93.24-1.18.44v3.38l.6.14c.1.02.15.05.15.14,0,.1-.08.26-.1.29h-2.38s-.01-.06-.01-.09c0-.19.13-.27.33-.35l.37-.13v-3.88l-.75-.12s-.01-.06-.01-.11c0-.18.14-.3.39-.33l1.43-.14-.06.68h.03c.22-.24.73-.75,1.66-.75.64,0,1.11.29,1.35.85.28-.31.84-.85,1.78-.85,1.01,0,1.62.64,1.62,1.85v2.78Z" fill="#1d1d1b"/><path d="M116.34,26.79h-1.44v3.07c0,.47.15.86.67.86.41,0,.75-.18.83-.25.05.08.09.24.09.35s-.37.6-1.32.6-1.33-.56-1.33-1.36v-3.25h-.79s-.01-.06-.01-.09c0-.2.13-.31.33-.36l.51-.13.24-1.42h.78v1.42h1.55l-.12.58Z" fill="#1d1d1b"/><path d="M118.87,26.84h.02c.21-.25.71-.76,1.62-.76,1.05,0,1.65.62,1.65,1.85v2.78l.61.14c.11.02.15.05.15.14,0,.1-.08.26-.1.29h-2.38s-.01-.06-.01-.09c0-.19.13-.28.33-.35l.35-.13v-2.66c0-.89-.48-1.17-1.02-1.17-.65,0-1,.28-1.2.48v3.34l.59.14c.1.02.15.05.15.14,0,.1-.07.26-.1.29h-2.38s0-.06,0-.09c0-.19.13-.28.33-.35l.37-.13v-6.37l-.75-.1s-.01-.07-.01-.12c0-.18.14-.3.39-.33l1.44-.14v3.18Z" fill="#1d1d1b"/><path d="M124.51,28.77c.01,1.3.63,1.91,1.53,1.91.67,0,1.05-.26,1.31-.48.1.08.16.26.16.36,0,.26-.69.86-1.86.86-1.29,0-2.26-.73-2.26-2.56s1.1-2.76,2.3-2.76,1.79.72,1.79,1.77c0,.27-.05.64-.13.9h-2.85ZM126.34,28.21c.02-.09.05-.27.05-.45,0-.58-.21-1.07-.82-1.07s-.99.49-1.06,1.52h1.83Z" fill="#1d1d1b"/><path d="M129.2,27.38c-.37,0-.65-.25-.65-.64s.28-.65.65-.65.66.25.66.65-.29.64-.66.64ZM129.2,31.42c-.37,0-.65-.25-.65-.64s.28-.65.65-.65.66.25.66.65-.29.64-.66.64Z" fill="#1d1d1b"/></g></svg>
