<?xml version="1.0" encoding="UTF-8"?><svg xmlns="http://www.w3.org/2000/svg" viewBox="0 0 204.09 136.06"><g id="a"><path d="M37.45,61.61c.03-.22.04-.45.04-.69,0-.13,0-.28-.02-.45,2-.03,3.74-1.46,3.74-3.12,0-.84-.55-1.47-.86-1.85.07-.02.14-.03.21-.05.29.25,1.12,1.15,1.12,2.29,0,1.98-1.98,3.82-4.24,3.86M35.45,54.72c-.04-.22-.12-.42-.25-.59,0-.2.09-.4.42-.24-.17.18-.04.5-.04.5,0,0,.36-.17.29-.41.54.13.15.84-.41.74M34.98,55.73c-.07-.3-.22-.6-.42-.83-.18-.21-.46-.45-.86-.45-.18,0-.48.08-.67.16-.07-.13-.21-.44-.21-.58s.25-.29.71-.29c1.03,0,1.65.46,1.65,1.25,0,.28-.11.53-.21.75M37.63,69.03c.12,0,.18.02.25.05.3.81,1.44,2.33,1.49,2.4h.01s.01,0,.01,0c.28-.04,1-.15,1.6-.15h.02c.06,0,.14,0,.18.05.04.04.06.11.06.2,0,.15-.06.41-.14.51-.21-.23-.55-.33-1.09-.33-.17,0-.36.05-.46.08h-.04s-.05.02-.05.02l.31.32c.49.48.91.9.91,1.18,0,.17-.16.39-.31.48-.04-.51-.55-1.2-1.06-1.58l-.04-.04v.18c-.01.12-.02.3-.02.5,0,.97-.1,1.12-.44,1.12-.05,0-.13-.02-.18-.04.19-.23.26-.54.26-1.09v-.25s0-.2,0-.2c0-.23.02-.39.04-.52v-.07s-.04,0-.04,0c-.16-.02-.45-.06-.68-.06-.48,0-.81.05-1.04.27-.16-.13-.32-.34-.32-.48,0-.2.13-.22.29-.22.08,0,.16.02.27.03.21.03.52.08,1.16.08h.04v-.04c-.18-.46-.62-1.14-1.34-2.01.06-.24.12-.39.35-.39M31.46,71.43l-.02.04h.04c.64,0,.95-.05,1.16-.08.11-.01.19-.03.27-.03.16,0,.29.02.29.22,0,.14-.16.35-.32.48-.23-.22-.56-.27-1.04-.27-.22,0-.52.04-.68.06h-.02s-.03,0-.03,0v.07c.03.13.05.3.05.52v.2s0,.25,0,.25c0,.54.07.85.27,1.09-.05.02-.13.04-.18.04-.34,0-.44-.15-.44-1.12,0-.2,0-.38-.02-.5v-.18s-.05.04-.05.04c-.5.38-1.02,1.07-1.05,1.58-.15-.1-.32-.32-.32-.48,0-.28.42-.7.91-1.18l.28-.28.04-.04-.09-.02c-.11-.03-.3-.08-.46-.08-.54,0-.88.1-1.09.33-.08-.11-.14-.37-.14-.51,0-.1.02-.16.06-.2.05-.05.12-.05.19-.05h.01c.6,0,1.32.11,1.6.15h.02s0,0,0,0c.05-.07,1.2-1.59,1.49-2.4.07-.03.12-.05.25-.05.23,0,.29.15.35.39-.71.87-1.16,1.55-1.32,2.01M28.37,57.76c0-1.14.83-2.04,1.12-2.29.07.02.14.03.21.05-.31.38-.86,1.01-.86,1.85,0,1.67,1.78,3.12,3.8,3.12-.01.14-.02.29-.02.45,0,.25.01.47.04.69-2.28-.01-4.29-1.86-4.29-3.86M43.67,61.27c1.02,1.62,1.82,1.59,3.04,1.59-1-.77-1.66-1.75-1.98-2.25l-1.87-2.99c-.18-.92-.66-1.79-1.38-2.43.24-.09.44-.19.56-.28-1.22,0-2.43-.62-3.1-.62-.43,0-.7.26-.7.59.03.38.42.76,1.13.76.16,0,.37-.02.6-.06.39.54.7,1.03.7,1.73,0,1.31-1.57,2.33-3.15,2.33-.09,0-.18,0-.26-.01-.15-.32-.62-.87-.62-1.49,0-1.04.68-1.89.68-2.92,0-.64-.31-1.04-.43-1.2.2-.18.41-.4.46-.55-.11.05-.25.05-.44.05-.76,0-1.38-.19-1.98-.19-.34,0-.43.11-.43.21,0,.04,0,.07.02.09-.13-.05-.25-.08-.4-.11-.17-.04-.37-.05-.57-.05-.73,0-.99.3-.99.57,0,.22.18.63.38.94.29-.14.62-.24.78-.24.39,0,.73.37.92.81-.26.03-.31.04-.57.04-.71,0-1.2-.25-1.3-.25-.01,0-.03,0-.03.02,0,.1.2.36.6.51.52.2,1.31.27,1.44.3,0,.02-.13.27-.28.32-.03.01-.05.01-.09,0-.55-.11-.7-.15-1.39-.42-.02,0-.03,0-.03.03,0,.27.71.88,1.35,1.11-.53.68-1.2,1.38-1.51,2.44-.09,0-.18.01-.27.01-1.58,0-3.15-1.02-3.15-2.33,0-.7.31-1.19.7-1.73.23.04.43.06.6.06.71,0,1.11-.38,1.13-.76,0-.34-.27-.59-.7-.59-.67,0-1.88.62-3.1.62.12.09.32.19.56.28-.71.64-1.19,1.51-1.38,2.43l-1.87,2.99c-.32.5-.98,1.49-1.98,2.25,1.21,0,2.01.03,3.04-1.59l.96-1.53c.07.2.16.39.26.58l-1.91,3.05c-.32.51-.98,1.48-1.98,2.25,1.21,0,2.01.03,3.04-1.59l1.64-2.62c.12.13.25.26.39.38l-2.32,3.71c-.32.51-.97,1.48-1.98,2.25,1.21,0,2.01.03,3.03-1.59l2.26-3.61c.15.09.3.18.46.27l-2.76,4.41c-.32.5-.97,1.47-1.98,2.25,1.21,0,2.01.03,3.04-1.59l2.84-4.54c.17.06.34.13.51.18l-3.21,5.13c-.31.5-.98,1.49-1.98,2.25,1.21,0,2.01.03,3.03-1.59l3.42-5.47s.07,0,.11.02c.09.3.16.58.16.85,0,1.72-1.12,3.24-2.48,4.41.09.04.24.05.38.05.28,0,.46-.02.59-.04-.32.71-.99,1.64-1.33,2.11-.44-.08-1.09-.14-1.51-.14s-.49.26-.49.49c0,.4.19.72.41.9.08-.2.25-.48,1.06-.48.02,0,.05,0,.08,0-.24.27-.98.87-.98,1.36,0,.32.35.8.82.8-.03-.11-.03-.2-.03-.27,0-.39.35-.85.64-1.17,0,.1,0,.09,0,.2,0,.93.09,1.36.68,1.36.29,0,.49-.16.56-.21-.38-.35-.4-.63-.4-1.15,0-.14,0-.27,0-.45,0-.12,0-.28-.02-.39.21-.03.3-.03.46-.03,0,0,.84-.07,1.04.37.23-.21.56-.5.56-.83,0-.21-.1-.46-.54-.46-.16,0-.68.1-1.11.1.12-.26.63-1.01,1.08-1.56.07.21.17.44.41.63.04-.35.24-1.46.79-2.12.07.44.15.89.15,1.84,0,2.31-.56,4.02-1.74,4.35.15.27.48.51.82.51.43,0,.67-.49.91-.95.12.34.47,1.17.82,1.17s.69-.84.82-1.17c.24.46.48.95.91.95.34,0,.66-.24.82-.51-1.18-.32-1.74-2.04-1.74-4.35,0-.95.09-1.4.15-1.84.55.65.76,1.76.79,2.12.23-.19.34-.42.41-.63.45.55.96,1.3,1.08,1.56-.43,0-.95-.1-1.11-.1-.43,0-.53.25-.53.46,0,.32.33.62.56.83.2-.44,1.04-.37,1.04-.37.16,0,.25,0,.46.03-.02.12-.02.27-.02.39v.45c0,.52-.02.8-.4,1.15.07.05.27.21.56.21.59,0,.68-.43.68-1.36,0-.11,0-.1,0-.2.29.32.64.79.64,1.17,0,.08,0,.17-.03.27.47,0,.82-.48.82-.8,0-.49-.75-1.09-.98-1.36.04,0,.07,0,.08,0,.82,0,.98.27,1.06.48.22-.17.41-.5.41-.9,0-.23-.05-.49-.49-.49s-1.07.06-1.51.14c-.34-.47-1.01-1.39-1.33-2.11.13.02.31.04.59.04.14,0,.29-.02.38-.05-1.35-1.17-2.48-2.69-2.48-4.41,0-.27.06-.55.16-.85.04,0,.07-.01.11-.02l3.42,5.47c1.02,1.62,1.83,1.59,3.04,1.59-1-.76-1.67-1.75-1.98-2.25l-3.21-5.13c.18-.05.34-.12.51-.18l2.84,4.54c1.02,1.62,1.82,1.59,3.04,1.59-1.01-.78-1.66-1.75-1.98-2.25l-2.75-4.41c.16-.09.31-.18.46-.27l2.26,3.61c1.02,1.62,1.82,1.59,3.04,1.59-1.01-.77-1.66-1.74-1.98-2.25l-2.32-3.71c.14-.12.27-.25.39-.38l1.64,2.62c1.02,1.62,1.82,1.59,3.04,1.59-1-.77-1.66-1.75-1.98-2.25l-1.91-3.05c.1-.19.19-.38.26-.58l.96,1.53ZM43.67,61.27" fill="#1d1d1b"/><rect x="52.78" y="54.32" width="3.5" height="20" fill="#1d1d1b"/><rect x="52.78" y="74.22" width="3.5" height="20.1" fill="#e30613"/><rect x="52.78" y="94.32" width="3.5" height="20" fill="#f8d200"/><path d="M68.57,56.14c0-1.29-.78-2.11-2.75-2.11h-1.59v8.28h1.69c1.98,0,2.87-.95,2.87-2.25,0-1.1-.71-1.82-1.56-1.99v-.02c.72-.19,1.34-.75,1.34-1.91h0ZM67.52,56.18c0,.95-.59,1.54-1.7,1.54h-.54v-2.86h.55c1.16,0,1.69.57,1.69,1.32h0ZM67.67,59.99c0,.95-.53,1.45-1.75,1.45h-.65v-2.91h.71c1.08,0,1.69.57,1.69,1.45h0ZM73.19,61.66h.03v.65h.89v-5.76h-.97v4.41c-.19.24-.57.64-1.16.64-.65,0-.96-.39-.96-1.33v-3.71h-.97v3.78c0,1.56.64,2.12,1.66,2.12.88,0,1.4-.59,1.5-.79h0ZM77.74,57.23c.67,0,1,.4,1,1.37v3.71h.97v-3.78c0-1.56-.65-2.12-1.68-2.12-.9,0-1.41.59-1.52.79h-.02v-.65h-.89v5.76h.97v-4.44c.19-.24.59-.64,1.18-.64h0ZM83.18,61.59c-.67,0-1.27-.53-1.27-2.11s.71-2.21,1.61-2.21c.35,0,.58.09.75.2v3.55c-.13.19-.47.57-1.08.57h0ZM84.32,61.7h.02v.61h.89v-8.59l-.97.11v2.76c-.18-.07-.45-.14-.82-.14-1.22,0-2.54.74-2.54,3.07,0,2.1.92,2.94,2.02,2.94.91,0,1.29-.58,1.4-.76h0ZM88.59,57.2c.61,0,.93.47.93,1.26,0,.18-.01.34-.02.42h-2.09c.05-1.08.49-1.68,1.18-1.68h0ZM90.53,61.77l-.36-.68c-.13.13-.53.5-1.21.5-.97,0-1.5-.64-1.56-1.98h2.94c.04-.28.07-.62.07-1.12,0-1.38-.67-2.09-1.77-2.09-1.2,0-2.2.91-2.2,2.95,0,2.17.91,3.1,2.36,3.1,1.09,0,1.56-.52,1.71-.68h0ZM94.61,57.02c-.19-.19-.58-.61-1.46-.61-.93,0-1.67.64-1.67,1.49,0,.79.43,1.26,1.15,1.72l.36.23c.56.35.84.54.84,1.09,0,.37-.31.66-.89.66-.63,0-.98-.38-1.16-.57l-.47.77c.23.24.7.66,1.62.66,1.18,0,1.84-.71,1.84-1.62,0-.85-.48-1.32-1.26-1.79l-.36-.22c-.51-.31-.75-.55-.75-.98,0-.34.27-.61.79-.61.54,0,.88.34,1.01.48l.42-.7ZM98.07,57.27c.6,0,.86.4.86,1.33v3.71h.97v-3.86c0-.22-.01-.42-.05-.6.22-.25.58-.58,1.11-.58.65,0,1,.4,1,1.33v3.71h.97v-3.86c0-1.37-.6-2.04-1.75-2.04-.74,0-1.27.44-1.52.77-.26-.52-.74-.77-1.39-.77-.79,0-1.29.53-1.44.79h-.02v-.65h-.89v5.76h.97v-4.44c.17-.2.54-.6,1.19-.6h0ZM104.87,55.16c.39,0,.65-.29.65-.69s-.26-.68-.65-.68-.66.29-.66.68.26.69.66.69h0ZM105.35,56.55h-.97v5.76h.97v-5.76ZM108.99,57.23c.67,0,1,.4,1,1.37v3.71h.97v-3.78c0-1.56-.65-2.12-1.68-2.12-.9,0-1.42.59-1.52.79h-.02v-.65h-.89v5.76h.97v-4.44c.19-.24.59-.64,1.18-.64h0ZM112.9,55.16c.38,0,.65-.29.65-.69s-.27-.68-.65-.68-.66.29-.66.68.26.69.66.69h0ZM113.38,56.55h-.97v5.76h.97v-5.76ZM117.77,57.02c-.19-.19-.58-.61-1.46-.61-.94,0-1.67.64-1.67,1.49,0,.79.43,1.26,1.15,1.72l.36.23c.55.35.84.54.84,1.09,0,.37-.31.66-.89.66-.63,0-.98-.38-1.16-.57l-.47.77c.23.24.69.66,1.62.66,1.18,0,1.84-.71,1.84-1.62,0-.85-.48-1.32-1.26-1.79l-.36-.22c-.52-.31-.75-.55-.75-.98,0-.34.27-.61.79-.61.54,0,.88.34,1.01.48l.42-.7ZM121.68,62.2l-.13-.78c-.1.06-.31.17-.6.17-.49,0-.68-.24-.68-1.06v-3.19h1.26l.12-.79h-1.38v-1.61h-.86l-.11,1.61-.7.14v.65h.7v3.32c0,1.27.5,1.79,1.49,1.79.52,0,.82-.19.9-.25h0ZM124.42,57.2c.61,0,.93.47.93,1.26,0,.18-.01.34-.02.42h-2.09c.05-1.08.49-1.68,1.18-1.68h0ZM126.36,61.77l-.36-.68c-.13.13-.53.5-1.21.5-.97,0-1.5-.64-1.56-1.98h2.94c.04-.28.07-.62.07-1.12,0-1.38-.67-2.09-1.77-2.09-1.2,0-2.19.91-2.19,2.95,0,2.17.91,3.1,2.36,3.1,1.09,0,1.56-.52,1.71-.68h0ZM130.19,56.54c-.09-.03-.25-.09-.53-.09-.73,0-1.04.43-1.21.89h-.02v-.78h-.89v5.76h.97v-4.22c.14-.39.47-.78,1.08-.78.26,0,.43.07.48.09l.12-.86ZM131.52,55.16c.39,0,.65-.29.65-.69s-.26-.68-.65-.68-.66.29-.66.68.27.69.66.69h0ZM132,56.55h-.97v5.76h.97v-5.76ZM136.61,61.66h.02v.65h.89v-5.76h-.97v4.41c-.2.24-.58.64-1.16.64-.65,0-.96-.39-.96-1.33v-3.71h-.97v3.78c0,1.56.64,2.12,1.66,2.12.88,0,1.39-.59,1.5-.79h0ZM141.17,57.27c.6,0,.86.4.86,1.33v3.71h.97v-3.86c0-.22-.01-.42-.05-.6.22-.25.57-.58,1.1-.58.65,0,1,.4,1,1.33v3.71h.97v-3.86c0-1.37-.6-2.04-1.75-2.04-.75,0-1.27.44-1.52.77-.27-.52-.75-.77-1.39-.77-.79,0-1.28.53-1.44.79h-.02v-.65h-.89v5.76h.97v-4.44c.17-.2.54-.6,1.19-.6h0ZM141.17,57.27" fill="#1d1d1b"/><path d="M66.45,69.34l.12-.79h-1.3v-1.03c0-.75.25-1.01.71-1.01.25,0,.43.1.53.16l.21-.81c-.1-.06-.41-.21-.82-.21-.85,0-1.6.5-1.6,1.76v1.15l-.7.13v.65h.7v4.97h.97v-4.97h1.18ZM70.9,66.89c0-.37-.25-.61-.58-.61s-.57.24-.57.61.25.61.57.61.58-.24.58-.61h0ZM69.06,66.89c0-.37-.25-.61-.58-.61s-.57.24-.57.61.25.61.57.61.58-.24.58-.61h0ZM70.53,73.66h.03v.65h.89v-5.76h-.97v4.41c-.19.24-.57.64-1.16.64-.65,0-.96-.39-.96-1.33v-3.71h-.97v3.78c0,1.56.64,2.12,1.66,2.12.88,0,1.39-.59,1.5-.79h0ZM75.58,68.54c-.1-.03-.25-.09-.53-.09-.74,0-1.05.43-1.21.89h-.02v-.78h-.89v5.76h.97v-4.22c.15-.39.46-.78,1.08-.78.27,0,.43.07.48.09l.12-.86ZM79.94,74.31v-3.56h2.72v-.83h-2.72v-3.06h2.95l.07-.83h-4.07v8.28h1.04ZM83.69,71.43c0,2.16.97,3.02,2.25,3.02s2.3-.88,2.3-3.02-.97-3.03-2.25-3.03-2.3.9-2.3,3.03h0ZM87.23,71.43c0,1.52-.47,2.16-1.26,2.16s-1.27-.64-1.27-2.16.47-2.2,1.26-2.2,1.27.67,1.27,2.2h0ZM92.12,68.54c-.1-.03-.25-.09-.53-.09-.74,0-1.05.43-1.22.89h-.02v-.78h-.89v5.76h.97v-4.22c.14-.39.47-.78,1.08-.78.26,0,.43.07.48.09l.12-.86ZM95.81,69.02c-.19-.19-.57-.61-1.46-.61-.93,0-1.67.64-1.67,1.49,0,.79.43,1.26,1.15,1.72l.36.23c.56.35.84.54.84,1.09,0,.37-.31.66-.89.66-.62,0-.99-.38-1.17-.57l-.47.77c.23.24.69.66,1.62.66,1.18,0,1.84-.71,1.84-1.62,0-.85-.48-1.32-1.26-1.79l-.36-.22c-.52-.31-.75-.55-.75-.98,0-.34.27-.61.79-.61s.88.34,1.01.48l.42-.7ZM100.72,68.98c-.18-.2-.59-.58-1.46-.58-1.14,0-2.41.8-2.41,3.02s1.02,3.03,2.3,3.03c.9,0,1.34-.42,1.5-.6l-.39-.67c-.12.13-.42.41-1.01.41-.83,0-1.39-.55-1.39-2.25,0-1.52.65-2.11,1.48-2.11.58,0,.87.32.98.43l.41-.68ZM103.89,69.23c.67,0,1,.4,1,1.37v3.71h.97v-3.78c0-1.52-.63-2.12-1.64-2.12-.92,0-1.36.55-1.47.73h-.03v-3.42l-.97.11v8.48h.97v-4.44c.2-.24.59-.64,1.18-.64h0ZM110.43,73.66h.02v.65h.89v-5.76h-.97v4.41c-.19.24-.57.64-1.16.64-.64,0-.96-.39-.96-1.33v-3.71h-.97v3.78c0,1.56.64,2.12,1.66,2.12.88,0,1.39-.59,1.5-.79h0ZM114.98,69.23c.67,0,1,.4,1,1.37v3.71h.97v-3.78c0-1.56-.65-2.12-1.68-2.12-.9,0-1.42.59-1.52.79h-.02v-.65h-.89v5.76h.97v-4.44c.19-.24.59-.64,1.18-.64h0ZM121.13,70.34c0,.83-.46,1.15-1.01,1.15s-1-.32-1-1.15.47-1.15,1.02-1.15.99.33.99,1.15h0ZM122.55,74.75c0-1.09-.81-1.53-1.91-1.53h-.73c-.42,0-.59-.17-.59-.41,0-.3.28-.46.47-.54.1.01.19.01.3.01,1.13,0,1.99-.73,1.99-1.96,0-.38-.1-.74-.28-1.03h.72l.13-.76h-1.75c-.24-.09-.49-.14-.77-.14-1.08,0-1.96.64-1.96,1.93,0,.91.4,1.49.98,1.77v.02c-.14.07-.69.31-.69.93,0,.36.13.62.37.81v.02c-.26.14-.96.55-.96,1.41,0,1,.66,1.56,1.89,1.56,1.7,0,2.78-.86,2.78-2.1h0ZM119.84,76.02c-.68,0-1.02-.31-1.02-.92,0-.58.31-.85.59-1.01.13.02.29.04.44.04h.73c.59,0,.97.22.97.77,0,.59-.54,1.13-1.72,1.13h0ZM123.5,75.99c.64-.23,1.4-.74,1.4-1.84,0-.79-.33-1.18-.79-1.18-.34,0-.62.21-.62.65s.29.68.66.68h.03c0,.7-.37,1.01-.88,1.26l.2.42ZM133.05,66.03h-5.53v.83h2.21v7.45h1.04v-7.45h2.21l.07-.83ZM134.87,69.2c.61,0,.94.47.94,1.26,0,.18-.01.34-.02.42h-2.09c.05-1.08.49-1.68,1.18-1.68h0ZM136.82,73.77l-.36-.68c-.13.13-.53.5-1.21.5-.97,0-1.5-.64-1.56-1.98h2.94c.04-.28.07-.62.07-1.12,0-1.38-.67-2.09-1.76-2.09-1.2,0-2.2.91-2.2,2.95,0,2.17.91,3.1,2.36,3.1,1.09,0,1.56-.52,1.71-.68h0ZM141.61,68.98c-.18-.2-.59-.58-1.46-.58-1.14,0-2.41.8-2.41,3.02s1.02,3.03,2.3,3.03c.9,0,1.34-.42,1.5-.6l-.39-.67c-.12.13-.42.41-1.01.41-.83,0-1.39-.55-1.39-2.25,0-1.52.64-2.11,1.47-2.11.58,0,.88.32.98.43l.41-.68ZM144.77,69.23c.67,0,1,.4,1,1.37v3.71h.97v-3.78c0-1.52-.64-2.12-1.64-2.12-.93,0-1.36.55-1.48.73h-.02v-3.42l-.97.11v8.48h.97v-4.44c.19-.24.59-.64,1.17-.64h0ZM150.34,69.23c.67,0,1,.4,1,1.37v3.71h.97v-3.78c0-1.56-.65-2.12-1.68-2.12-.9,0-1.42.59-1.52.79h-.02v-.65h-.89v5.76h.97v-4.44c.19-.24.59-.64,1.18-.64h0ZM153.5,71.43c0,2.16.97,3.02,2.25,3.02s2.3-.88,2.3-3.02-.97-3.03-2.24-3.03-2.3.9-2.3,3.03h0ZM157.04,71.43c0,1.52-.46,2.16-1.26,2.16s-1.27-.64-1.27-2.16.47-2.2,1.26-2.2,1.27.67,1.27,2.2h0ZM160.23,65.72l-.97.11v7.22c0,1.02.44,1.37,1.09,1.37.43,0,.68-.11.78-.16l-.09-.72c-.06.02-.18.07-.36.07-.34,0-.45-.17-.45-.65v-7.25ZM161.74,71.43c0,2.16.97,3.02,2.24,3.02s2.31-.88,2.31-3.02-.97-3.03-2.25-3.03-2.3.9-2.3,3.03h0ZM165.28,71.43c0,1.52-.47,2.16-1.26,2.16s-1.27-.64-1.27-2.16.46-2.2,1.26-2.2,1.27.67,1.27,2.2h0ZM170.25,70.34c0,.83-.46,1.15-1.01,1.15s-1-.32-1-1.15.46-1.15,1.02-1.15.98.33.98,1.15h0ZM171.66,74.75c0-1.09-.82-1.53-1.91-1.53h-.74c-.42,0-.58-.17-.58-.41,0-.3.27-.46.47-.54.09.01.19.01.3.01,1.13,0,1.99-.73,1.99-1.96,0-.38-.09-.74-.27-1.03h.72l.13-.76h-1.75c-.24-.09-.49-.14-.77-.14-1.08,0-1.96.64-1.96,1.93,0,.91.39,1.49.98,1.77v.02c-.14.07-.7.31-.7.93,0,.36.13.62.37.81v.02c-.27.14-.96.55-.96,1.41,0,1,.66,1.56,1.88,1.56,1.71,0,2.79-.86,2.79-2.1h0ZM168.95,76.02c-.68,0-1.02-.31-1.02-.92,0-.58.31-.85.59-1.01.13.02.29.04.44.04h.73c.59,0,.97.22.97.77,0,.59-.54,1.13-1.71,1.13h0ZM173.24,67.16c.38,0,.64-.29.64-.69s-.26-.68-.64-.68-.66.29-.66.68.26.69.66.69h0ZM173.72,68.55h-.97v5.76h.97v-5.76ZM177.08,69.2c.61,0,.93.47.93,1.26,0,.18-.01.34-.02.42h-2.09c.05-1.08.49-1.68,1.18-1.68h0ZM179.02,73.77l-.36-.68c-.13.13-.53.5-1.21.5-.97,0-1.5-.64-1.56-1.98h2.94c.04-.28.07-.62.07-1.12,0-1.38-.67-2.09-1.76-2.09-1.2,0-2.2.91-2.2,2.95,0,2.17.91,3.1,2.36,3.1,1.09,0,1.56-.52,1.72-.68h0ZM179.02,73.77" fill="#1d1d1b"/><path d="M67.15,85.66h.02v.65h.89v-5.76h-.97v4.41c-.19.24-.58.64-1.16.64-.65,0-.96-.39-.96-1.33v-3.71h-.97v3.78c0,1.56.64,2.12,1.66,2.12.87,0,1.39-.59,1.5-.79h0ZM71.69,81.23c.67,0,1,.4,1,1.37v3.71h.97v-3.78c0-1.56-.65-2.12-1.68-2.12-.9,0-1.41.59-1.52.79h-.02v-.65h-.89v5.76h.97v-4.44c.19-.24.59-.64,1.18-.64h0ZM77.13,85.59c-.67,0-1.27-.53-1.27-2.11s.71-2.21,1.61-2.21c.35,0,.57.09.74.2v3.55c-.13.19-.46.57-1.08.57h0ZM78.27,85.7h.02v.61h.89v-8.59l-.97.11v2.76c-.18-.07-.44-.14-.81-.14-1.23,0-2.55.74-2.55,3.07,0,2.1.93,2.94,2.01,2.94.91,0,1.3-.58,1.41-.76h0ZM86.78,80.4c0,1.08-.6,1.71-1.86,1.71h-.46v-3.25h.5c1.23,0,1.81.5,1.81,1.55h0ZM84.46,82.94h.46c.19,0,.38-.01.56-.02l1.72,3.39h1.23l-1.94-3.65c.95-.41,1.42-1.23,1.42-2.32,0-1.52-.94-2.32-2.93-2.32h-1.55v8.28h1.04v-3.37ZM91.76,83.07h-.3c-1.31,0-2.4.45-2.4,1.78,0,.94.66,1.61,1.54,1.61.73,0,1.08-.49,1.21-.78h.02c.01.29.02.47.03.64h.93c-.02-.16-.07-.71-.07-1.2v-2.63c0-1.45-.63-2.08-1.8-2.08-.93,0-1.48.44-1.73.7l.41.65c.21-.2.6-.52,1.18-.52.62,0,.99.31.99,1.29v.55ZM91.76,83.79v1.27c-.12.18-.4.57-.96.57-.48,0-.77-.3-.77-.89,0-.63.49-.9,1.42-.93h.31ZM97.3,85.66h.02v.65h.89v-5.76h-.97v4.41c-.19.24-.58.64-1.16.64-.65,0-.96-.39-.96-1.33v-3.71h-.97v3.78c0,1.56.64,2.12,1.66,2.12.88,0,1.39-.59,1.5-.79h0ZM101.86,81.27c.6,0,.87.4.87,1.33v3.71h.97v-3.86c0-.22-.01-.42-.05-.6.21-.25.58-.58,1.11-.58.65,0,1,.4,1,1.33v3.71h.97v-3.86c0-1.37-.6-2.04-1.75-2.04-.74,0-1.27.44-1.52.77-.27-.52-.75-.77-1.39-.77-.79,0-1.28.53-1.44.79h-.02v-.65h-.89v5.76h.97v-4.44c.17-.2.54-.6,1.19-.6h0ZM110.6,81.34l.12-.79h-1.3v-1.03c0-.75.25-1.01.71-1.01.25,0,.43.1.53.16l.2-.81c-.09-.06-.41-.21-.82-.21-.85,0-1.59.5-1.59,1.76v1.15l-.7.13v.65h.7v4.97h.97v-4.97h1.18ZM113.86,83.07h-.3c-1.31,0-2.4.45-2.4,1.78,0,.94.66,1.61,1.54,1.61.74,0,1.08-.49,1.21-.78h.02c.01.29.02.47.04.64h.93c-.03-.16-.08-.71-.08-1.2v-2.63c0-1.45-.62-2.08-1.8-2.08-.92,0-1.48.44-1.73.7l.41.65c.22-.2.6-.52,1.18-.52.62,0,.98.31.98,1.29v.55ZM113.86,83.79v1.27c-.12.18-.39.57-.96.57-.48,0-.77-.3-.77-.89,0-.63.49-.9,1.42-.93h.31ZM118.43,81.23c.67,0,1,.4,1,1.37v3.71h.97v-3.78c0-1.52-.64-2.12-1.64-2.12-.93,0-1.36.55-1.48.73h-.02v-3.42l-.97.11v8.48h.97v-4.44c.19-.24.59-.64,1.18-.64h0ZM124.5,80.54c-.09-.03-.25-.09-.53-.09-.73,0-1.04.43-1.21.89h-.02v-.78h-.89v5.76h.97v-4.22c.15-.39.47-.78,1.08-.78.26,0,.43.07.48.09l.12-.86ZM127.96,86.2l-.13-.78c-.09.06-.31.17-.6.17-.49,0-.69-.24-.69-1.06v-3.19h1.26l.12-.79h-1.38v-1.61h-.86l-.11,1.61-.7.14v.65h.7v3.32c0,1.27.5,1.79,1.49,1.79.52,0,.81-.19.9-.25h0ZM127.96,86.2" fill="#1d1d1b"/></g><g id="b"><path d="M28.09,24.9c-.22-.15-.7-.33-1.28-.33-1.28,0-2.53.84-2.53,3.01s.98,3.14,2.36,3.14c.5,0,.9-.09,1.21-.21v-2.09l-.64-.15c-.11-.02-.15-.05-.15-.12,0-.09.07-.22.12-.31h2.39s.01.06.01.12c0,.17-.09.29-.36.37l-.24.06v2.19c-.28.25-1.06.82-2.6.82-1.85,0-3.3-1.14-3.3-3.7,0-2.73,2.03-3.8,3.77-3.8,1.11,0,1.67.31,2.02.47.03.32.06.97.06,1.05,0,.33-.09.54-.37.54-.08,0-.17-.02-.24-.04l-.23-1.03Z" fill="#1d1d1b"/><path d="M31.53,28.77c.01,1.3.63,1.91,1.53,1.91.67,0,1.05-.26,1.31-.48.11.08.16.26.16.36,0,.26-.69.86-1.86.86-1.29,0-2.26-.73-2.26-2.56s1.1-2.76,2.3-2.76,1.78.72,1.78,1.77c0,.27-.05.64-.13.9h-2.84ZM33.37,28.21c.02-.09.05-.27.05-.45,0-.58-.21-1.07-.82-1.07s-.99.49-1.06,1.52h1.83Z" fill="#1d1d1b"/><path d="M38.36,26.79h-1.28v3.93l.71.14c.1.02.15.05.15.14,0,.1-.07.26-.1.29h-2.5s-.01-.06-.01-.09c0-.19.13-.27.33-.35l.36-.13v-3.93h-.78s-.01-.06-.01-.09c0-.2.13-.3.33-.36l.46-.13v-.11c0-1.69,1.03-2.51,1.93-2.51.52,0,.73.23.73.56,0,.26-.16.41-.31.49-.09-.1-.37-.3-.69-.3-.45,0-.61.25-.61.87,0,.33.02,1,.02,1h1.4l-.12.58Z" fill="#1d1d1b"/><path d="M43.77,28.7c0,1.82-1.27,2.71-2.55,2.71s-2.39-.84-2.39-2.6,1.26-2.72,2.59-2.72,2.35.79,2.35,2.61ZM40.35,25.36c-.31,0-.57-.23-.57-.57,0-.36.25-.59.57-.59s.57.23.57.59c0,.34-.24.57-.57.57ZM39.94,28.74c0,1.41.57,2.04,1.34,2.04s1.35-.61,1.35-2.02-.58-2.06-1.35-2.06-1.34.62-1.34,2.04ZM42.25,25.36c-.34,0-.58-.23-.58-.57,0-.36.24-.59.58-.59.31,0,.56.23.56.59,0,.34-.24.57-.56.57Z" fill="#1d1d1b"/><path d="M46.13,27.05h.03c.22-.36.61-.97,1.29-.97.49,0,.72.23.72.56,0,.23-.11.43-.19.54-.08-.04-.35-.16-.7-.16-.58,0-.87.23-1.09.54v3.16l.76.14c.1.02.15.05.15.14,0,.1-.08.26-.1.29h-2.54s-.01-.06-.01-.09c0-.19.13-.27.33-.35l.37-.13v-3.88l-.75-.12s-.01-.06-.01-.11c0-.18.14-.3.39-.33l1.43-.14-.06.9Z" fill="#1d1d1b"/><path d="M53.17,30.7l.77.1s.01.04.01.08c0,.19-.14.31-.39.34l-1.39.13v-.68h-.03c-.23.33-.67.75-1.49.75-1.03,0-1.99-.66-1.99-2.49,0-1.95,1.36-2.83,2.71-2.83.3,0,.57.05.75.09v-1.84l-.75-.1s-.01-.07-.01-.12c0-.18.14-.3.39-.33l1.43-.14v7.03ZM52.11,27.03c-.16-.15-.44-.31-.88-.31-.85,0-1.48.61-1.48,1.99s.59,1.9,1.29,1.9c.61,0,.93-.28,1.07-.44v-3.14Z" fill="#1d1d1b"/><path d="M55.6,28.77c.01,1.3.63,1.91,1.53,1.91.67,0,1.05-.26,1.31-.48.1.08.16.26.16.36,0,.26-.69.86-1.86.86-1.29,0-2.26-.73-2.26-2.56s1.1-2.76,2.3-2.76,1.79.72,1.79,1.77c0,.27-.05.64-.13.9h-2.85ZM57.44,28.21c.02-.09.05-.27.05-.45,0-.58-.21-1.07-.82-1.07s-.99.49-1.06,1.52h1.83Z" fill="#1d1d1b"/><path d="M61.06,27.05h.03c.22-.36.61-.97,1.29-.97.49,0,.72.23.72.56,0,.23-.11.43-.19.54-.08-.04-.35-.16-.7-.16-.58,0-.87.23-1.09.54v3.16l.76.14c.1.02.15.05.15.14,0,.1-.08.26-.1.29h-2.54s-.01-.06-.01-.09c0-.19.13-.27.33-.35l.37-.13v-3.88l-.75-.12s-.01-.06-.01-.11c0-.18.14-.3.39-.33l1.43-.14-.06.9Z" fill="#1d1d1b"/><path d="M66.99,26.79h-1.44v3.07c0,.47.15.86.67.86.41,0,.75-.18.83-.25.05.08.09.24.09.35s-.37.6-1.32.6-1.33-.56-1.33-1.36v-3.25h-.79s-.01-.06-.01-.09c0-.2.13-.31.33-.36l.51-.13.24-1.42h.78v1.42h1.55l-.12.58Z" fill="#1d1d1b"/><path d="M74.36,30.7l.77.1s.01.04.01.08c0,.19-.14.31-.39.34l-1.39.13v-.68h-.03c-.23.33-.67.75-1.49.75-1.03,0-1.99-.66-1.99-2.49,0-1.95,1.36-2.83,2.71-2.83.3,0,.57.05.75.09v-1.84l-.75-.1s-.01-.07-.01-.12c0-.18.14-.3.39-.33l1.43-.14v7.03ZM73.3,27.03c-.16-.15-.44-.31-.88-.31-.85,0-1.48.61-1.48,1.99s.59,1.9,1.29,1.9c.61,0,.93-.28,1.07-.44v-3.14Z" fill="#1d1d1b"/><path d="M80.36,30.7l.77.1s.01.04.01.08c0,.19-.14.31-.39.34l-1.39.13v-.69h-.02c-.17.22-.63.76-1.55.76-1.12,0-1.65-.66-1.65-1.9v-2.68l-.75-.12s-.01-.06-.01-.11c0-.18.14-.3.39-.33l1.43-.14v3.31c0,.96.5,1.18.97,1.18.54,0,.89-.23,1.13-.5v-3.3l-.75-.12s-.01-.06-.01-.11c0-.18.14-.3.39-.33l1.43-.14v4.55Z" fill="#1d1d1b"/><path d="M83.55,27.05h.03c.22-.36.61-.97,1.29-.97.49,0,.72.23.72.56,0,.23-.11.43-.19.54-.08-.04-.35-.16-.7-.16-.58,0-.87.23-1.09.54v3.16l.76.14c.1.02.15.05.15.14,0,.1-.08.26-.1.29h-2.54s-.01-.06-.01-.09c0-.19.13-.27.33-.35l.37-.13v-3.88l-.75-.12s-.01-.06-.01-.11c0-.18.14-.3.39-.33l1.43-.14-.06.9Z" fill="#1d1d1b"/><path d="M88.51,26.72c-.7,0-1.31.5-1.31,1.88s.51,2.09,1.5,2.09c.65,0,1.03-.34,1.2-.5.09.09.17.26.17.36,0,.26-.58.87-1.73.87-1.36,0-2.25-.86-2.25-2.59s1.19-2.73,2.6-2.73c1.15,0,1.45.57,1.45.87,0,.28-.14.55-.54.63-.16-.37-.4-.87-1.09-.87Z" fill="#1d1d1b"/><path d="M92.51,26.84h.02c.21-.25.71-.76,1.62-.76,1.05,0,1.65.62,1.65,1.85v2.78l.61.14c.1.02.15.05.15.14,0,.1-.08.26-.1.29h-2.38s-.01-.06-.01-.09c0-.19.13-.28.33-.35l.35-.13v-2.66c0-.89-.48-1.17-1.02-1.17-.65,0-1,.28-1.2.48v3.34l.59.14c.11.02.15.05.15.14,0,.1-.07.26-.11.29h-2.38s-.01-.06-.01-.09c0-.19.13-.28.33-.35l.37-.13v-6.37l-.75-.1s-.01-.07-.01-.12c0-.18.14-.3.39-.33l1.44-.14v3.18Z" fill="#1d1d1b"/><path d="M98.08,27.38c-.37,0-.65-.25-.65-.64s.28-.65.65-.65.66.25.66.65-.29.64-.66.64ZM98.08,31.42c-.37,0-.65-.25-.65-.64s.28-.65.65-.65.66.25.66.65-.29.64-.66.64Z" fill="#1d1d1b"/></g></svg>
