<?xml version="1.0" encoding="UTF-8"?><svg id="a" xmlns="http://www.w3.org/2000/svg" viewBox="0 0 921.47 221.06"><rect x="10" y="10" width="294.95" height="200.28" style="fill:#fff; stroke-width:0px;"/><rect x="15.68" y="15.49" width="283.6" height="189.07" style="fill:#039; stroke-width:0px;"/><polyline points="151.43 56.69 157.42 52.32 163.4 56.69 161.13 49.62 167.2 45.26 159.71 45.26 157.42 38.11 155.13 45.27 147.64 45.26 153.71 49.62 151.43 56.69" style="fill:#fc0; stroke-width:0px;"/><polyline points="120.47 65.01 126.45 60.64 132.43 65.01 130.16 57.94 136.23 53.58 128.74 53.58 126.45 46.42 124.15 53.59 116.66 53.58 122.74 57.94 120.47 65.01" style="fill:#fc0; stroke-width:0px;"/><polyline points="103.79 69.13 101.5 76.3 94.01 76.29 100.08 80.66 97.81 87.72 103.79 83.35 109.77 87.72 107.5 80.66 113.57 76.29 106.08 76.29 103.79 69.13" style="fill:#fc0; stroke-width:0px;"/><polyline points="95.48 114.28 101.46 118.65 99.18 111.59 105.26 107.22 97.77 107.22 95.48 100.06 93.18 107.23 85.69 107.22 91.77 111.59 89.49 118.65 95.48 114.28" style="fill:#fc0; stroke-width:0px;"/><polyline points="106.08 138.24 103.79 131.09 101.5 138.25 94.01 138.24 100.08 142.61 97.81 149.67 103.79 145.3 109.77 149.67 107.5 142.61 113.57 138.24 106.08 138.24" style="fill:#fc0; stroke-width:0px;"/><polyline points="128.79 160.94 126.49 153.8 124.2 160.95 116.71 160.94 122.79 165.31 120.51 172.37 126.5 168.01 132.48 172.37 130.2 165.31 136.28 160.94 128.79 160.94" style="fill:#fc0; stroke-width:0px;"/><polyline points="159.72 169.17 157.42 162.02 155.13 169.18 147.64 169.17 153.72 173.54 151.44 180.6 157.43 176.23 163.41 180.6 161.13 173.54 167.21 169.17 159.72 169.17" style="fill:#fc0; stroke-width:0px;"/><polyline points="190.65 160.94 188.36 153.8 186.06 160.95 178.58 160.94 184.65 165.31 182.37 172.37 188.36 168.01 194.34 172.37 192.06 165.31 198.14 160.94 190.65 160.94" style="fill:#fc0; stroke-width:0px;"/><polyline points="213.36 138.24 211.06 131.09 208.76 138.25 201.28 138.24 207.36 142.61 205.08 149.67 211.06 145.3 217.04 149.67 214.76 142.61 220.84 138.24 213.36 138.24" style="fill:#fc0; stroke-width:0px;"/><polyline points="229.07 107.13 221.58 107.13 219.28 99.98 216.99 107.14 209.5 107.13 215.58 111.5 213.3 118.56 219.28 114.19 225.26 118.56 222.99 111.5 229.07 107.13" style="fill:#fc0; stroke-width:0px;"/><polyline points="205.07 87.62 211.06 83.26 217.04 87.62 214.76 80.56 220.84 76.2 213.36 76.2 211.06 69.05 208.76 76.21 201.28 76.2 207.36 80.56 205.07 87.62" style="fill:#fc0; stroke-width:0px;"/><polyline points="188.44 46.43 186.15 53.59 178.66 53.58 184.73 57.95 182.46 65.02 188.45 60.64 194.43 65.02 192.15 57.95 198.23 53.58 190.73 53.58 188.44 46.43" style="fill:#fc0; stroke-width:0px;"/><text transform="translate(330.46 204.5)" style="fill:#58595b; font-family:ArialMT, Arial; font-size:51px;"><tspan x="0" y="0">NextGenerationEU</tspan></text><path d="m334.39,57.72V15.48h28.95v7.14h-20.43v10h17.63v7.14h-17.63v17.95h-8.53Z" style="fill:#039; stroke-width:0px;"/><path d="m390.45,57.72v-4.58c-1.11,1.63-2.58,2.92-4.39,3.86-1.81.94-3.73,1.41-5.75,1.41s-3.9-.45-5.53-1.35c-1.63-.9-2.81-2.17-3.54-3.8-.73-1.63-1.09-3.89-1.09-6.77v-19.36h8.09v14.06c0,4.3.15,6.94.45,7.91s.84,1.74,1.63,2.3c.79.57,1.79.85,3,.85,1.38,0,2.62-.38,3.72-1.14,1.1-.76,1.84-1.7,2.25-2.82.4-1.12.6-3.88.6-8.25v-12.91h8.09v30.59h-7.52Z" style="fill:#039; stroke-width:0px;"/><path d="m434.18,57.72h-8.1v-15.61c0-3.3-.17-5.44-.52-6.41-.35-.97-.91-1.72-1.69-2.26-.78-.54-1.71-.81-2.81-.81-1.4,0-2.66.38-3.77,1.15-1.11.77-1.88,1.79-2.29,3.05s-.62,3.61-.62,7.03v13.86h-8.09v-30.59h7.52v4.49c2.67-3.46,6.03-5.19,10.08-5.19,1.79,0,3.42.32,4.9.96,1.48.64,2.6,1.46,3.36,2.46.76,1,1.29,2.13,1.58,3.4s.45,3.08.45,5.44v19.01Z" style="fill:#039; stroke-width:0px;"/><path d="m470.45,57.72h-7.52v-4.49c-1.25,1.75-2.72,3.05-4.42,3.9-1.7.85-3.41,1.28-5.14,1.28-3.51,0-6.53-1.42-9.03-4.25-2.51-2.83-3.76-6.78-3.76-11.85s1.22-9.13,3.66-11.83c2.44-2.7,5.52-4.05,9.25-4.05,3.42,0,6.38,1.42,8.87,4.26v-15.21h8.1v42.23Zm-21.61-15.96c0,3.27.45,5.63,1.35,7.09,1.31,2.11,3.13,3.17,5.47,3.17,1.86,0,3.45-.79,4.75-2.38,1.31-1.58,1.96-3.95,1.96-7.1,0-3.51-.63-6.04-1.9-7.59-1.27-1.55-2.89-2.32-4.87-2.32s-3.53.76-4.83,2.29c-1.3,1.53-1.95,3.81-1.95,6.84Z" style="fill:#039; stroke-width:0px;"/><path d="m496.15,47.98l8.07,1.35c-1.04,2.96-2.67,5.21-4.91,6.76-2.24,1.55-5.04,2.32-8.4,2.32-5.32,0-9.26-1.74-11.81-5.21-2.02-2.78-3.02-6.3-3.02-10.54,0-5.07,1.32-9.04,3.97-11.91,2.65-2.87,6-4.31,10.05-4.31,4.55,0,8.14,1.5,10.77,4.51,2.63,3.01,3.89,7.61,3.77,13.81h-20.28c.06,2.4.71,4.27,1.96,5.6,1.25,1.33,2.8,2,4.67,2,1.27,0,2.33-.35,3.2-1.04s1.52-1.81,1.96-3.34Zm.46-8.18c-.06-2.34-.66-4.12-1.82-5.34s-2.55-1.83-4.21-1.83c-1.77,0-3.23.64-4.38,1.93-1.15,1.29-1.72,3.03-1.7,5.24h12.1Z" style="fill:#039; stroke-width:0px;"/><path d="m539.3,57.72h-7.52v-4.49c-1.25,1.75-2.72,3.05-4.42,3.9-1.7.85-3.41,1.28-5.14,1.28-3.51,0-6.53-1.42-9.03-4.25-2.51-2.83-3.76-6.78-3.76-11.85s1.22-9.13,3.66-11.83c2.44-2.7,5.52-4.05,9.25-4.05,3.42,0,6.38,1.42,8.87,4.26v-15.21h8.1v42.23Zm-21.61-15.96c0,3.27.45,5.63,1.35,7.09,1.31,2.11,3.13,3.17,5.47,3.17,1.86,0,3.45-.79,4.75-2.38,1.31-1.58,1.96-3.95,1.96-7.1,0-3.51-.63-6.04-1.9-7.59-1.27-1.55-2.89-2.32-4.87-2.32s-3.53.76-4.83,2.29c-1.3,1.53-1.95,3.81-1.95,6.84Z" style="fill:#039; stroke-width:0px;"/><path d="m563.33,57.72V15.48h8.1v15.21c2.5-2.84,5.45-4.26,8.87-4.26,3.73,0,6.81,1.35,9.25,4.05,2.44,2.7,3.66,6.57,3.66,11.62s-1.24,9.25-3.73,12.07c-2.49,2.82-5.51,4.23-9.06,4.23-1.75,0-3.47-.44-5.17-1.31-1.7-.87-3.17-2.17-4.39-3.88v4.49h-7.52Zm8.04-15.96c0,3.17.5,5.51,1.5,7.03,1.4,2.15,3.26,3.23,5.59,3.23,1.79,0,3.31-.76,4.57-2.29,1.26-1.53,1.89-3.93,1.89-7.22,0-3.5-.63-6.02-1.9-7.56-1.27-1.55-2.89-2.32-4.87-2.32s-3.55.75-4.84,2.26c-1.29,1.51-1.93,3.8-1.93,6.87Z" style="fill:#039; stroke-width:0px;"/><path d="m595.88,27.12h8.61l7.32,21.72,7.14-21.72h8.38l-10.8,29.44-1.93,5.33c-.71,1.79-1.39,3.15-2.03,4.09-.64.94-1.38,1.7-2.22,2.29-.84.59-1.86,1.04-3.08,1.37-1.22.33-2.6.49-4.13.49s-3.08-.16-4.58-.49l-.72-6.34c1.27.25,2.41.37,3.43.37,1.88,0,3.27-.55,4.18-1.66.9-1.1,1.59-2.51,2.07-4.22l-11.64-30.68Z" style="fill:#039; stroke-width:0px;"/><path d="m348.3,97.92v6.45h-5.53v12.33c0,2.5.05,3.95.16,4.36.11.41.35.75.72,1.02.37.27.83.4,1.37.4.75,0,1.83-.26,3.26-.78l.69,6.28c-1.88.81-4.01,1.21-6.4,1.21-1.46,0-2.78-.25-3.95-.73-1.17-.49-2.03-1.12-2.58-1.9-.55-.78-.93-1.83-1.14-3.15-.17-.94-.26-2.84-.26-5.7v-13.34h-3.72v-6.45h3.72v-6.08l8.12-4.72v10.8h5.53Z" style="fill:#039; stroke-width:0px;"/><path d="m361.99,86.28v15.53c2.61-3.05,5.73-4.58,9.36-4.58,1.86,0,3.54.35,5.04,1.04s2.63,1.58,3.39,2.65c.76,1.08,1.28,2.27,1.56,3.57.28,1.31.42,3.33.42,6.08v17.95h-8.1v-16.16c0-3.21-.15-5.24-.46-6.11-.31-.86-.85-1.55-1.63-2.06-.78-.51-1.75-.76-2.92-.76-1.34,0-2.54.33-3.6.98-1.06.65-1.83,1.64-2.32,2.95-.49,1.32-.74,3.26-.74,5.83v15.33h-8.09v-42.23h8.09Z" style="fill:#039; stroke-width:0px;"/><path d="m407.68,118.78l8.07,1.35c-1.04,2.96-2.67,5.21-4.91,6.76-2.24,1.55-5.04,2.32-8.4,2.32-5.32,0-9.26-1.74-11.81-5.21-2.02-2.78-3.02-6.3-3.02-10.54,0-5.07,1.32-9.04,3.97-11.91,2.65-2.87,6-4.31,10.05-4.31,4.55,0,8.14,1.5,10.77,4.51,2.63,3.01,3.89,7.61,3.77,13.81h-20.28c.06,2.4.71,4.27,1.96,5.6,1.25,1.33,2.8,2,4.67,2,1.27,0,2.33-.35,3.2-1.04s1.52-1.81,1.96-3.34Zm.46-8.18c-.06-2.34-.66-4.12-1.82-5.34s-2.55-1.83-4.21-1.83c-1.77,0-3.23.64-4.38,1.93-1.15,1.29-1.72,3.03-1.7,5.24h12.1Z" style="fill:#039; stroke-width:0px;"/><path d="m439.22,128.52v-42.23h31.31v7.14h-22.79v9.36h21.2v7.12h-21.2v11.49h23.59v7.12h-32.12Z" style="fill:#039; stroke-width:0px;"/><path d="m498.66,128.52v-4.58c-1.11,1.63-2.58,2.92-4.39,3.86-1.81.94-3.73,1.41-5.75,1.41s-3.9-.45-5.53-1.35c-1.63-.9-2.81-2.17-3.54-3.8-.73-1.63-1.09-3.89-1.09-6.77v-19.36h8.09v14.06c0,4.3.15,6.94.45,7.91s.84,1.74,1.63,2.3c.79.57,1.79.85,3,.85,1.38,0,2.62-.38,3.72-1.14,1.1-.76,1.84-1.7,2.25-2.82.4-1.12.6-3.88.6-8.25v-12.91h8.09v30.59h-7.52Z" style="fill:#039; stroke-width:0px;"/><path d="m522.31,128.52h-8.1v-30.59h7.52v4.35c1.29-2.05,2.44-3.41,3.47-4.06,1.03-.65,2.19-.98,3.5-.98,1.84,0,3.62.51,5.33,1.53l-2.51,7.06c-1.36-.88-2.63-1.33-3.8-1.33s-2.09.31-2.88.94c-.79.62-1.41,1.75-1.86,3.38-.45,1.63-.68,5.05-.68,10.26v9.45Z" style="fill:#039; stroke-width:0px;"/><path d="m535.65,112.79c0-2.69.66-5.29,1.99-7.81,1.33-2.52,3.2-4.44,5.63-5.76,2.43-1.33,5.14-1.99,8.14-1.99,4.63,0,8.42,1.5,11.38,4.51,2.96,3.01,4.44,6.8,4.44,11.39s-1.49,8.47-4.48,11.51c-2.99,3.04-6.75,4.57-11.28,4.57-2.8,0-5.48-.63-8.02-1.9-2.54-1.27-4.48-3.13-5.81-5.57-1.32-2.45-1.99-5.43-1.99-8.95Zm8.3.43c0,3.03.72,5.36,2.16,6.97,1.44,1.61,3.22,2.42,5.33,2.42s3.88-.81,5.32-2.42c1.43-1.61,2.15-3.96,2.15-7.03s-.72-5.3-2.15-6.91c-1.43-1.61-3.2-2.42-5.32-2.42s-3.89.81-5.33,2.42c-1.44,1.61-2.16,3.94-2.16,6.97Z" style="fill:#039; stroke-width:0px;"/><path d="m573.33,97.92h7.55v4.49c.98-1.54,2.3-2.78,3.97-3.75,1.67-.96,3.52-1.44,5.56-1.44,3.55,0,6.57,1.39,9.05,4.18,2.48,2.79,3.72,6.66,3.72,11.64s-1.25,9.08-3.74,11.91c-2.5,2.83-5.52,4.25-9.08,4.25-1.69,0-3.22-.34-4.59-1.01-1.37-.67-2.82-1.82-4.34-3.46v15.41h-8.1v-42.23Zm8.01,14.78c0,3.44.68,5.98,2.04,7.62,1.36,1.64,3.03,2.46,4.98,2.46s3.45-.75,4.7-2.26c1.25-1.51,1.87-3.98,1.87-7.42,0-3.21-.64-5.59-1.93-7.14-1.29-1.56-2.88-2.33-4.78-2.33s-3.62.76-4.93,2.29c-1.31,1.53-1.96,3.79-1.96,6.78Z" style="fill:#039; stroke-width:0px;"/><path d="m627.32,118.78l8.07,1.35c-1.04,2.96-2.67,5.21-4.91,6.76-2.24,1.55-5.04,2.32-8.4,2.32-5.32,0-9.26-1.74-11.81-5.21-2.02-2.78-3.02-6.3-3.02-10.54,0-5.07,1.32-9.04,3.97-11.91,2.65-2.87,6-4.31,10.05-4.31,4.55,0,8.14,1.5,10.77,4.51,2.63,3.01,3.89,7.61,3.77,13.81h-20.28c.06,2.4.71,4.27,1.96,5.6,1.25,1.33,2.8,2,4.67,2,1.27,0,2.33-.35,3.2-1.04s1.52-1.81,1.96-3.34Zm.46-8.18c-.06-2.34-.66-4.12-1.82-5.34s-2.55-1.83-4.21-1.83c-1.77,0-3.23.64-4.38,1.93-1.15,1.29-1.72,3.03-1.7,5.24h12.1Z" style="fill:#039; stroke-width:0px;"/><path d="m648.46,107.26l-7.35-1.33c.83-2.96,2.25-5.15,4.26-6.57,2.02-1.42,5.01-2.13,8.99-2.13,3.61,0,6.3.43,8.07,1.28,1.77.85,3.01,1.94,3.73,3.25.72,1.32,1.08,3.73,1.08,7.25l-.09,9.45c0,2.69.13,4.67.39,5.95.26,1.28.74,2.65,1.46,4.11h-8.01c-.21-.54-.47-1.33-.78-2.39-.13-.48-.23-.8-.29-.95-1.38,1.34-2.86,2.35-4.44,3.02-1.58.67-3.26,1.01-5.04,1.01-3.15,0-5.63-.85-7.45-2.56-1.81-1.71-2.72-3.87-2.72-6.48,0-1.73.41-3.27,1.24-4.62.83-1.35,1.98-2.39,3.47-3.11,1.49-.72,3.63-1.35,6.44-1.89,3.78-.71,6.41-1.37,7.87-1.99v-.81c0-1.56-.38-2.66-1.15-3.33-.77-.66-2.22-.99-4.35-.99-1.44,0-2.56.28-3.37.85s-1.46,1.56-1.96,2.98Zm10.83,6.57c-1.04.35-2.68.76-4.93,1.24-2.25.48-3.72.95-4.41,1.41-1.06.75-1.58,1.7-1.58,2.85s.42,2.11,1.27,2.94c.84.83,1.92,1.24,3.23,1.24,1.46,0,2.85-.48,4.18-1.44.98-.73,1.62-1.62,1.93-2.68.21-.69.32-2.01.32-3.95v-1.61Z" style="fill:#039; stroke-width:0px;"/><path d="m703.05,128.52h-8.1v-15.61c0-3.3-.17-5.44-.52-6.41-.35-.97-.91-1.72-1.69-2.26-.78-.54-1.71-.81-2.81-.81-1.4,0-2.66.38-3.77,1.15-1.11.77-1.88,1.79-2.29,3.05s-.62,3.61-.62,7.03v13.86h-8.09v-30.59h7.52v4.49c2.67-3.46,6.03-5.19,10.08-5.19,1.79,0,3.42.32,4.9.96,1.48.64,2.6,1.46,3.36,2.46.76,1,1.29,2.13,1.58,3.4s.45,3.08.45,5.44v19.01Z" style="fill:#039; stroke-width:0px;"/><path d="m727.65,86.28h8.53v22.87c0,3.63.11,5.98.32,7.06.36,1.73,1.23,3.12,2.61,4.16,1.37,1.05,3.25,1.57,5.63,1.57s4.24-.49,5.47-1.48c1.23-.99,1.97-2.2,2.22-3.64.25-1.44.38-3.83.38-7.17v-23.36h8.53v22.18c0,5.07-.23,8.65-.69,10.75-.46,2.09-1.31,3.86-2.55,5.3-1.24,1.44-2.9,2.59-4.97,3.44-2.07.85-4.78,1.28-8.12,1.28-4.03,0-7.09-.47-9.18-1.4-2.08-.93-3.73-2.14-4.94-3.63-1.21-1.49-2.01-3.05-2.39-4.68-.56-2.42-.84-5.99-.84-10.72v-22.53Z" style="fill:#039; stroke-width:0px;"/><path d="m798.09,128.52h-8.1v-15.61c0-3.3-.17-5.44-.52-6.41-.35-.97-.91-1.72-1.69-2.26-.78-.54-1.71-.81-2.81-.81-1.4,0-2.66.38-3.77,1.15-1.11.77-1.88,1.79-2.29,3.05s-.62,3.61-.62,7.03v13.86h-8.09v-30.59h7.52v4.49c2.67-3.46,6.03-5.19,10.08-5.19,1.79,0,3.42.32,4.9.96,1.48.64,2.6,1.46,3.36,2.46.76,1,1.29,2.13,1.58,3.4s.45,3.08.45,5.44v19.01Z" style="fill:#039; stroke-width:0px;"/><path d="m806.3,93.77v-7.49h8.1v7.49h-8.1Zm0,34.74v-30.59h8.1v30.59h-8.1Z" style="fill:#039; stroke-width:0px;"/><path d="m820.82,112.79c0-2.69.66-5.29,1.99-7.81,1.33-2.52,3.2-4.44,5.63-5.76,2.43-1.33,5.14-1.99,8.14-1.99,4.63,0,8.42,1.5,11.38,4.51,2.96,3.01,4.44,6.8,4.44,11.39s-1.49,8.47-4.48,11.51c-2.99,3.04-6.75,4.57-11.28,4.57-2.8,0-5.48-.63-8.02-1.9-2.54-1.27-4.48-3.13-5.81-5.57-1.32-2.45-1.99-5.43-1.99-8.95Zm8.3.43c0,3.03.72,5.36,2.16,6.97,1.44,1.61,3.22,2.42,5.33,2.42s3.88-.81,5.32-2.42c1.43-1.61,2.15-3.96,2.15-7.03s-.72-5.3-2.15-6.91c-1.43-1.61-3.2-2.42-5.32-2.42s-3.89.81-5.33,2.42c-1.44,1.61-2.16,3.94-2.16,6.97Z" style="fill:#039; stroke-width:0px;"/><path d="m886.56,128.52h-8.1v-15.61c0-3.3-.17-5.44-.52-6.41-.35-.97-.91-1.72-1.69-2.26-.78-.54-1.71-.81-2.81-.81-1.4,0-2.66.38-3.77,1.15-1.11.77-1.88,1.79-2.29,3.05s-.62,3.61-.62,7.03v13.86h-8.09v-30.59h7.52v4.49c2.67-3.46,6.03-5.19,10.08-5.19,1.79,0,3.42.32,4.9.96,1.48.64,2.6,1.46,3.36,2.46.76,1,1.29,2.13,1.58,3.4s.45,3.08.45,5.44v19.01Z" style="fill:#039; stroke-width:0px;"/></svg>