<?xml version="1.0" encoding="UTF-8"?><svg id="a" xmlns="http://www.w3.org/2000/svg" viewBox="0 0 325.98 158.74"><path d="m165.71,58.3h3.27c.36,0,.66-.3.66-.66v-10.1h9.37v10.1c0,.36.3.66.66.66h3.27c.36,0,.66-.3.66-.66v-23.23c0-.36-.3-.63-.66-.63h-3.27c-.36,0-.66.26-.66.63v9.11h-9.37v-9.11c0-.36-.3-.63-.66-.63h-3.27c-.36,0-.66.26-.66.63v23.23c0,.36.3.66.66.66h0Zm27.52.26c1.58,0,3.13-.53,4.65-1.45v.53c0,.36.3.66.66.66h2.8c.36,0,.66-.3.66-.66v-11.88c0-4.22-2.57-6.3-7.26-6.3-2.28,0-4.19.26-5.51.53-.43.1-.63.33-.63.69v2.11c0,.46.26.56.59.56h.17c1.09-.13,3.27-.26,5.38-.26,1.95,0,2.9.53,2.9,2.67v1.45h-2.08c-5.74,0-8.05,1.95-8.05,5.71v.13c0,4.45,2.97,5.51,5.71,5.51h0Zm-1.32-5.64c0-1.85.66-2.8,3.66-2.8h2.08v4.06c-.96.53-2.18.92-3.37.92-1.65,0-2.38-.43-2.38-2.04v-.13h0Zm16.5-3.96l4.52,2.77c1.05.66,1.45,1.06,1.45,1.68,0,.89-.3,1.58-2.34,1.58-.99,0-3.96-.16-5.54-.36h-.13c-.33,0-.56.26-.56.53v1.98c0,.4.23.66.63.76,1.85.49,4.62.66,5.91.66,4.32,0,6.47-2.28,6.47-5.15,0-1.68-.39-3.33-3.17-5.02l-4.32-2.64c-.83-.5-1.32-.83-1.32-1.35,0-1.02.69-1.39,2.28-1.39,1.88,0,4.52.27,5.44.4h.13c.33,0,.53-.23.53-.63v-1.91c0-.4-.2-.66-.59-.76-1.68-.36-3.2-.66-5.87-.66-4.19,0-6.27,1.65-6.27,4.95,0,1.91,1.15,3.56,2.77,4.55h0Zm23.36-.56l-4.32-2.64c-.83-.5-1.32-.83-1.32-1.35,0-1.02.69-1.39,2.28-1.39,1.88,0,4.52.27,5.45.4h.13c.33,0,.53-.23.53-.63v-1.91c0-.4-.2-.66-.6-.76-1.68-.36-3.2-.66-5.87-.66-4.19,0-6.27,1.65-6.27,4.95,0,1.91,1.15,3.56,2.77,4.55l4.52,2.77c1.05.66,1.45,1.06,1.45,1.68,0,.89-.3,1.58-2.34,1.58-.99,0-3.96-.16-5.54-.36h-.13c-.33,0-.56.26-.56.53v1.98c0,.4.23.66.63.76,1.85.49,4.62.66,5.91.66,4.32,0,6.47-2.28,6.47-5.15,0-1.68-.4-3.33-3.17-5.02h0Zm14.12,10.16c5.18,0,7.89-3.5,7.89-8.22v-2.67c0-4.72-2.71-8.22-7.89-8.22s-7.89,3.5-7.89,8.22v2.67c0,4.72,2.71,8.22,7.89,8.22h0Zm-3.53-10.89c0-2.71,1.22-4.46,3.53-4.46s3.53,1.75,3.53,4.46v2.67c0,2.71-1.22,4.46-3.53,4.46s-3.53-1.75-3.53-4.46v-2.67h0Zm-60.29,25.76v-.3c0-5.84-4.42-7.62-9.5-7.62-2.41,0-4.75.17-6.47.43-.66.1-1.06.33-1.06.99v22.7c0,.36.3.66.66.66h3.3c.36,0,.63-.3.63-.66v-8.61c.76.03,2.08.13,2.94.13,5.08,0,9.5-1.88,9.5-7.72h0Zm-4.55,0c0,2.64-1.39,3.96-4.95,3.96-.56,0-2.41-.07-2.94-.1v-7.85c.59-.07,2.24-.13,2.94-.13,3.3,0,4.95,1.06,4.95,3.83v.3h0Zm8.45,16.86h3.07c.36,0,.63-.33.63-.69v-23.76c0-.36-.26-.66-.63-.66h-3.07c-.36,0-.66.3-.66.66v23.76c0,.36.3.69.66.69h0Zm17.59-1.19v.53c0,.36.3.66.66.66h2.8c.36,0,.66-.3.66-.66v-11.88c0-4.22-2.57-6.3-7.26-6.3-2.28,0-4.19.26-5.51.53-.43.1-.62.33-.62.69v2.11c0,.46.26.56.59.56h.17c1.09-.13,3.27-.26,5.38-.26,1.95,0,2.9.53,2.9,2.67v1.45h-2.08c-5.74,0-8.05,1.95-8.05,5.71v.13c0,4.46,2.97,5.51,5.71,5.51,1.58,0,3.13-.53,4.65-1.45h0Zm-5.97-4.06v-.13c0-1.85.66-2.8,3.66-2.8h2.08v4.06c-.96.53-2.18.92-3.37.92-1.65,0-2.37-.43-2.37-2.05h0Zm15.84.26c0,4.42,1.52,5.25,5.25,5.25.73,0,1.45-.1,2.24-.23.43-.07.63-.26.63-.59v-2.08c0-.33-.26-.5-.69-.5h-1.75c-1.19,0-1.29-.2-1.29-1.85v-10.36h2.02c.37,0,.66-.3.66-.66v-1.95c0-.36-.3-.66-.66-.66h-2.02v-3.4c0-.33-.23-.5-.53-.5h-.13l-3.07.53c-.36.07-.66.3-.66.66v2.71h-3.1c-.37,0-.66.3-.66.66v1.48c0,.36.3.59.66.66l3.1.46v10.36h0Zm19.64,1.85h-1.75c-1.19,0-1.29-.2-1.29-1.85v-10.36h2.97c.36,0,.66-.3.66-.66v-1.95c0-.36-.3-.66-.66-.66h-2.97v-3.4c0-.33-.23-.5-.53-.5h-.13l-3.07.53c-.36.07-.66.3-.66.66v2.71h-2.15c-.36,0-.66.3-.66.66v1.48c0,.36.3.59.66.66l2.15.46v10.36c0,4.42,1.52,5.25,5.24,5.25.73,0,1.45-.1,2.24-.23.43-.07.63-.26.63-.59v-2.08c0-.33-.26-.5-.69-.5h0Zm19.5,2.44v-10.76c0-4.19-.96-7.39-5.71-7.39-2.18,0-3.43.36-5.35,1.58v-.69c0-.36-.3-.66-.66-.66h-2.87c-.36,0-.66.3-.66.66v17.26c0,.36.3.69.66.69h3.04c.36,0,.66-.33.66-.69v-13.27c1.39-.73,2.61-1.19,3.73-1.19,2.54,0,2.8.82,2.8,3.7v10.76c0,.36.3.69.66.69h3.04c.36,0,.66-.33.66-.69h0Zm18.61-7.09c.46,0,.66-.3.66-.83v-1.85c0-4.92-2.77-8.38-7.85-8.38s-7.92,3.23-7.92,8.38v2.44c0,6.5,4.68,8.28,7.98,8.28,2.97,0,4.26-.16,6.4-.56.59-.1.69-.33.69-.86v-2.18c0-.33-.27-.5-.6-.5h-.1c-1.38.13-3.66.33-6.07.33-3.17,0-3.96-2.28-3.96-4.19v-.1h10.76Zm-10.72-3.23c0-2.61,1.48-4.06,3.53-4.06s3.46,1.48,3.46,4.06v.13h-7v-.13h0Zm23.79-7.82c-1.32,0-3.1.33-4.72,1.58v-.69c0-.36-.3-.66-.66-.66h-2.87c-.37,0-.66.3-.66.66v17.26c0,.36.3.69.66.69h3.04c.36,0,.66-.33.66-.69v-13.27c1.39-.73,2.77-1.19,4.55-1.19.36,0,.66-.3.66-.66v-2.38c0-.36-.3-.66-.66-.66h0Zm-115.21,26.32h-3.3c-.37,0-.67.27-.67.63v23.23c0,.36.3.66.67.66h3.3c.37,0,.67-.3.67-.66v-23.23c0-.36-.3-.63-.67-.63h0Zm15.96,5.68c-2.2,0-3.47.36-5.4,1.58v-.69c0-.36-.3-.66-.67-.66h-2.9c-.37,0-.67.3-.67.66v17.26c0,.36.3.69.67.69h3.07c.37,0,.67-.33.67-.69v-13.27c1.4-.73,2.63-1.19,3.77-1.19,2.57,0,2.83.82,2.83,3.7v10.76c0,.36.3.69.67.69h3.07c.37,0,.67-.33.67-.69v-10.76c0-4.19-.97-7.39-5.77-7.39h0Zm20.53,8.94l-4.37-2.64c-.83-.5-1.33-.83-1.33-1.35,0-1.03.7-1.39,2.3-1.39,1.9,0,4.56.26,5.5.4h.13c.33,0,.53-.23.53-.63v-1.91c0-.4-.2-.66-.6-.76-1.7-.36-3.23-.66-5.93-.66-4.23,0-6.33,1.65-6.33,4.95,0,1.91,1.17,3.56,2.8,4.55l4.57,2.77c1.07.66,1.47,1.05,1.47,1.68,0,.89-.3,1.58-2.37,1.58-1,0-4-.17-5.6-.36h-.13c-.33,0-.56.26-.56.53v1.98c0,.4.23.66.63.76,1.87.5,4.67.66,5.97.66,4.37,0,6.53-2.28,6.53-5.15,0-1.68-.4-3.33-3.2-5.02h0Zm17.33,6.77h-1.77c-1.2,0-1.3-.2-1.3-1.85v-10.36h3c.37,0,.67-.3.67-.66v-1.95c0-.36-.3-.66-.67-.66h-3v-3.4c0-.33-.23-.49-.53-.49h-.13l-3.1.53c-.37.07-.67.3-.67.66v2.71h-3.13c-.37,0-.67.3-.67.66v1.48c0,.36.3.59.67.66l3.13.46v10.36c0,4.42,1.53,5.25,5.3,5.25.73,0,1.47-.1,2.27-.23.43-.07.63-.26.63-.59v-2.08c0-.33-.27-.49-.7-.49h0Zm8.53-15.48h-3.07c-.37,0-.67.3-.67.66v17.26c0,.36.3.69.67.69h3.07c.37,0,.67-.33.67-.69v-17.26c0-.36-.3-.66-.67-.66h0Zm.1-6.7h-3.23c-.37,0-.7.3-.7.66v2.9c0,.36.33.66.7.66h3.23c.37,0,.67-.3.67-.66v-2.9c0-.36-.3-.66-.67-.66h0Zm15.8,22.18h-1.77c-1.2,0-1.3-.2-1.3-1.85v-10.36h3c.37,0,.67-.3.67-.66v-1.95c0-.36-.3-.66-.67-.66h-3v-3.4c0-.33-.23-.49-.53-.49h-.13l-3.1.53c-.37.07-.67.3-.67.66v2.71h-3.13c-.37,0-.67.3-.67.66v1.48c0,.36.3.59.67.66l3.13.46v10.36c0,4.42,1.53,5.25,5.3,5.25.73,0,1.47-.1,2.27-.23.43-.07.63-.26.63-.59v-2.08c0-.33-.27-.49-.7-.49h0Zm19.43-15.48h-3.07c-.37,0-.67.33-.67.69v13.2c-.93.49-2.54,1.32-3.77,1.32-1.04,0-1.6-.2-2.07-.59-.63-.56-.77-1.52-.77-3.17v-10.76c0-.36-.3-.69-.67-.69h-3.07c-.37,0-.67.33-.67.69v10.76c0,2.74.43,4.79,1.67,6.01.97.96,2.43,1.38,4.1,1.38,2.13,0,3.5-.53,5.23-1.65v.76c0,.36.3.66.67.66h3.07c.37,0,.67-.3.67-.66v-17.26c0-.36-.3-.69-.67-.69h0Zm15.8,15.48h-1.77c-1.2,0-1.3-.2-1.3-1.85v-10.36h3c.37,0,.67-.3.67-.66v-1.95c0-.36-.3-.66-.67-.66h-3v-3.4c0-.33-.23-.49-.53-.49h-.13l-3.1.53c-.37.07-.67.3-.67.66v2.71h-3.13c-.37,0-.67.3-.67.66v1.48c0,.36.3.59.67.66l3.13.46v10.36c0,4.42,1.53,5.25,5.3,5.25.73,0,1.46-.1,2.27-.23.43-.07.63-.26.63-.59v-2.08c0-.33-.27-.49-.7-.49h0Z" style="fill:#5a5f62; stroke-width:0px;"/><polygon points="139.34 122.26 40.13 122.26 40.13 23.04 139.34 23.04 139.34 122.26 139.34 122.26" style="fill:#b00835; stroke-width:0px;"/><polygon points="153.51 93.91 68.47 93.91 68.47 8.87 153.51 8.87 153.51 93.91 153.51 93.91" style="fill:#f7a600; stroke-width:0px;"/><polygon points="68.47 93.91 139.34 93.91 139.34 23.04 68.47 23.04 68.47 93.91 68.47 93.91" style="fill:#de6106; stroke-width:0px;"/><path d="m97.3,34.05h-3.27c-.36,0-.66.26-.66.63v9.11h-9.37v-9.11c0-.36-.3-.63-.66-.63h-3.27c-.36,0-.66.26-.66.63v23.23c0,.36.3.66.66.66h3.27c.36,0,.66-.3.66-.66v-10.1h9.37v10.1c0,.36.3.66.66.66h3.27c.36,0,.66-.3.66-.66v-23.23c0-.36-.3-.63-.66-.63h0Zm13.19-.26c-2.41,0-4.75.16-6.47.43-.66.1-1.06.33-1.06.99v22.7c0,.36.3.66.66.66h3.3c.36,0,.63-.3.63-.66v-8.61c.76.03,2.08.13,2.94.13,5.08,0,9.5-1.88,9.5-7.72v-.3c0-5.84-4.42-7.62-9.5-7.62h0Zm4.95,7.92c0,2.64-1.39,3.96-4.95,3.96-.56,0-2.41-.07-2.94-.1v-7.85c.59-.07,2.25-.13,2.94-.13,3.3,0,4.95,1.06,4.95,3.83v.3h0Zm12.3-7.66h-3.27c-.36,0-.66.26-.66.63v23.23c0,.36.3.66.66.66h3.27c.36,0,.66-.3.66-.66v-23.23c0-.36-.3-.63-.66-.63h0Z" style="fill:#fff; stroke-width:0px;"/><path d="m283.56,144.28v-4.8c0-1.88-.97-2.49-2.18-2.49-.7,0-1.5.2-2.24.55-.34-.39-.77-.55-1.35-.55-.74,0-1.43.3-1.97.63v-.26c0-.15-.11-.27-.26-.27h-.67c-.15,0-.26.12-.26.27v6.91c0,.15.1.27.23.27h.71c.15,0,.24-.13.24-.27v-5.72c.57-.29,1.16-.53,1.64-.53.7,0,1.04.24,1.04,1.42v4.82c0,.15.09.27.23.27h.71c.15,0,.24-.13.24-.27v-4.82c0-.41-.04-.76-.12-1.06.53-.2,1.09-.37,1.58-.37.7,0,1.23.31,1.23,1.45v4.8c0,.15.12.27.27.27h.65c.15,0,.27-.12.27-.27m-11.97-1.15c-.65.35-1.2.54-1.82.54-.78,0-1.24-.26-1.24-1.23v-.16c0-.96.43-1.33,2.06-1.33h1v2.18Zm1.18,1.15v-4.73c0-1.6-.75-2.55-2.63-2.55-.92,0-1.54.08-2.09.18-.19.03-.28.11-.28.26v.47c0,.18.12.22.24.22h.07c.54-.05,1.19-.11,2.06-.11,1.05,0,1.44.39,1.44,1.53v.54h-1c-2.4,0-3.25.73-3.25,2.19v.16c0,1.69,1.05,2.2,2.2,2.2.76,0,1.43-.28,2.08-.66v.3c0,.15.12.27.27.27h.62c.15,0,.27-.12.27-.27Zm-8.13-.76c-.46.04-1.12.08-1.58.08-1.34,0-1.75-.83-1.75-2.3v-.98c0-1.45.43-2.28,1.75-2.28.43,0,1.13.01,1.58.1v5.38Zm1.19.58v-9.48c0-.15-.11-.26-.24-.26h-.69c-.15,0-.26.12-.26.26v2.52c-.53-.09-1.16-.13-1.58-.13-1.97,0-2.94,1.19-2.94,3.32v.98c0,2.03.93,3.35,2.94,3.35.82,0,1.64-.07,2.48-.23.24-.04.28-.13.28-.31m-7.07-1.42c0-.8-.37-1.38-1.48-2.04l-1.33-.8c-.62-.37-.93-.62-.93-1.03,0-.69.5-.79,1.25-.79s1.62.07,2.09.11h.04c.14,0,.23-.07.23-.23v-.45c0-.15-.08-.24-.26-.27-.63-.11-1.35-.18-2.1-.18-1.39,0-2.44.39-2.44,1.8,0,.85.55,1.44,1.37,1.94l1.36.81c.77.46,1.01.72,1.01,1.12,0,.73-.46.96-1.34.96-.48,0-1.47-.07-2.12-.15h-.05c-.13,0-.24.08-.24.2v.47c0,.15.11.23.28.27.66.16,1.63.2,2.13.2,1.51,0,2.52-.58,2.52-1.96m-6.17,1.67v-.47c0-.13-.1-.19-.28-.19h-.76c-.54,0-.73-.11-.73-.85v-4.73h1.46c.15,0,.27-.12.27-.27v-.46c0-.15-.12-.27-.27-.27h-1.46v-1.48c0-.13-.1-.23-.2-.23h-.04l-.7.11c-.15.03-.24.13-.24.27v1.33h-1.31c-.15,0-.26.1-.26.24v.37c0,.15.11.23.26.24l1.31.15v4.73c0,1.49.59,1.81,1.83,1.81.26,0,.61-.03.87-.07.18-.03.24-.11.24-.23m-6.62-3.01c0,1.4-.57,2.26-1.82,2.26s-1.81-.88-1.81-2.26v-1.03c0-1.4.55-2.26,1.81-2.26s1.82.88,1.82,2.26v1.03Zm1.19,0v-1.03c0-1.99-1.02-3.3-3.01-3.3s-2.99,1.31-2.99,3.3v1.03c0,1.99,1.01,3.31,2.99,3.31s3.01-1.31,3.01-3.31m-8.48-3.83c0,1.41-.7,2.01-2.55,2.01-.35,0-1.04-.04-1.35-.05v-3.97c.32-.03.93-.05,1.35-.05,1.74,0,2.55.53,2.55,1.9v.18Zm1.22,0v-.18c0-2.18-1.59-2.94-3.77-2.94-.78,0-1.66.04-2.24.11-.2.03-.32.15-.32.34v9.45c0,.15.11.27.24.27h.73c.15,0,.24-.13.24-.27v-3.81c.35.03.92.07,1.35.07,2.19,0,3.77-.77,3.77-3.04m-11.19,6.84v-.47c0-.13-.09-.19-.28-.19h-.76c-.54,0-.73-.11-.73-.85v-4.73h1.46c.15,0,.27-.12.27-.27v-.46c0-.15-.12-.27-.27-.27h-1.46v-1.48c0-.13-.1-.23-.2-.23h-.04l-.7.11c-.15.03-.24.13-.24.27v1.33h-1.31c-.15,0-.26.1-.26.24v.37c0,.15.11.23.26.24l1.31.15v4.73c0,1.49.59,1.81,1.83,1.81.26,0,.61-.03.87-.07.18-.03.24-.11.24-.23m-8.92-8.74v-1.1c0-.13-.13-.27-.27-.27h-.53c-.13,0-.27.13-.27.27v1.1c0,.15.13.26.27.26h.53c.13,0,.27-.11.27-.26m2.36,0v-1.1c0-.13-.13-.27-.27-.27h-.52c-.13,0-.27.13-.27.27v1.1c0,.15.13.26.27.26h.52c.14,0,.27-.11.27-.26m-.33,7.52c-.65.35-1.2.54-1.82.54-.78,0-1.24-.26-1.24-1.23v-.16c0-.96.43-1.33,2.06-1.33h1v2.18Zm1.18,1.15v-4.73c0-1.6-.75-2.55-2.63-2.55-.92,0-1.54.08-2.09.18-.19.03-.28.11-.28.26v.47c0,.18.12.22.24.22h.07c.54-.05,1.19-.11,2.06-.11,1.05,0,1.44.39,1.44,1.53v.54h-1c-2.4,0-3.25.73-3.25,2.19v.16c0,1.69,1.05,2.2,2.2,2.2.76,0,1.43-.28,2.08-.66v.3c0,.15.12.27.27.27h.62c.15,0,.27-.12.27-.27Zm-6.54.07v-.47c0-.13-.09-.19-.28-.19h-.76c-.54,0-.73-.11-.73-.85v-4.73h1.45c.15,0,.27-.12.27-.27v-.46c0-.15-.12-.27-.27-.27h-1.45v-1.48c0-.13-.1-.23-.2-.23h-.04l-.7.11c-.15.03-.24.13-.24.27v1.33h-1.31c-.15,0-.26.1-.26.24v.37c0,.15.11.23.26.24l1.31.15v4.73c0,1.49.59,1.81,1.83,1.81.26,0,.61-.03.88-.07.17-.03.24-.11.24-.23m-5.95-.07v-6.91c0-.15-.12-.27-.27-.27h-.65c-.15,0-.27.12-.27.27v6.91c0,.15.12.27.27.27h.65c.15,0,.27-.12.27-.27m.03-8.65v-1.08c0-.15-.12-.27-.27-.27h-.69c-.15,0-.27.12-.27.27v1.08c0,.15.12.27.27.27h.69c.15,0,.27-.12.27-.27m-2.81,7.05c0-.8-.36-1.38-1.48-2.04l-1.34-.8c-.62-.37-.93-.62-.93-1.03,0-.69.5-.79,1.25-.79s1.62.07,2.09.11h.04c.13,0,.23-.07.23-.23v-.45c0-.15-.08-.24-.26-.27-.63-.11-1.35-.18-2.1-.18-1.39,0-2.44.39-2.44,1.8,0,.85.55,1.44,1.37,1.94l1.36.81c.77.46,1.01.72,1.01,1.12,0,.73-.46.96-1.34.96-.49,0-1.47-.07-2.12-.15h-.05c-.13,0-.24.08-.24.2v.47c0,.15.11.23.28.27.66.16,1.63.2,2.13.2,1.51,0,2.52-.58,2.52-1.96m-6.13-4.88v-.55c0-.16-.1-.24-.28-.24-.61,0-1.23.18-1.9.65v-.28c0-.15-.11-.27-.26-.27h-.63c-.15,0-.26.12-.26.27v6.91c0,.15.12.27.26.27h.66c.15,0,.27-.13.27-.27v-5.68c.67-.41,1.24-.57,1.86-.57.19,0,.28-.08.28-.23m-6.12,2.5h-3.57v-.12c0-1.46.65-2.13,1.81-2.13s1.77.6,1.77,2.13v.12Zm1.2.61v-.73c0-1.93-1-3.17-2.97-3.17s-2.99,1.23-2.99,3.17v1.22c0,2.52,1.51,3.25,3.06,3.25.9,0,1.64-.08,2.41-.23.21-.04.27-.13.27-.31v-.46c0-.13-.11-.19-.21-.19h-.07c-.62.1-1.62.15-2.4.15-1.24,0-1.88-.6-1.88-2.21v-.19h4.52c.16,0,.26-.12.26-.3m-7.02-3.58c0-.13-.08-.23-.22-.23h-.74c-.11,0-.2.08-.26.26l-1.55,5.91c-.08.32-.16.39-.28.39-.13,0-.2-.07-.28-.39l-1.55-5.91c-.05-.18-.15-.26-.26-.26h-.74c-.13,0-.21.1-.21.23,0,.03,0,.05.01.1l1.82,6.45c.17.61.63.77,1.21.77s1.04-.16,1.21-.77l1.82-6.45s.01-.07.01-.1m-7.62,6.95v-6.91c0-.15-.12-.27-.27-.27h-.64c-.15,0-.27.12-.27.27v6.91c0,.15.12.27.27.27h.64c.15,0,.27-.12.27-.27m.03-8.65v-1.08c0-.15-.12-.27-.27-.27h-.69c-.15,0-.27.12-.27.27v1.08c0,.15.12.27.27.27h.69c.15,0,.27-.12.27-.27m-3.13,8.65v-4.46c0-1.8-.73-2.82-2.34-2.82-.8,0-1.4.2-2.15.62v-.26c0-.15-.11-.27-.26-.27h-.67c-.15,0-.26.12-.26.27v6.91c0,.15.12.27.26.27h.66c.15,0,.27-.13.27-.27v-5.72c.62-.31,1.26-.53,1.82-.53,1.03,0,1.48.42,1.48,1.79v4.46c0,.15.12.27.27.27h.65c.15,0,.27-.12.27-.27m-7.61-3.39v-6.15c0-.15-.12-.26-.26-.26h-.73c-.15,0-.26.12-.26.26v6.15c0,1.76-.54,2.7-2.21,2.7s-2.21-.95-2.21-2.7v-6.15c0-.15-.12-.26-.25-.26h-.73c-.15,0-.26.12-.26.26v6.15c0,2.59,1.27,3.75,3.45,3.75s3.45-1.16,3.45-3.75m-12.23.05c0,.25-.2.45-.45.45h-1.14c-.25,0-.45-.2-.45-.45v-1.81c0-.25.2-.45.45-.45h1.14c.25,0,.45.2.45.45v1.81m-8.27,4.22c0,.75-.35,1.18-1.9,1.18s-1.95-.47-1.95-1.23v-.12c0-.71.27-1.04.66-1.38l1.53.39c1.22.31,1.65.53,1.65,1.06v.11Zm-.11-5.56c0,.81-.37,1.38-1.83,1.38-1.56,0-1.83-.79-1.83-1.38v-.11c0-.76.31-1.45,1.83-1.45s1.83.64,1.83,1.45v.11Zm1.45-1.86v-.35c0-.16-.15-.3-.31-.3h-2.97c-2.33,0-3.01,1.19-3.01,2.4v.11c0,.69.2,1.18.62,1.57-.38.21-.56.61-.56.97h0c0,.44.19.88.62,1.07l.09.04c-.45.34-.85.96-.85,1.72v.12c0,1.33.97,2.15,3.12,2.15s3.09-.8,3.09-2.1v-.11c0-1.28-1.27-1.65-2.6-1.99l-2.02-.51c-.31-.08-.42-.2-.42-.44,0-.2.11-.35.34-.46.39.16.85.27,1.57.27,2.09,0,3.01-.82,3.01-2.32v-.11c0-.73-.22-1.14-.46-1.4l.49-.09c.15-.03.24-.08.24-.26m-8.03,6.53v-4.46c0-1.8-.73-2.82-2.36-2.82-.8,0-1.41.2-2.16.62v-.26c0-.15-.11-.27-.26-.27h-.68c-.15,0-.26.12-.26.27v6.91c0,.15.12.27.26.27h.66c.15,0,.27-.13.27-.27v-5.72c.62-.31,1.26-.53,1.83-.53,1.03,0,1.49.42,1.49,1.79v4.46c0,.15.12.27.27.27h.65c.15,0,.27-.12.27-.27m-7.72,0v-6.91c0-.15-.12-.27-.27-.27h-.65c-.15,0-.27.12-.27.27v6.91c0,.15.12.27.27.27h.65c.15,0,.27-.12.27-.27m.03-8.64v-1.08c0-.15-.12-.27-.27-.27h-.69c-.15,0-.27.12-.27.27v1.08c0,.15.12.27.27.27h.69c.15,0,.27-.12.27-.27m-2.74,2.17v-.55c0-.16-.09-.24-.29-.24-.61,0-1.23.18-1.91.65v-.28c0-.15-.11-.27-.26-.27h-.64c-.15,0-.26.12-.26.27v6.91c0,.15.12.27.26.27h.66c.15,0,.27-.13.27-.27v-5.68c.68-.41,1.25-.57,1.87-.57.19,0,.29-.08.29-.23m-6.22,2.49h-3.59v-.12c0-1.46.65-2.13,1.82-2.13s1.78.6,1.78,2.13v.12Zm1.21.61v-.73c0-1.92-1-3.17-2.98-3.17s-3.01,1.23-3.01,3.17v1.22c0,2.52,1.52,3.25,3.08,3.25.91,0,1.65-.08,2.42-.23.22-.04.27-.13.27-.31v-.46c0-.13-.11-.19-.22-.19h-.07c-.62.1-1.62.15-2.41.15-1.25,0-1.88-.6-1.88-2.21v-.19h4.54c.16,0,.26-.12.26-.3m-8.69-.61h-3.59v-.12c0-1.46.65-2.13,1.82-2.13s1.78.6,1.78,2.13v.12Zm1.2.61v-.73c0-1.92-1-3.17-2.98-3.17s-3.01,1.23-3.01,3.17v1.22c0,2.52,1.52,3.25,3.08,3.25.91,0,1.65-.08,2.42-.23.22-.04.27-.13.27-.31v-.46c0-.13-.11-.19-.22-.19h-.07c-.62.1-1.62.15-2.41.15-1.25,0-1.88-.6-1.88-2.21v-.19h4.54c.16,0,.26-.12.26-.3m-7.68,3.37v-4.46c0-1.8-.73-2.82-2.36-2.82-.8,0-1.41.2-2.16.62v-.26c0-.15-.11-.27-.26-.27h-.68c-.15,0-.26.12-.26.27v6.91c0,.15.12.27.26.27h.66c.15,0,.27-.13.27-.27v-5.72c.62-.31,1.26-.53,1.83-.53,1.03,0,1.49.42,1.49,1.79v4.46c0,.15.12.27.27.27h.65c.15,0,.27-.12.27-.27m-7.72,0v-6.91c0-.15-.12-.27-.27-.27h-.65c-.15,0-.27.12-.27.27v6.91c0,.15.12.27.27.27h.65c.15,0,.27-.12.27-.27m.03-8.64v-1.08c0-.15-.12-.27-.27-.27h-.69c-.15,0-.27.12-.27.27v1.08c0,.15.12.27.27.27h.69c.15,0,.27-.12.27-.27m-4.14,9.53c0,.75-.35,1.18-1.9,1.18s-1.95-.47-1.95-1.23v-.12c0-.71.27-1.04.66-1.38l1.53.39c1.22.31,1.65.53,1.65,1.06v.11Zm-.11-5.56c0,.81-.37,1.38-1.83,1.38-1.56,0-1.83-.79-1.83-1.38v-.11c0-.76.31-1.45,1.83-1.45s1.83.64,1.83,1.45v.11Zm1.45-1.86v-.35c0-.16-.15-.3-.31-.3h-2.97c-2.33,0-3.01,1.19-3.01,2.4v.11c0,.69.2,1.18.62,1.57-.38.21-.56.61-.56.97h0c0,.44.19.88.62,1.07l.09.04c-.45.34-.85.96-.85,1.72v.12c0,1.33.97,2.15,3.12,2.15s3.09-.8,3.09-2.1v-.11c0-1.28-1.27-1.65-2.6-1.99l-2.02-.51c-.31-.08-.42-.2-.42-.44,0-.2.11-.35.34-.46.39.16.85.27,1.57.27,2.09,0,3.01-.82,3.01-2.32v-.11c0-.73-.22-1.14-.46-1.4l.49-.09c.15-.03.24-.08.24-.26m-8.03,6.53v-4.46c0-1.8-.73-2.82-2.36-2.82-.8,0-1.41.2-2.16.62v-.26c0-.15-.11-.27-.26-.27h-.68c-.15,0-.26.12-.26.27v6.91c0,.15.12.27.26.27h.66c.15,0,.27-.13.27-.27v-5.72c.62-.31,1.26-.53,1.83-.53,1.03,0,1.49.42,1.49,1.79v4.46c0,.15.12.27.27.27h.65c.15,0,.27-.12.27-.27m-7.41.11v-.69c0-.1-.05-.16-.15-.16h-2.61c-1.44,0-1.67-.38-1.67-1.41v-2.28h4.16c.15,0,.27-.12.27-.27v-.51c0-.15-.12-.27-.27-.27h-4.16v-1.88c0-1.03.23-1.41,1.67-1.41h2.61c.1,0,.15-.07.15-.16v-.68c0-.08-.05-.18-.14-.19-.57-.05-1.84-.08-2.64-.08-1.9,0-2.88.72-2.88,2.52v5.22c0,1.8.99,2.52,2.88,2.52.8,0,2.13-.01,2.64-.07.08-.01.14-.11.14-.19m-11.26-.11v-9.66c0-.15-.11-.26-.24-.26h-.7c-.15,0-.24.12-.24.26v9.66c0,.15.11.27.24.27h.7c.15,0,.24-.13.24-.27m-4.32-1.15c-.65.35-1.21.54-1.83.54-.79,0-1.25-.26-1.25-1.23v-.16c0-.96.43-1.33,2.07-1.33h1v2.18Zm1.19,1.15v-4.73c0-1.6-.76-2.55-2.64-2.55-.92,0-1.54.08-2.1.18-.19.03-.28.11-.28.26v.47c0,.18.12.22.24.22h.07c.54-.05,1.19-.11,2.07-.11,1.06,0,1.45.39,1.45,1.53v.54h-1c-2.41,0-3.26.73-3.26,2.19v.16c0,1.7,1.06,2.2,2.21,2.2.76,0,1.44-.29,2.09-.66v.3c0,.15.12.27.27.27h.62c.15,0,.27-.12.27-.27h0Zm-6.58.07v-.47c0-.13-.1-.19-.29-.19h-.76c-.54,0-.73-.11-.73-.85v-4.73h1.46c.15,0,.27-.12.27-.27v-.46c0-.15-.12-.27-.27-.27h-1.46v-1.48c0-.13-.1-.23-.2-.23h-.04l-.7.11c-.15.03-.24.13-.24.27v1.33h-1.31c-.15,0-.26.1-.26.24v.37c0,.15.11.23.26.24l1.31.15v4.73c0,1.49.6,1.81,1.84,1.81.26,0,.61-.03.88-.07.18-.03.24-.11.24-.23m-5.97-.07v-6.91c0-.15-.12-.27-.27-.27h-.65c-.15,0-.27.12-.27.27v6.91c0,.15.12.27.27.27h.65c.15,0,.27-.12.27-.27m.03-8.64v-1.08c0-.15-.12-.27-.27-.27h-.69c-.15,0-.27.12-.27.27v1.08c0,.15.12.27.27.27h.69c.15,0,.27-.12.27-.27m-4.08,9.53c0,.75-.35,1.18-1.9,1.18s-1.95-.47-1.95-1.23v-.12c0-.71.27-1.04.66-1.38l1.53.39c1.22.31,1.65.53,1.65,1.06v.11Zm-.11-5.56c0,.81-.37,1.38-1.83,1.38-1.56,0-1.83-.79-1.83-1.38v-.11c0-.76.31-1.45,1.83-1.45s1.83.64,1.83,1.45v.11Zm1.45-1.86v-.35c0-.16-.15-.3-.31-.3h-2.97c-2.33,0-3.01,1.19-3.01,2.4v.11c0,.69.2,1.18.62,1.57-.38.21-.55.61-.55.97h0c0,.44.19.88.62,1.07l.09.04c-.45.34-.85.96-.85,1.72v.12c0,1.33.97,2.15,3.12,2.15s3.09-.8,3.09-2.1v-.11c0-1.28-1.27-1.65-2.6-1.99l-2.02-.51c-.31-.08-.42-.2-.42-.44,0-.2.11-.35.34-.46.39.16.85.27,1.57.27,2.09,0,3.01-.82,3.01-2.32v-.11c0-.73-.22-1.14-.46-1.4l.49-.09c.15-.03.24-.08.24-.26m-8.07,6.53v-6.91c0-.15-.12-.27-.27-.27h-.65c-.15,0-.27.12-.27.27v6.91c0,.15.12.27.27.27h.65c.15,0,.27-.12.27-.27m.03-8.64v-1.08c0-.15-.12-.27-.27-.27h-.69c-.15,0-.27.12-.27.27v1.08c0,.15.12.27.27.27h.69c.15,0,.27-.12.27-.27m-4.3,4.8c0,2.44-1.25,3.16-2.87,3.16-.64,0-1.07,0-1.5-.03v-8.08c.45-.03.87-.04,1.5-.04,1.63,0,2.87.71,2.87,3.16v1.83Zm1.23,0v-1.83c0-2.93-1.6-4.21-4.1-4.21-1.03,0-2.07.07-2.46.13-.18.03-.29.15-.29.34v9.31c0,.2.11.31.29.34.39.07,1.43.13,2.46.13,2.51,0,4.1-1.31,4.1-4.21" style="fill:#5a5f62; stroke-width:0px;"/></svg>