<?xml version="1.0" encoding="UTF-8"?><svg id="a" xmlns="http://www.w3.org/2000/svg" viewBox="0 0 211.92 64.78"><path d="m49.68,24.89l2.15-12.67h3.25l2.56,6.76,2.72-6.76h3.29l1.9,12.67h-3.29l-.93-7.29-3.06,7.29h-1.31l-2.93-7.29-1.08,7.29s-3.27,0-3.27,0Z" style="fill:#004f79; stroke-width:0px;"/><path d="m74.83,15.01h-3.91v2.11h3.7v2.79h-3.7v2.18h3.91v2.79h-7.2v-12.67h7.2v2.79h0Z" style="fill:#004f79; stroke-width:0px;"/><path d="m80.21,12.22v12.67h-3.29v-12.67s3.29,0,3.29,0Z" style="fill:#004f79; stroke-width:0px;"/><path d="m82.87,24.89v-12.67h3.29l6.06,7.75v-7.75h3.29v12.67h-3.29l-6.06-7.75v7.75h-3.29Z" style="fill:#004f79; stroke-width:0px;"/><path d="m50.25,41.89v-12.67h4.9c.91,0,1.99.13,2.77.99.44.47.78,1.25.78,2.37,0,.55-.1,1.03-.36,1.56-.27.49-.55.78-1.03.99.66.08,1.33.38,1.73.76.51.49.85,1.31.85,2.32,0,1.2-.46,2.01-.93,2.49-.68.7-1.88,1.2-3.44,1.2h-5.28,0Zm3.29-7.67h.61c.34,0,.91-.04,1.25-.4.21-.21.3-.55.3-.84,0-.32-.11-.65-.3-.85-.21-.21-.61-.38-1.25-.38h-.61v2.47Zm0,5.11h.74c.91,0,1.67-.09,2.03-.51.15-.17.27-.46.27-.82,0-.4-.13-.72-.32-.91-.4-.4-1.22-.42-2.03-.42h-.68v2.66h-.01Z" style="fill:#004f79; stroke-width:0px;"/><path d="m65.27,29.22v12.67h-3.29v-12.67h3.29Z" style="fill:#004f79; stroke-width:0px;"/><path d="m71.22,29.22v9.88h3.95v2.79h-7.24v-12.67h3.29Z" style="fill:#004f79; stroke-width:0px;"/><path d="m76.86,41.89v-12.67h4.31c1.27,0,3.4.17,5.03,1.75,1.48,1.42,1.77,3.25,1.77,4.62,0,1.67-.42,3.15-1.65,4.39-1.01,1.01-2.7,1.92-4.86,1.92h-4.6,0Zm3.29-2.79h.67c.8,0,1.92-.08,2.77-.91.42-.4.97-1.2.97-2.6,0-1.18-.36-2.18-.99-2.77-.78-.72-1.8-.8-2.62-.8h-.8v7.09h0Z" style="fill:#004f79; stroke-width:0px;"/><path d="m93.36,29.22v7.5c0,.53.02,1.35.65,1.96.38.36.99.61,1.56.61s1.16-.23,1.52-.55c.76-.67.74-1.6.74-2.3v-7.22h3.29v7.28c0,1.33-.06,2.72-1.42,4.1-1.06,1.08-2.39,1.58-4.18,1.58-2,0-3.42-.68-4.2-1.52-1.1-1.2-1.23-2.81-1.23-4.16v-7.28h3.29-.02Z" style="fill:#004f79; stroke-width:0px;"/><path d="m103.77,41.89v-12.67h3.29l6.06,7.75v-7.75h3.29v12.67h-3.29l-6.06-7.75v7.75h-3.29Z" style="fill:#004f79; stroke-width:0px;"/><path d="m125.14,34.71h6.54c0,2.51-.51,4.29-2.03,5.7-1.33,1.23-2.85,1.6-4.46,1.6-2.28,0-3.84-.84-4.86-1.88-.95-.95-1.82-2.49-1.82-4.58s.8-3.67,1.9-4.75c1.04-1.04,2.68-1.86,4.92-1.86,1.18,0,2.45.27,3.42.85.99.61,1.8,1.61,2.26,2.6l-3.13,1.29c-.23-.59-.59-1.01-.91-1.27-.55-.46-1.14-.63-1.77-.63-.78,0-1.58.28-2.17.87-.74.74-1.1,1.92-1.1,2.91,0,1.16.42,2.11,1.01,2.74.61.65,1.35.97,2.32.97.57,0,1.23-.09,1.82-.59.3-.25.67-.7.78-1.41h-2.7v-2.57h-.02Z" style="fill:#004f79; stroke-width:0px;"/><path d="m134.61,38.09c.7.67,1.77,1.29,2.91,1.29.67,0,1.06-.21,1.27-.44.19-.19.32-.48.32-.8,0-.25-.09-.53-.36-.76-.32-.29-.82-.42-1.63-.67l-.85-.27c-.53-.17-1.31-.46-1.82-1.03-.65-.7-.72-1.6-.72-2.24,0-1.56.61-2.51,1.16-3.06.65-.65,1.71-1.2,3.25-1.2,1.25,0,2.72.4,3.91,1.03l-1.31,2.56c-.99-.78-1.73-.85-2.17-.85-.32,0-.76.08-1.08.38-.19.19-.32.4-.32.68,0,.23.04.4.17.57.1.11.32.34,1.1.57l1.01.3c.8.25,1.63.53,2.3,1.25.65.68.82,1.39.82,2.26,0,1.16-.29,2.28-1.2,3.19-1.08,1.08-2.39,1.29-3.74,1.29-.8,0-1.56-.08-2.49-.42-.21-.08-1.01-.38-1.92-1.01l1.41-2.66-.02.04Z" style="fill:#004f79; stroke-width:0px;"/><path d="m149.75,29.22c.95,0,2.17.15,3.1,1.12.72.74,1.08,1.84,1.08,2.85,0,1.08-.38,2.03-1.01,2.64-.49.48-1.16.76-1.75.87l3.97,5.19h-4.08l-3.15-4.86v4.86h-3.29v-12.67h5.13,0Zm-1.84,5.68h.63c.49,0,1.2-.13,1.6-.51.25-.25.42-.67.42-1.06s-.15-.8-.44-1.06c-.3-.3-.86-.49-1.58-.49h-.63v3.13h0Z" style="fill:#004f79; stroke-width:0px;"/><path d="m164.26,39.76h-4.6l-.85,2.13h-3.48l4.86-12.67h3.59l4.77,12.67h-3.51l-.78-2.13Zm-.87-2.51l-1.42-4.1-1.39,4.1h2.81Z" style="fill:#004f79; stroke-width:0px;"/><path d="m173.31,29.22v7.5c0,.53.02,1.35.65,1.96.38.36.99.61,1.56.61s1.16-.23,1.52-.55c.76-.67.74-1.6.74-2.3v-7.22h3.29v7.28c0,1.33-.06,2.72-1.42,4.1-1.06,1.08-2.39,1.58-4.18,1.58-1.99,0-3.42-.68-4.2-1.52-1.1-1.2-1.23-2.81-1.23-4.16v-7.28h3.29-.02Z" style="fill:#004f79; stroke-width:0px;"/><path d="m183.15,41.89l2.15-12.67h3.25l2.56,6.76,2.72-6.76h3.29l1.9,12.67h-3.29l-.93-7.29-3.06,7.29h-1.31l-2.93-7.29-1.08,7.29h-3.27Z" style="fill:#004f79; stroke-width:0px;"/><path d="m50.77,46.39v5h1.85v1.01h-3.02v-6h1.17Z" style="fill:#004f79; stroke-width:0px;"/><path d="m57.1,51.3c-.12.29-.56,1.21-1.92,1.21-.63,0-1.11-.18-1.49-.55-.43-.41-.61-.91-.61-1.52,0-.77.31-1.25.59-1.53.46-.45,1-.55,1.47-.55.79,0,1.25.32,1.52.64.41.5.47,1.11.47,1.53v.09h-2.92c0,.23.06.49.19.66.12.16.36.37.78.37s.73-.2.91-.51c0,0,1.01.16,1.01.16Zm-1.01-1.38c-.09-.53-.52-.78-.93-.78s-.83.26-.92.78h1.85Z" style="fill:#004f79; stroke-width:0px;"/><path d="m57.97,48.49h1.1v.59c.17-.33.4-.5.49-.54.17-.11.39-.17.65-.17.19,0,.34.04.47.09l-.14,1.03c-.14-.1-.29-.14-.51-.14s-.51.04-.73.32c-.21.26-.22.59-.22.86v1.87h-1.1v-3.9h-.01Z" style="fill:#004f79; stroke-width:0px;"/><path d="m61.21,48.49h1.1v.5c.21-.29.58-.63,1.21-.63.34,0,.85.1,1.15.48.27.33.31.72.31,1.1v2.45h-1.1v-2.12c0-.22,0-.56-.21-.76-.17-.18-.41-.2-.51-.2-.29,0-.51.1-.68.34-.16.25-.17.53-.17.76v1.99h-1.1v-3.9h0Z" style="fill:#004f79; stroke-width:0px;"/><path d="m69.84,51.3c-.12.29-.56,1.21-1.92,1.21-.63,0-1.11-.18-1.49-.55-.43-.41-.61-.91-.61-1.52,0-.77.31-1.25.59-1.53.46-.45,1-.55,1.47-.55.79,0,1.25.32,1.52.64.41.5.47,1.11.47,1.53v.09h-2.92c0,.23.06.49.19.66.12.16.36.37.78.37s.73-.2.91-.51c0,0,1.01.16,1.01.16Zm-1.01-1.38c-.09-.53-.52-.78-.93-.78s-.83.26-.92.78h1.85Z" style="fill:#004f79; stroke-width:0px;"/><path d="m70.71,48.49h1.1v.5c.21-.29.58-.63,1.21-.63.34,0,.85.1,1.15.48.27.33.31.72.31,1.1v2.45h-1.1v-2.12c0-.22,0-.56-.21-.76-.17-.18-.41-.2-.51-.2-.29,0-.51.1-.68.34-.16.25-.17.53-.17.76v1.99h-1.1v-3.9h0Z" style="fill:#004f79; stroke-width:0px;"/><path d="m78.71,48.49v2.21c0,.21.02.49.23.68.14.12.35.2.56.2s.42-.08.56-.2c.22-.2.23-.48.23-.68v-2.21h1.1v2.39c0,.35-.04.82-.48,1.2-.36.32-.94.44-1.41.44s-1.05-.13-1.41-.44c-.43-.38-.48-.85-.48-1.2v-2.39h1.1Z" style="fill:#004f79; stroke-width:0px;"/><path d="m82.44,48.49h1.1v.5c.21-.29.58-.63,1.21-.63.34,0,.85.1,1.15.48.27.33.31.72.31,1.1v2.45h-1.1v-2.12c0-.22,0-.56-.21-.76-.17-.18-.41-.2-.51-.2-.29,0-.51.1-.68.34-.16.25-.17.53-.17.76v1.99h-1.1v-3.9h0Z" style="fill:#004f79; stroke-width:0px;"/><path d="m90.24,45.83h1.1v6.56h-1.1v-.5c-.4.57-.92.63-1.2.63-1.2,0-1.99-.94-1.99-2.08s.78-2.07,1.94-2.07c.3,0,.88.05,1.25.63,0,0,0-3.17,0-3.17Zm-2.05,4.61c0,.62.45,1.11,1.08,1.11s1.08-.49,1.08-1.11-.45-1.1-1.08-1.1-1.08.48-1.08,1.1Z" style="fill:#004f79; stroke-width:0px;"/><path d="m95.81,46.39v5h1.85v1.01h-3.02v-6h1.17Z" style="fill:#004f79; stroke-width:0px;"/><path d="m102.13,51.3c-.12.29-.56,1.21-1.92,1.21-.63,0-1.11-.18-1.49-.55-.43-.41-.61-.91-.61-1.52,0-.77.31-1.25.59-1.53.46-.45,1-.55,1.47-.55.79,0,1.25.32,1.52.64.41.5.47,1.11.47,1.53v.09h-2.92c0,.23.06.49.19.66.12.16.36.37.78.37s.73-.2.91-.51c0,0,1.01.16,1.01.16Zm-1.01-1.38c-.09-.53-.52-.78-.93-.78s-.83.26-.92.78h1.85Z" style="fill:#004f79; stroke-width:0px;"/><path d="m103,45.83h1.1v3.17c.21-.29.58-.63,1.21-.63.34,0,.85.1,1.15.48.27.33.31.72.31,1.1v2.45h-1.1v-2.12c0-.22,0-.56-.21-.76-.17-.18-.41-.2-.51-.2-.29,0-.51.1-.68.34-.16.25-.17.53-.17.76v1.99h-1.1v-6.58Z" style="fill:#004f79; stroke-width:0px;"/><path d="m107.81,48.49h1.1v.59c.17-.33.41-.5.49-.54.17-.11.39-.17.65-.17.19,0,.34.04.47.09l-.14,1.03c-.14-.1-.29-.14-.51-.14s-.51.04-.73.32c-.21.26-.22.59-.22.86v1.87h-1.1v-3.9h0Z" style="fill:#004f79; stroke-width:0px;"/><path d="m114.69,51.3c-.12.29-.56,1.21-1.92,1.21-.63,0-1.11-.18-1.49-.55-.43-.41-.61-.91-.61-1.52,0-.77.32-1.25.59-1.53.46-.45,1-.55,1.47-.55.79,0,1.25.32,1.52.64.41.5.47,1.11.47,1.53v.09h-2.92c0,.23.06.49.19.66.12.16.36.37.78.37s.73-.2.91-.51c0,0,1.01.16,1.01.16Zm-1.01-1.38c-.09-.53-.52-.78-.93-.78s-.83.26-.92.78h1.85Z" style="fill:#004f79; stroke-width:0px;"/><path d="m115.56,48.49h1.1v.5c.21-.29.58-.63,1.21-.63.34,0,.85.1,1.15.48.27.33.31.72.31,1.1v2.45h-1.1v-2.12c0-.22,0-.56-.21-.76-.17-.18-.4-.2-.51-.2-.29,0-.51.1-.67.34-.16.25-.17.53-.17.76v1.99h-1.1v-3.9h-.01Z" style="fill:#004f79; stroke-width:0px;"/><path d="m126.29,51.3c-.12.29-.56,1.21-1.92,1.21-.63,0-1.11-.18-1.49-.55-.43-.41-.61-.91-.61-1.52,0-.77.32-1.25.59-1.53.46-.45,1-.55,1.47-.55.79,0,1.25.32,1.52.64.41.5.47,1.11.47,1.53v.09h-2.92c0,.23.06.49.19.66.12.16.36.37.78.37s.73-.2.91-.51c0,0,1.01.16,1.01.16Zm-1.01-1.38c-.09-.53-.52-.78-.93-.78s-.83.26-.92.78h1.85Z" style="fill:#004f79; stroke-width:0px;"/><path d="m127.71,46.19c.36,0,.66.3.66.66s-.3.66-.66.66-.66-.3-.66-.66.3-.66.66-.66Zm.55,2.3v3.9h-1.1v-3.9h1.1Z" style="fill:#004f79; stroke-width:0px;"/><path d="m129.3,48.49h1.1v.5c.21-.29.58-.63,1.21-.63.34,0,.85.1,1.15.48.27.33.31.72.31,1.1v2.45h-1.1v-2.12c0-.22,0-.56-.21-.76-.17-.18-.4-.2-.51-.2-.29,0-.51.1-.67.34-.16.25-.17.53-.17.76v1.99h-1.1v-3.9h0Z" style="fill:#004f79; stroke-width:0px;"/><path d="m137.54,46.39v5h1.85v1.01h-3.02v-6h1.17Z" style="fill:#004f79; stroke-width:0px;"/><path d="m143.87,51.3c-.12.29-.56,1.21-1.92,1.21-.63,0-1.11-.18-1.49-.55-.43-.41-.61-.91-.61-1.52,0-.77.32-1.25.59-1.53.46-.45,1-.55,1.47-.55.79,0,1.25.32,1.52.64.41.5.47,1.11.47,1.53v.09h-2.92c0,.23.06.49.19.66.12.16.36.37.78.37s.73-.2.91-.51l1.01.16Zm-1.01-1.38c-.09-.53-.52-.78-.93-.78s-.83.26-.92.78h1.85,0Z" style="fill:#004f79; stroke-width:0px;"/><path d="m145.84,49c.39-.54.94-.63,1.27-.63,1.15,0,1.92.89,1.92,2.07s-.79,2.08-1.94,2.08c-.25,0-.82-.04-1.24-.63v.5h-1.1v-6.56h1.1v3.17h0Zm-.11,1.44c0,.62.45,1.11,1.08,1.11s1.08-.49,1.08-1.11-.45-1.1-1.08-1.1-1.08.48-1.08,1.1Z" style="fill:#004f79; stroke-width:0px;"/><path d="m153.69,51.3c-.12.29-.56,1.21-1.92,1.21-.63,0-1.11-.18-1.49-.55-.43-.41-.61-.91-.61-1.52,0-.77.32-1.25.59-1.53.46-.45,1-.55,1.47-.55.79,0,1.25.32,1.52.64.41.5.47,1.11.47,1.53v.09h-2.92c0,.23.06.49.19.66.12.16.36.37.78.37s.73-.2.91-.51l1.01.16Zm-1.01-1.38c-.09-.53-.52-.78-.93-.78s-.83.26-.92.78h1.85,0Z" style="fill:#004f79; stroke-width:0px;"/><path d="m154.57,48.49h1.1v.5c.21-.29.58-.63,1.21-.63.34,0,.85.1,1.15.48.27.33.31.72.31,1.1v2.45h-1.1v-2.12c0-.22,0-.56-.21-.76-.17-.18-.4-.2-.51-.2-.29,0-.51.1-.67.34-.16.25-.17.53-.17.76v1.99h-1.1v-3.9h0Z" style="fill:#004f79; stroke-width:0px;"/><path d="m162.57,45.83v6.56h-1.1v-6.56h1.1Z" style="fill:#004f79; stroke-width:0px;"/><path d="m166.6,48.49h1.1v3.9h-1.1v-.5c-.4.57-.92.63-1.2.63-1.2,0-1.99-.94-1.99-2.08s.78-2.07,1.94-2.07c.3,0,.88.05,1.25.63v-.5h0Zm-2.05,1.95c0,.62.45,1.11,1.08,1.11s1.08-.49,1.08-1.11-.45-1.1-1.08-1.1-1.08.48-1.08,1.1Z" style="fill:#004f79; stroke-width:0px;"/><path d="m168.74,48.49h1.1v.5c.21-.29.58-.63,1.21-.63.34,0,.85.1,1.15.48.27.33.31.72.31,1.1v2.45h-1.1v-2.12c0-.22,0-.56-.21-.76-.17-.18-.4-.2-.51-.2-.29,0-.51.1-.67.34-.16.25-.17.53-.17.76v1.99h-1.1v-3.9h0Z" style="fill:#004f79; stroke-width:0px;"/><path d="m176.52,48.49h1.1v3.72c0,.59-.05,1.21-.54,1.7-.27.27-.74.55-1.54.55s-1.21-.22-1.46-.45c-.31-.26-.54-.72-.63-1.16h1.19c.04.18.14.36.27.47.22.2.51.21.67.21.32,0,.52-.11.67-.24.25-.24.28-.55.28-.86v-.55c-.38.58-.9.65-1.2.65-.52,0-.97-.16-1.35-.53-.29-.29-.62-.79-.62-1.55,0-.61.22-1.18.6-1.55.34-.33.82-.52,1.34-.52.73,0,1.07.4,1.22.63v-.52Zm-1.68,1.12c-.18.16-.35.42-.35.83,0,.34.13.59.29.76.23.25.53.34.79.34s.54-.1.73-.27c.23-.21.35-.52.35-.84,0-.37-.16-.62-.32-.78-.22-.23-.47-.32-.76-.32-.35,0-.59.14-.73.27h0Z" style="fill:#004f79; stroke-width:0px;"/><polygon points="12.36 28.94 12.36 12.22 29.09 12.22 24.09 17.22 17.36 17.22 17.36 23.94 12.36 28.94" style="fill:#aad1e6; stroke-width:0px;"/><polygon points="30.38 36.96 37.1 36.96 37.1 30.24 42.1 25.24 42.1 41.96 25.38 41.96 30.38 36.96" style="fill:#004f79; stroke-width:0px;"/><polygon points="17.36 29.6 17.36 36.96 24.72 36.96 19.72 41.96 12.36 41.96 12.36 34.6 17.36 29.6" style="fill:#0077b6; stroke-width:0px;"/><polygon points="30.38 36.96 25.38 41.96 32.1 41.96 32.1 36.96 30.38 36.96" style="fill:#0077b6; stroke-width:0px;"/><polygon points="17.36 22.22 12.36 22.22 12.36 28.94 17.36 23.94 17.36 22.22" style="fill:#0077b6; stroke-width:0px;"/><polygon points="34.74 12.22 29.74 17.22 29.74 24.58 37.1 24.58 42.1 19.58 42.1 12.22 34.74 12.22" style="fill:#cd5038; stroke-width:0px;"/></svg>